{"glyphs":{"0":{"ha":708,"x_min":32,"x_max":685,"o":"m 429 51 q 385 14 429 51 q 242 -22 342 -22 q 87 53 142 -22 q 32 263 32 128 q 50 431 32 339 q 106 617 68 524 q 195 788 144 711 q 319 914 246 865 q 474 963 393 963 q 628 885 572 963 q 685 671 685 808 q 654 458 685 575 q 570 233 624 342 q 429 51 517 124 m 289 24 q 406 103 353 24 q 490 295 460 182 q 535 513 519 408 q 551 689 551 618 q 428 913 551 913 q 303 838 358 913 q 220 651 249 763 q 178 438 192 540 q 164 257 164 336 q 289 24 164 24 z "},"1":{"ha":708,"x_min":74,"x_max":531,"o":"m 74 0 l 76 14 l 140 29 q 215 67 196 43 q 251 176 233 92 l 381 783 q 375 835 388 817 q 335 843 363 853 l 200 800 l 188 842 l 519 960 l 531 953 l 367 178 q 359 63 350 88 q 413 29 368 39 l 479 14 l 476 0 l 74 0 z "},"2":{"ha":708,"x_min":-7,"x_max":658,"o":"m -7 0 l 7 60 q 290 301 168 182 q 444 465 407 417 q 532 699 532 582 q 490 817 532 768 q 379 865 449 865 q 172 776 268 865 l 156 793 q 290 919 226 881 q 446 958 353 958 q 595 895 532 958 q 658 736 658 832 q 649 658 658 696 q 615 581 639 619 q 574 515 592 542 q 517 450 556 489 q 461 394 478 411 q 401 339 444 378 q 119 94 208 163 l 392 94 q 522 138 494 94 l 569 210 l 586 204 l 522 0 l -7 0 z "},"3":{"ha":708,"x_min":24,"x_max":619,"o":"m 161 -21 q 67 2 111 -21 q 24 68 24 25 q 50 122 24 100 q 113 139 76 143 l 118 133 q 152 63 119 92 q 235 35 185 35 q 394 115 329 35 q 458 296 458 196 q 251 458 458 458 l 164 458 l 178 518 l 240 518 q 424 581 342 518 q 506 744 506 644 q 469 841 506 800 q 369 882 432 882 q 267 859 308 882 q 182 792 226 836 l 163 813 q 425 961 283 961 q 569 911 518 961 q 619 793 619 861 q 558 638 619 706 q 404 528 497 571 q 453 515 428 525 q 508 483 479 504 q 555 424 536 463 q 574 336 574 385 q 447 83 574 188 q 161 -21 321 -21 z "},"4":{"ha":708,"x_min":-17,"x_max":625,"o":"m 181 0 l 183 14 l 247 29 q 310 64 296 40 q 344 176 325 88 l 363 260 l -17 260 l -3 325 l 547 976 l 593 940 l 74 328 l 375 328 l 433 603 l 539 603 l 481 328 l 625 328 l 611 260 l 467 260 l 450 178 q 436 65 431 89 q 482 29 442 40 l 535 14 l 532 0 l 181 0 z "},"5":{"ha":708,"x_min":31,"x_max":661,"o":"m 583 361 q 461 91 583 203 q 168 -21 339 -21 q 74 2 118 -21 q 31 68 31 25 q 57 122 31 100 q 119 140 83 144 l 124 133 q 158 61 124 89 q 243 33 192 33 q 408 114 338 33 q 479 311 479 194 q 254 506 479 506 q 167 497 211 506 l 260 939 l 476 939 q 608 976 583 939 l 644 1029 l 661 1025 l 604 842 l 292 842 l 240 603 q 301 607 265 607 q 502 542 421 607 q 583 361 583 476 z "},"6":{"ha":708,"x_min":46,"x_max":817,"o":"m 817 972 l 815 931 q 476 827 626 928 q 247 566 326 726 q 168 218 168 406 q 199 83 168 139 q 301 26 229 26 q 449 112 396 26 q 503 297 503 197 q 467 425 503 375 q 356 475 431 475 q 242 440 289 475 l 229 467 q 428 544 338 544 q 573 483 519 544 q 626 328 626 422 q 521 85 626 192 q 278 -21 415 -21 q 106 56 165 -21 q 46 249 46 132 q 118 538 46 393 q 405 857 218 740 q 817 972 592 974 z "},"7":{"ha":708,"x_min":51,"x_max":731,"o":"m 51 0 l 640 822 l 331 824 q 199 781 226 824 l 151 708 l 135 714 l 204 938 l 731 938 l 710 839 q 172 0 254 206 l 51 0 z "},"8":{"ha":708,"x_min":26,"x_max":660,"o":"m 257 -21 q 91 38 156 -21 q 26 185 26 97 q 37 263 26 226 q 71 330 47 299 q 114 383 94 361 q 172 431 133 406 q 231 467 211 456 q 292 503 250 479 q 185 710 185 597 q 268 894 185 826 q 451 963 351 963 q 601 918 542 963 q 660 792 660 874 q 656 749 660 769 q 641 709 651 728 q 622 676 631 690 q 596 645 614 661 q 567 619 578 629 q 533 595 556 610 q 499 574 510 581 q 464 554 489 568 q 432 536 439 540 q 550 402 518 456 q 582 267 582 349 q 484 56 582 133 q 257 -21 386 -21 m 406 560 q 528 658 489 607 q 567 786 567 710 q 531 885 567 844 q 442 925 494 925 q 332 872 372 925 q 292 751 292 819 q 319 655 292 697 q 406 560 347 613 m 278 21 q 419 81 365 21 q 472 238 472 142 q 459 304 472 271 q 419 371 446 338 q 372 425 392 404 q 318 478 353 446 q 171 358 218 422 q 124 190 124 294 q 164 71 124 121 q 278 21 204 21 z "},"9":{"ha":708,"x_min":-96,"x_max":675,"o":"m -96 -31 l -94 11 q 244 115 94 14 q 474 376 394 215 q 553 724 553 536 q 522 859 553 803 q 419 915 492 915 q 272 830 325 915 q 218 644 218 744 q 254 517 218 567 q 365 467 290 467 q 479 501 432 467 l 492 475 q 293 397 383 397 q 148 458 201 397 q 94 614 94 519 q 200 856 94 750 q 443 963 306 963 q 615 886 556 963 q 675 693 675 810 q 603 404 675 549 q 316 85 503 201 q -96 -31 129 -32 z "},"\u0000":{"ha":0,"x_min":0,"x_max":0,"o":""}," ":{"ha":354,"x_min":0,"x_max":0,"o":""}," ":{"ha":354,"x_min":0,"x_max":0,"o":""},"!":{"ha":442,"x_min":56,"x_max":418,"o":"m 164 278 q 219 692 192 411 q 254 1017 246 974 q 275 1036 257 1036 l 401 1036 q 418 1025 418 1036 q 390 924 418 1018 q 344 784 379 889 q 286 607 310 679 q 235 439 263 535 q 193 278 207 343 l 164 278 m 118 3 q 73 22 90 3 q 56 67 56 40 q 85 136 56 107 q 156 165 114 165 q 203 147 185 165 q 222 100 222 129 q 191 31 222 60 q 118 3 160 3 z "},"\"":{"ha":635,"x_min":200,"x_max":646,"o":"m 200 617 q 201 727 201 642 q 203 878 200 813 q 214 983 206 944 q 303 1042 226 1042 q 365 993 365 1042 q 353 942 365 979 q 323 856 342 906 q 287 764 304 807 q 249 674 269 721 q 225 617 229 628 l 200 617 m 481 617 q 481 727 482 642 q 483 878 481 813 q 494 983 486 944 q 583 1042 507 1042 q 646 993 646 1042 q 634 942 646 979 q 603 856 622 906 q 567 764 585 807 q 530 674 550 721 q 506 617 510 628 l 481 617 z "},"#":{"ha":708,"x_min":-12,"x_max":725,"o":"m 38 0 l 150 292 l -12 292 l 0 360 l 178 360 l 271 600 l 111 600 l 124 671 l 297 671 l 401 938 l 447 938 l 344 671 l 533 671 l 636 938 l 682 938 l 578 671 l 725 671 l 713 600 l 553 600 l 458 360 l 604 360 l 592 292 l 433 292 l 319 0 l 275 0 l 388 292 l 196 292 l 83 0 l 38 0 m 225 360 l 415 360 l 507 600 l 317 600 l 225 360 z "},"$":{"ha":708,"x_min":10,"x_max":668,"o":"m 181 -176 l 219 3 q 106 15 168 3 q 10 46 44 28 l 22 233 l 46 239 l 58 169 q 117 87 68 115 q 229 54 167 58 l 314 449 l 271 481 q 153 686 153 565 q 235 867 153 799 q 432 944 317 936 l 467 1110 l 526 1110 l 490 944 q 668 901 594 938 l 626 714 l 604 714 l 603 782 q 571 854 601 822 q 479 893 540 886 l 407 556 l 431 539 q 546 425 510 481 q 582 301 582 369 q 497 97 582 176 q 279 6 411 18 l 240 -176 l 181 -176 m 289 56 q 422 113 364 64 q 479 244 479 161 q 451 335 479 296 q 367 419 422 375 l 289 56 m 354 585 l 421 894 q 295 847 344 890 q 246 743 246 804 q 272 659 246 693 q 354 585 299 625 z "},"%":{"ha":1131,"x_min":43,"x_max":1086,"o":"m 206 -15 l 167 15 l 922 949 l 961 917 l 206 -15 m 793 -14 q 685 38 724 -14 q 647 176 647 90 q 667 319 647 243 q 724 465 688 396 q 817 581 760 535 q 940 626 874 626 q 1047 575 1008 626 q 1086 436 1086 524 q 1066 294 1086 371 q 1010 148 1046 218 q 917 32 974 78 q 793 -14 860 -14 m 819 18 q 912 108 871 18 q 969 296 953 199 q 986 457 986 393 q 914 593 986 593 q 838 542 872 593 q 785 417 804 490 q 757 275 767 343 q 747 160 747 207 q 819 18 747 18 m 189 306 q 81 358 119 306 q 43 496 43 410 q 63 639 43 563 q 119 785 83 715 q 213 900 156 854 q 336 946 269 946 q 443 894 404 946 q 482 756 482 843 q 462 614 482 690 q 406 467 442 538 q 313 351 369 397 q 189 306 256 306 m 215 338 q 308 428 267 338 q 365 615 349 518 q 382 776 382 713 q 310 913 382 913 q 234 861 268 913 q 181 736 200 810 q 153 594 163 663 q 143 479 143 526 q 215 338 143 338 z "},"&":{"ha":1124,"x_min":29,"x_max":1124,"o":"m 399 -22 q 132 85 235 -22 q 29 351 29 192 q 122 628 29 496 q 346 760 215 760 q 424 713 403 760 q 424 622 446 667 l 429 618 q 660 983 660 846 q 639 1038 660 1017 l 639 1046 q 703 1071 658 1071 q 747 1051 729 1071 q 765 1003 765 1032 q 715 877 765 953 q 618 751 665 801 q 519 653 571 700 q 136 357 321 467 q 235 131 150 214 q 461 49 319 49 q 697 133 600 49 q 793 353 793 218 q 758 469 793 422 q 663 517 724 517 q 596 488 621 517 q 571 422 571 460 q 614 360 571 375 l 615 351 q 590 322 608 333 q 550 310 571 310 q 512 325 528 310 q 496 371 496 340 q 578 519 496 451 q 743 588 660 588 q 890 543 804 588 q 1010 496 981 496 q 1053 510 1035 496 q 1072 550 1072 525 q 1044 588 1072 578 l 1044 594 q 1082 624 1056 624 q 1111 610 1099 624 q 1124 574 1124 596 q 1069 483 1124 522 q 950 443 1015 443 q 808 481 883 443 l 806 476 q 856 423 836 458 q 875 350 875 388 q 797 159 875 247 q 609 24 718 71 q 399 -22 500 -22 m 129 399 q 203 444 154 411 q 278 501 253 478 q 343 621 343 564 q 325 673 343 651 q 276 694 307 694 q 167 613 206 694 q 128 446 128 531 q 129 399 128 414 z "},"'":{"ha":354,"x_min":200,"x_max":365,"o":"m 200 617 q 201 727 201 642 q 203 878 200 813 q 214 983 206 944 q 303 1042 226 1042 q 365 993 365 1042 q 353 942 365 979 q 323 856 342 906 q 287 764 304 807 q 249 674 269 721 q 225 617 229 628 l 200 617 z "},"(":{"ha":486,"x_min":69,"x_max":565,"o":"m 279 -246 q 124 -24 179 -149 q 69 221 69 100 q 194 680 69 481 q 544 1015 318 879 l 565 989 q 259 653 371 861 q 147 183 147 446 q 303 -222 147 -51 l 279 -246 z "},")":{"ha":486,"x_min":-139,"x_max":357,"o":"m -118 -246 l -139 -219 q 167 116 56 -92 q 279 586 279 324 q 124 992 279 821 l 147 1015 q 302 794 247 918 q 357 549 357 669 q 233 90 357 289 q -118 -246 108 -110 z "},"*":{"ha":625,"x_min":61,"x_max":632,"o":"m 631 749 q 628 736 632 740 q 607 722 625 732 l 429 621 l 426 613 l 478 447 q 482 424 483 429 q 474 414 481 419 q 460 410 465 408 q 443 425 456 411 l 325 554 l 317 554 l 160 436 q 138 421 142 422 q 126 425 133 419 q 122 435 121 429 q 133 458 122 442 l 236 621 l 236 629 l 79 724 q 63 736 65 732 q 65 750 61 740 q 75 761 71 760 q 94 760 79 763 l 285 732 l 292 738 l 364 931 q 374 954 371 950 q 388 958 378 958 q 399 954 397 958 q 400 931 400 950 l 404 738 l 410 732 l 604 758 q 625 760 621 761 q 631 749 629 758 z "},"+":{"ha":708,"x_min":1,"x_max":663,"o":"m 289 0 l 289 289 l 1 289 l 1 375 l 289 375 l 289 664 l 375 664 l 375 375 l 663 375 l 663 289 l 375 289 l 375 0 l 289 0 z "},",":{"ha":354,"x_min":-69,"x_max":181,"o":"m -51 -226 l -69 -196 q 97 -1 97 -110 q 69 65 97 40 q 4 82 40 90 l -3 88 q 17 161 -6 131 q 83 192 40 192 q 153 157 125 192 q 181 74 181 122 q -51 -226 181 -112 z "},"-":{"ha":354,"x_min":-11,"x_max":331,"o":"m 331 471 l 307 389 l -11 321 l 13 403 l 331 471 z "},".":{"ha":354,"x_min":19,"x_max":196,"o":"m 86 3 q 38 22 56 3 q 19 71 19 42 q 51 143 19 113 q 125 174 82 174 q 176 155 156 174 q 196 106 196 136 q 163 33 196 64 q 86 3 129 3 z "},"/":{"ha":354,"x_min":-181,"x_max":538,"o":"m -114 -156 l -181 -125 l 471 1093 l 538 1063 l -114 -156 z "},":":{"ha":354,"x_min":19,"x_max":301,"o":"m 192 494 q 143 514 161 494 q 125 563 125 533 q 156 635 125 604 q 231 665 188 665 q 281 647 261 665 q 301 597 301 628 q 268 525 301 556 q 192 494 235 494 m 86 3 q 38 22 56 3 q 19 71 19 42 q 51 143 19 113 q 125 174 82 174 q 176 155 156 174 q 196 106 196 136 q 163 33 196 64 q 86 3 129 3 z "},";":{"ha":354,"x_min":-69,"x_max":301,"o":"m 192 494 q 143 514 161 494 q 125 563 125 533 q 156 635 125 604 q 231 665 188 665 q 281 647 261 665 q 301 597 301 628 q 268 525 301 556 q 192 494 235 494 m -51 -226 l -69 -196 q 97 -1 97 -110 q 69 65 97 40 q 4 82 40 90 l -3 88 q 17 161 -6 131 q 83 192 40 192 q 153 157 125 192 q 181 74 181 122 q -51 -226 181 -112 z "},"<":{"ha":708,"x_min":10,"x_max":676,"o":"m 676 -11 l 10 292 l 10 372 l 676 675 l 676 585 l 119 332 l 676 79 l 676 -11 z "},"=":{"ha":708,"x_min":11,"x_max":672,"o":"m 11 419 l 11 507 l 672 507 l 672 419 l 11 419 m 11 157 l 11 244 l 672 244 l 672 157 l 11 157 z "},">":{"ha":708,"x_min":24,"x_max":690,"o":"m 24 -11 l 24 79 l 582 332 l 24 585 l 24 675 l 690 372 l 690 292 l 24 -11 z "},"?":{"ha":622,"x_min":111,"x_max":617,"o":"m 253 264 q 187 361 208 310 q 183 472 165 413 q 275 571 201 531 l 421 651 q 471 681 454 671 q 513 714 488 692 q 551 765 539 736 q 563 829 563 793 q 519 929 563 892 q 413 967 475 967 q 310 933 354 967 q 258 850 265 900 l 249 847 q 209 866 228 850 q 190 910 190 882 q 238 1001 190 960 q 374 1043 285 1043 q 543 976 469 1043 q 617 815 617 910 q 460 560 617 650 l 324 482 q 251 416 272 453 q 238 345 231 379 q 271 278 244 311 l 253 264 m 175 3 q 128 22 146 3 q 111 67 111 40 q 140 136 111 107 q 211 165 169 165 q 260 147 240 165 q 279 100 279 129 q 248 31 279 60 q 175 3 217 3 z "},"@":{"ha":1181,"x_min":65,"x_max":1117,"o":"m 504 -165 q 311 -128 397 -165 q 173 -33 225 -92 q 93 96 121 26 q 65 236 65 165 q 115 485 65 360 q 249 710 164 610 q 457 874 333 811 q 718 938 581 938 q 1003 835 890 938 q 1117 556 1117 733 q 1009 243 1117 381 q 739 101 901 106 q 694 119 710 101 q 678 160 678 136 q 679 208 678 185 l 685 254 q 568 142 631 186 q 451 99 506 99 q 364 146 390 99 q 338 260 338 193 q 437 547 338 414 q 688 681 536 681 q 811 660 776 681 l 858 678 l 867 676 l 778 268 q 768 184 764 224 q 804 147 772 144 q 972 272 900 156 q 1043 564 1043 388 q 956 806 1043 710 q 724 901 869 901 q 517 856 613 901 q 356 740 421 811 q 243 578 290 668 q 174 399 196 489 q 153 229 153 310 q 266 -35 153 57 q 542 -126 379 -126 q 761 -79 664 -126 q 956 57 858 -32 l 975 29 q 888 -45 924 -18 q 794 -104 851 -72 q 665 -151 736 -136 q 504 -165 593 -165 m 513 175 q 638 247 569 175 q 692 321 678 289 q 719 418 706 353 l 756 586 q 654 629 729 629 q 532 572 583 629 q 460 442 481 514 q 438 299 439 369 q 441 240 438 264 q 463 196 444 217 q 513 175 481 175 z "},"A":{"ha":889,"x_min":-110,"x_max":801,"o":"m 801 14 l 799 0 l 450 0 l 453 14 l 504 28 q 567 68 556 42 q 569 178 579 94 l 550 343 l 232 343 l 176 246 q 100 81 106 122 q 140 29 94 40 l 188 14 l 185 0 l -110 0 l -107 14 l -71 26 q -4 69 -29 40 q 83 206 21 99 l 464 851 q 486 896 483 883 q 483 947 489 908 l 486 950 l 588 950 l 697 176 q 722 67 710 90 q 772 26 735 43 l 801 14 m 542 393 l 507 679 q 496 803 494 775 l 493 803 q 426 681 486 786 l 261 393 l 542 393 z "},"B":{"ha":833,"x_min":-39,"x_max":783,"o":"m 783 761 q 714 615 783 675 q 544 521 644 554 l 544 518 q 676 458 621 510 q 731 326 731 406 q 663 141 731 218 q 501 32 594 64 q 306 0 408 0 l -39 0 l -36 14 l 14 29 q 78 67 63 43 q 111 176 93 90 l 235 760 q 247 873 253 850 q 200 907 240 896 l 150 921 l 153 935 q 476 944 324 944 q 783 761 783 944 m 650 751 q 601 859 650 821 q 458 897 551 897 q 388 894 429 897 l 307 524 l 401 524 q 577 587 504 524 q 650 751 650 650 m 588 315 q 532 437 588 393 q 379 481 476 481 l 299 481 l 238 192 q 227 69 218 94 q 281 43 236 43 l 315 43 q 370 49 340 43 q 440 72 400 54 q 512 118 481 90 q 565 197 543 146 q 588 315 588 249 z "},"C":{"ha":858,"x_min":39,"x_max":876,"o":"m 876 971 l 819 714 l 797 714 l 797 785 q 736 882 797 847 q 603 917 675 917 q 420 865 503 917 q 288 729 338 813 q 211 549 238 646 q 185 357 185 453 q 253 120 185 213 q 456 28 322 28 q 589 61 522 28 q 693 153 656 94 l 736 219 l 757 214 l 683 28 q 410 -19 556 -19 q 138 78 236 -19 q 39 347 39 176 q 110 646 39 506 q 314 875 182 786 q 607 964 446 964 q 760 949 674 964 q 777 945 767 947 q 792 942 788 943 q 803 941 796 942 q 815 940 811 940 q 823 940 818 939 q 831 941 828 940 q 836 943 833 942 q 841 947 839 944 q 846 954 843 950 l 856 971 l 876 971 z "},"D":{"ha":1008,"x_min":-40,"x_max":969,"o":"m 969 586 q 889 303 969 438 q 665 84 808 168 q 353 0 521 0 l -40 0 l -37 14 l 13 29 q 76 67 61 43 q 110 176 92 90 l 233 760 q 245 872 251 850 q 197 906 239 893 l 149 921 l 151 935 q 542 944 424 944 q 708 926 633 944 q 842 867 782 907 q 936 756 903 828 q 969 586 969 685 m 828 574 q 742 810 828 729 q 519 892 657 892 q 383 888 429 892 l 238 199 q 227 75 218 100 q 281 50 236 50 l 321 50 q 695 192 563 50 q 828 574 828 333 z "},"E":{"ha":692,"x_min":11,"x_max":719,"o":"m 719 857 q 698 807 719 826 q 646 788 676 788 q 641 788 644 788 q 636 789 638 789 l 626 797 q 587 884 626 850 q 488 918 547 918 q 357 874 413 918 q 278 770 301 829 q 254 651 254 711 q 267 574 254 611 q 390 597 333 597 q 437 594 414 597 q 483 576 460 590 q 507 539 507 561 q 460 479 507 499 q 363 460 413 460 q 215 500 272 460 q 138 260 138 417 q 321 47 138 47 q 469 97 399 47 q 583 221 539 147 l 611 203 q 469 47 557 106 q 274 -12 381 -12 q 88 57 165 -12 q 11 233 11 126 q 58 403 11 324 q 182 532 104 482 q 149 642 149 576 q 185 769 149 706 q 331 916 236 861 q 531 971 426 971 q 658 942 597 971 q 719 857 719 913 m 429 521 q 406 547 429 539 q 363 556 383 556 q 288 542 321 556 q 378 490 315 490 q 412 498 394 490 q 429 521 429 506 z "},"F":{"ha":756,"x_min":-40,"x_max":771,"o":"m 771 974 l 722 744 l 701 744 l 704 818 q 675 874 707 860 q 538 888 643 888 l 383 888 l 300 494 l 446 494 q 565 503 538 494 q 608 549 592 511 l 633 607 l 654 607 l 596 326 l 575 326 l 576 388 q 553 435 578 426 q 438 444 528 444 l 290 444 l 233 178 q 226 63 217 88 q 279 29 235 38 l 354 14 l 351 0 l -40 0 l -37 14 l 13 29 q 76 67 61 43 q 110 176 92 90 l 233 760 q 247 873 253 849 q 201 908 242 897 l 149 924 l 151 938 l 618 938 q 713 942 690 938 q 746 964 736 947 l 751 974 l 771 974 z "},"G":{"ha":926,"x_min":39,"x_max":913,"o":"m 913 921 l 872 724 l 849 724 l 847 789 q 788 881 846 846 q 625 917 729 917 q 424 865 513 917 q 283 726 335 813 q 204 538 231 639 q 178 331 178 438 q 244 108 178 188 q 446 28 311 28 q 590 66 539 28 q 651 158 640 104 l 664 219 q 672 335 681 311 q 619 368 663 360 l 544 383 l 547 397 l 825 397 l 754 68 q 618 -222 715 -112 q 397 -332 521 -332 q 335 -311 361 -332 q 308 -257 308 -290 q 347 -194 308 -214 l 358 -194 q 394 -246 368 -224 q 456 -268 419 -268 q 621 24 594 -268 q 421 -18 538 -18 q 141 72 243 -18 q 39 338 39 163 q 115 649 39 506 q 328 878 190 792 q 638 964 467 964 q 913 921 797 964 z "},"H":{"ha":1057,"x_min":-40,"x_max":1313,"o":"m 1313 1121 q 1299 1081 1313 1101 q 1267 1054 1285 1060 l 1256 1056 q 1219 1104 1247 1086 q 1160 1122 1192 1122 q 1038 1046 1083 1122 q 943 743 992 969 l 824 178 q 810 65 804 89 q 856 29 815 40 l 908 14 l 906 0 l 550 0 l 553 14 l 603 29 q 667 67 651 43 q 700 176 682 90 l 763 474 l 296 474 l 233 178 q 219 65 214 89 q 265 29 225 40 l 318 14 l 315 0 l -40 0 l -37 14 l 13 29 q 76 67 61 43 q 110 176 92 90 l 233 760 q 247 873 253 849 q 201 908 242 897 l 149 924 l 151 938 l 507 938 l 504 924 l 454 908 q 390 871 406 894 q 357 761 375 847 l 307 526 l 774 526 l 806 682 q 971 1052 853 911 q 1214 1193 1089 1193 q 1281 1174 1250 1193 q 1313 1121 1313 1156 z "},"I":{"ha":461,"x_min":-46,"x_max":501,"o":"m -46 0 l -43 14 l 7 29 q 71 67 56 43 q 104 176 86 90 l 228 760 q 242 873 247 849 q 196 908 236 897 l 143 924 l 146 938 l 501 938 l 499 924 l 449 908 q 385 871 400 894 q 351 761 369 847 l 228 178 q 214 65 208 89 q 260 29 219 40 l 313 14 l 310 0 l -46 0 z "},"J":{"ha":697,"x_min":-90,"x_max":775,"o":"m 775 943 l 690 874 q 644 825 664 853 q 612 778 624 797 q 588 719 600 758 q 572 666 576 681 q 559 601 568 651 q 547 539 550 550 l 544 526 l 681 526 l 669 474 l 533 474 l 451 85 q 312 -175 419 -67 q 56 -283 204 -283 q -50 -254 -10 -283 q -90 -183 -90 -225 q -61 -118 -90 -144 q 1 -93 -32 -92 l 11 -97 q 31 -180 0 -133 q 125 -226 63 -226 q 193 -207 163 -226 q 243 -160 224 -187 q 280 -90 263 -133 q 306 -15 297 -47 q 324 64 314 18 l 410 474 l 208 474 l 219 526 l 421 526 l 424 538 q 575 799 456 676 l 617 842 l 321 871 q 111 778 111 892 q 137 727 111 747 q 192 708 163 707 l 194 704 q 171 661 189 678 q 128 644 153 644 q 78 674 96 644 q 60 739 60 704 q 138 895 60 835 q 314 956 215 956 q 465 938 363 956 q 618 921 568 921 q 767 960 685 921 l 775 943 z "},"K":{"ha":892,"x_min":-40,"x_max":910,"o":"m 507 938 l 504 924 l 454 908 q 390 871 406 894 q 357 761 375 847 l 233 178 q 219 65 214 89 q 265 29 225 40 l 318 14 l 315 0 l -40 0 l -37 14 l 13 29 q 76 67 61 43 q 110 176 92 90 l 233 760 q 247 873 253 849 q 201 908 242 897 l 149 924 l 151 938 l 507 938 m 910 874 q 853 790 910 817 l 842 790 q 769 828 813 828 q 428 538 656 828 q 583 250 494 400 q 650 144 622 185 q 721 67 678 104 q 803 31 764 31 q 844 39 822 31 l 850 22 q 711 -24 786 -24 q 637 -6 672 -24 q 577 33 601 11 q 523 101 553 54 q 477 179 493 149 q 429 275 461 210 l 324 486 q 494 681 392 561 q 545 738 535 726 q 595 794 556 750 q 656 855 635 838 q 712 899 678 872 q 774 937 746 926 q 826 947 801 947 q 886 925 863 947 q 910 874 910 903 z "},"L":{"ha":693,"x_min":-40,"x_max":651,"o":"m -40 0 l -37 14 l 13 29 q 76 67 61 43 q 110 176 92 90 l 233 760 q 247 873 253 849 q 201 908 242 897 l 149 924 l 151 938 l 535 938 l 532 924 l 468 908 q 395 870 417 896 q 357 761 374 844 l 238 199 q 227 75 218 100 q 281 50 236 50 l 353 50 q 503 73 450 50 q 588 150 557 96 l 628 222 l 651 214 l 568 0 l -40 0 z "},"M":{"ha":1224,"x_min":-68,"x_max":1264,"o":"m 1264 938 l 1261 924 l 1203 908 q 1142 872 1157 896 q 1110 761 1126 849 l 1000 178 q 987 88 988 114 q 995 50 986 63 q 1032 29 1004 38 l 1081 14 l 1078 0 l 725 0 l 728 14 l 786 29 q 845 64 831 40 q 878 176 860 88 l 979 710 q 994 783 985 740 q 1007 840 1004 826 l 1004 840 q 936 717 938 719 l 529 0 l 488 0 l 376 717 q 358 836 358 828 l 356 836 q 338 721 346 765 q 225 225 278 379 q 194 147 211 185 q 150 69 176 110 q 87 5 124 29 q 8 -19 50 -19 q -45 1 -22 -19 q -68 53 -68 22 q -55 97 -68 75 q -24 125 -42 118 l -11 125 q 42 83 -3 83 q 176 251 121 83 q 285 760 228 403 q 294 862 300 833 q 243 906 289 890 l 186 924 l 189 938 l 465 939 l 556 322 q 569 178 571 214 l 572 178 q 651 324 578 194 l 1006 939 l 1264 938 z "},"N":{"ha":1068,"x_min":-68,"x_max":1136,"o":"m 1136 886 q 1123 842 1136 864 q 1092 814 1110 821 l 1079 814 q 1026 856 1071 856 q 892 688 947 856 q 792 232 838 531 q 760 -17 772 113 l 700 -17 l 386 693 q 346 793 357 758 l 343 793 q 327 691 339 767 q 308 572 315 615 q 288 462 300 528 q 259 338 275 396 q 225 225 243 279 q 194 147 211 185 q 150 69 176 110 q 87 5 124 29 q 8 -19 50 -19 q -45 1 -22 -19 q -68 53 -68 22 q -55 97 -68 75 q -24 125 -42 118 l -11 125 q 42 83 -3 83 q 176 251 121 83 q 285 760 228 403 q 286 874 296 849 q 235 908 276 899 l 172 924 l 175 938 l 419 939 l 693 297 q 732 188 718 240 l 735 188 q 843 714 789 557 q 874 792 857 754 q 918 869 892 829 q 981 934 944 910 q 1060 958 1018 958 q 1113 938 1090 958 q 1136 886 1136 917 z "},"O":{"ha":992,"x_min":39,"x_max":953,"o":"m 389 -22 q 128 72 218 -22 q 39 335 39 167 q 110 626 39 483 q 315 866 182 769 q 604 963 447 963 q 863 865 774 963 q 953 600 953 767 q 882 309 953 451 q 678 72 811 167 q 389 -22 546 -22 m 400 21 q 552 63 482 21 q 670 171 622 104 q 752 321 718 238 q 801 485 786 404 q 817 639 817 567 q 752 849 817 776 q 592 921 688 921 q 441 878 511 921 q 324 769 371 836 q 242 617 276 701 q 192 452 208 533 q 176 299 176 371 q 239 91 176 161 q 400 21 301 21 z "},"P":{"ha":775,"x_min":-40,"x_max":781,"o":"m 781 715 q 738 565 781 633 q 628 457 696 497 q 481 395 560 417 q 325 374 403 374 l 332 415 q 556 499 468 415 q 643 717 643 582 q 587 849 643 800 q 440 897 531 897 q 386 894 414 897 l 233 178 q 226 63 217 88 q 279 29 235 38 l 354 14 l 351 0 l -40 0 l -37 14 l 13 29 q 76 67 61 43 q 110 176 92 90 l 233 760 q 246 872 251 850 q 199 906 240 893 l 149 921 l 151 935 q 469 944 343 944 q 577 934 526 944 q 676 900 628 924 q 752 829 724 876 q 781 715 781 782 z "},"Q":{"ha":992,"x_min":39,"x_max":993,"o":"m 579 -215 l 408 -107 q 333 -67 363 -76 q 267 -57 304 -57 q 161 -90 232 -57 l 153 -69 q 292 -12 226 -24 q 103 103 167 14 q 39 335 39 193 q 110 626 39 483 q 315 866 182 769 q 604 963 447 963 q 863 865 774 963 q 953 600 953 767 q 888 320 953 457 q 699 88 822 183 q 429 -21 576 -8 l 629 -133 q 857 -212 769 -212 q 982 -172 919 -212 l 993 -194 q 841 -274 913 -256 q 710 -276 769 -292 q 579 -215 650 -261 m 400 21 q 552 63 482 21 q 670 171 622 104 q 752 321 718 238 q 801 485 786 404 q 817 639 817 567 q 752 849 817 776 q 592 921 688 921 q 441 878 511 921 q 324 769 371 836 q 242 617 276 701 q 192 452 208 533 q 176 299 176 371 q 239 91 176 161 q 400 21 301 21 z "},"R":{"ha":847,"x_min":-40,"x_max":847,"o":"m 847 22 q 708 -24 783 -24 q 634 -6 669 -24 q 574 33 599 11 q 520 101 550 54 q 474 179 490 149 q 426 275 458 210 l 321 486 l 360 486 q 560 553 479 486 q 642 732 642 621 q 588 858 642 818 q 447 897 535 897 q 386 894 417 897 l 233 178 q 219 65 214 89 q 265 29 225 40 l 318 14 l 315 0 l -40 0 l -37 14 l 13 29 q 76 67 61 43 q 110 176 92 90 l 233 760 q 247 871 251 849 q 200 906 242 893 l 149 921 l 151 935 q 486 944 411 944 q 580 937 535 944 q 674 910 625 929 q 751 849 722 890 q 781 747 781 807 q 687 560 781 638 q 463 469 593 482 q 581 250 517 358 q 647 144 619 185 q 718 67 675 104 q 800 31 761 31 q 842 39 819 31 l 847 22 z "},"S":{"ha":643,"x_min":-7,"x_max":650,"o":"m 650 969 l 596 717 l 574 717 l 572 788 q 533 869 571 835 q 418 904 494 904 q 285 859 338 904 q 233 747 233 814 q 237 708 233 726 q 251 673 240 690 q 270 644 263 656 q 297 616 278 633 q 326 591 317 599 q 363 563 336 583 q 399 536 389 543 q 515 417 478 475 q 551 289 551 360 q 451 63 551 147 q 201 -21 350 -21 q 89 -8 150 -21 q -7 24 28 6 l 6 218 l 29 224 l 42 151 q 110 61 53 90 q 233 32 167 32 q 378 83 313 32 q 444 229 444 135 q 417 322 444 278 q 365 387 389 365 q 269 463 340 408 q 254 475 260 471 q 136 688 136 565 q 228 885 136 813 q 444 957 321 957 q 539 947 489 957 q 613 940 601 935 q 624 953 619 943 l 632 969 l 650 969 z "},"T":{"ha":842,"x_min":63,"x_max":957,"o":"m 957 1028 q 874 923 957 956 q 671 890 792 890 q 589 893 642 890 l 436 178 q 422 65 417 89 q 468 29 428 40 l 521 14 l 518 0 l 163 0 l 165 14 l 215 29 q 279 67 264 43 q 313 176 294 90 l 467 900 q 369 906 389 906 q 217 872 268 906 q 167 792 167 839 q 201 732 167 750 l 201 721 q 136 686 178 686 q 84 708 106 686 q 63 761 63 729 q 139 885 63 833 q 365 938 215 938 q 486 931 386 938 q 631 924 586 924 q 853 1026 853 924 q 836 1064 853 1051 l 838 1074 q 885 1096 854 1096 q 938 1074 918 1096 q 957 1028 957 1053 z "},"U":{"ha":936,"x_min":97,"x_max":1007,"o":"m 385 -22 q 175 49 253 -22 q 97 251 97 121 q 114 381 97 297 l 194 760 q 208 873 214 849 q 163 908 203 897 l 110 924 l 113 938 l 468 938 l 465 924 l 415 908 q 351 871 367 894 q 318 761 336 847 l 244 410 q 222 247 222 310 q 273 95 222 150 q 421 40 324 40 q 505 55 467 40 q 570 88 543 69 q 621 144 597 107 q 658 207 644 181 q 685 284 671 233 q 706 358 700 335 q 722 433 711 382 l 750 564 q 785 740 775 679 q 795 839 796 801 q 785 888 794 876 q 753 907 775 900 l 697 924 l 700 938 l 1007 938 l 1004 924 l 946 908 q 883 851 903 897 q 828 636 864 804 l 785 429 q 739 256 763 325 q 671 117 715 186 q 556 13 626 47 q 385 -22 485 -22 z "},"V":{"ha":882,"x_min":83,"x_max":983,"o":"m 290 -24 l 188 761 q 163 871 176 846 q 114 911 150 896 l 83 924 l 86 938 l 432 938 l 429 924 l 383 911 q 315 870 328 896 q 313 760 303 844 l 371 258 q 379 133 381 163 l 382 133 q 450 257 390 151 l 699 692 q 775 856 769 815 q 735 908 781 897 l 688 924 l 690 938 l 983 938 l 981 924 l 921 901 q 818 779 882 888 l 343 -24 l 290 -24 z "},"W":{"ha":1297,"x_min":83,"x_max":1399,"o":"m 1399 938 l 1396 924 l 1336 901 q 1233 779 1297 888 l 758 -24 l 706 -24 l 640 479 l 343 -24 l 290 -24 l 188 761 q 163 871 176 846 q 114 911 150 896 l 83 924 l 86 938 l 424 938 l 421 924 l 379 911 q 314 871 325 896 q 313 760 303 846 l 371 258 q 379 133 381 163 l 382 133 q 450 257 390 151 l 628 568 l 603 761 q 578 871 592 846 q 529 911 565 896 l 499 924 l 501 938 l 847 938 l 844 924 l 799 911 q 731 870 743 896 q 728 760 718 844 l 786 258 q 794 133 796 163 l 797 133 q 865 257 806 151 l 1114 692 q 1190 856 1185 815 q 1150 908 1196 897 l 1103 924 l 1106 938 l 1399 938 z "},"X":{"ha":757,"x_min":-115,"x_max":811,"o":"m -115 0 l -112 14 l -75 26 q -38 45 -56 33 q -1 78 -21 57 q 30 114 18 99 q 65 160 42 129 q 99 206 88 192 l 322 496 l 229 761 q 183 874 199 847 q 140 911 167 900 l 111 924 l 114 938 l 454 938 l 451 924 l 396 908 q 339 867 349 896 q 353 760 329 838 l 415 576 l 503 692 q 610 856 599 818 q 586 908 624 896 l 542 924 l 544 938 l 811 938 l 808 924 l 771 911 q 751 902 761 908 q 732 891 740 896 q 713 874 724 886 q 694 856 701 863 q 673 831 688 849 q 651 803 658 813 q 624 769 643 793 q 596 732 606 744 l 439 531 l 563 176 q 609 64 593 90 q 651 26 625 38 l 681 14 l 678 0 l 321 0 l 324 14 l 392 29 q 451 69 440 40 q 438 178 461 97 l 346 449 l 197 246 q 153 185 169 208 q 121 135 138 161 q 98 94 104 110 q 90 65 92 79 q 97 42 89 50 q 119 29 104 33 l 179 14 l 175 0 l -115 0 z "},"Y":{"ha":769,"x_min":56,"x_max":893,"o":"m 893 928 q 878 881 893 901 q 849 854 864 861 l 839 854 q 779 886 818 886 q 611 746 708 886 q 486 528 543 647 q 410 317 429 408 l 381 178 q 367 65 361 89 q 413 29 372 40 l 465 14 l 463 0 l 107 0 l 110 14 l 160 29 q 224 67 208 43 q 257 176 239 90 l 289 328 q 278 592 307 417 q 200 839 250 768 q 144 874 176 874 q 67 842 124 874 l 56 865 q 235 946 168 946 q 338 854 304 946 q 387 645 367 776 q 403 443 407 514 q 572 785 450 599 q 817 994 713 994 q 870 976 847 994 q 893 928 893 957 z "},"Z":{"ha":746,"x_min":-121,"x_max":807,"o":"m 807 953 l 71 122 l 72 118 q 144 135 113 135 q 333 116 193 135 q 504 97 474 97 q 585 128 558 97 q 654 251 613 158 l 681 249 q 658 161 669 197 q 624 78 646 125 q 571 7 603 32 q 497 -18 539 -18 q 290 19 454 -18 q 60 56 125 56 q -62 -1 -3 56 l -100 -36 l -121 -14 l 615 817 l 614 821 q 542 804 574 804 q 396 820 493 804 q 268 836 299 836 q 190 809 214 836 q 126 693 167 782 l 100 696 q 120 776 110 743 q 151 856 131 810 q 202 926 171 901 q 275 951 233 951 q 440 917 318 951 q 626 883 561 883 q 749 940 689 883 l 786 975 l 807 953 z "},"[":{"ha":486,"x_min":15,"x_max":513,"o":"m 15 -240 l 136 332 q 126 362 139 350 q 83 375 113 374 l 86 392 q 158 432 150 393 l 279 1007 l 513 1007 l 504 971 l 407 971 q 342 944 363 971 q 303 824 322 918 l 117 -53 q 108 -176 99 -150 q 161 -203 117 -203 l 261 -203 l 253 -240 l 15 -240 z "},"\\":{"ha":354,"x_min":68,"x_max":286,"o":"m 214 -158 l 68 1065 l 140 1081 l 286 -143 l 214 -158 z "},"]":{"ha":486,"x_min":-87,"x_max":410,"o":"m -87 -240 l -79 -204 l 18 -204 q 83 -178 63 -204 q 122 -57 103 -151 l 308 819 q 317 943 326 917 q 264 969 308 969 l 164 969 l 172 1007 l 410 1007 l 289 435 q 299 405 286 417 q 342 392 313 393 l 339 375 q 267 335 275 374 l 146 -240 l -87 -240 z "},"^":{"ha":708,"x_min":74,"x_max":628,"o":"m 74 390 l 329 869 l 407 869 l 628 390 l 539 390 l 364 769 l 164 390 l 74 390 z "},"_":{"ha":708,"x_min":-97,"x_max":625,"o":"m -97 -165 l -82 -99 l 625 -99 l 610 -165 l -97 -165 z "},"`":{"ha":708,"x_min":225,"x_max":485,"o":"m 467 740 l 246 992 q 225 1036 225 1017 l 351 1036 l 485 753 l 467 740 z "},"ˋ":{"ha":708,"x_min":225,"x_max":485,"o":"m 467 740 l 246 992 q 225 1036 225 1017 l 351 1036 l 485 753 l 467 740 z "},"̀":{"ha":708,"x_min":225,"x_max":485,"o":"m 467 740 l 246 992 q 225 1036 225 1017 l 351 1036 l 485 753 l 467 740 z "},"a":{"ha":689,"x_min":15,"x_max":629,"o":"m 136 -15 q 15 176 15 -15 q 65 405 15 292 q 213 598 114 518 q 431 678 311 678 q 543 653 489 678 l 599 675 l 607 674 l 506 201 q 493 101 489 149 q 538 54 497 54 q 618 88 558 54 l 629 68 q 458 -12 518 -12 q 424 -6 439 -12 q 403 14 410 0 q 392 39 396 28 q 388 72 388 50 q 390 102 389 93 q 394 132 390 111 l 397 153 l 400 171 l 396 171 q 265 38 335 90 q 136 -15 194 -15 m 208 72 q 342 160 267 72 q 404 251 386 211 q 438 365 422 292 l 481 567 q 440 604 469 589 q 368 619 410 619 q 263 579 311 619 q 188 478 215 539 q 144 349 160 417 q 129 222 129 282 q 131 170 129 192 q 140 124 133 149 q 165 85 147 99 q 208 72 182 72 z "},"b":{"ha":675,"x_min":13,"x_max":610,"o":"m 194 -15 q 97 -1 151 -15 q 13 33 43 13 l 192 865 q 201 951 206 935 q 161 975 196 968 l 111 986 l 111 1003 l 321 1036 l 329 1032 l 214 490 l 218 490 q 483 672 376 672 q 610 481 610 672 q 559 253 610 365 q 410 63 508 140 q 194 -15 313 -15 m 253 43 q 360 83 311 43 q 437 183 408 122 q 481 309 465 243 q 496 435 496 375 q 410 583 496 583 q 271 497 347 583 q 208 407 226 449 q 172 292 189 365 l 129 96 q 174 59 140 75 q 253 43 208 43 z "},"c":{"ha":547,"x_min":15,"x_max":514,"o":"m 186 -19 q 60 36 106 -19 q 15 190 15 92 q 62 410 15 300 q 196 598 108 521 q 388 675 283 675 q 474 650 433 675 q 514 582 514 625 q 497 538 514 558 q 460 510 481 517 l 451 510 q 405 579 442 546 q 319 613 368 613 q 212 549 258 613 q 146 406 165 486 q 126 253 126 326 q 244 58 126 58 q 424 154 325 58 l 439 133 q 186 -19 301 -19 z "},"d":{"ha":694,"x_min":15,"x_max":692,"o":"m 140 -15 q 15 176 15 -15 q 65 404 15 292 q 213 594 115 517 q 431 672 311 672 q 508 658 467 672 l 554 865 q 563 951 568 935 q 524 975 558 968 l 474 986 l 474 1003 l 683 1036 l 692 1032 l 503 150 q 538 54 483 54 q 618 88 558 54 l 629 68 q 458 -12 518 -12 q 403 142 367 -12 l 411 181 l 408 181 q 268 39 339 93 q 140 -15 197 -15 m 214 74 q 343 153 271 74 q 412 250 392 206 q 449 374 432 294 l 488 561 q 371 614 458 614 q 265 574 313 614 q 188 474 217 535 q 144 348 160 414 q 129 222 129 282 q 214 74 129 74 z "},"e":{"ha":575,"x_min":15,"x_max":529,"o":"m 199 -19 q 63 38 110 -19 q 15 193 15 94 q 65 417 15 306 q 206 603 114 528 q 406 679 297 679 q 496 651 463 679 q 529 576 529 622 q 474 454 529 508 q 343 369 418 400 q 133 319 239 326 q 129 264 129 278 q 158 113 129 169 q 264 57 186 57 q 338 76 300 57 q 394 109 375 94 q 442 151 413 124 l 458 132 q 385 58 415 85 q 304 6 356 32 q 199 -19 253 -19 m 139 354 q 317 407 244 364 q 386 472 357 432 q 415 557 415 511 q 398 610 415 590 q 351 631 381 631 q 219 538 282 631 q 139 354 157 446 z "},"f":{"ha":413,"x_min":-324,"x_max":646,"o":"m -225 -322 q -292 -303 -261 -322 q -324 -250 -324 -285 q -310 -210 -324 -231 q -278 -185 -296 -190 l -268 -185 q -233 -229 -261 -207 q -165 -251 -206 -251 q -7 -121 -67 -251 q 96 285 53 10 q 110 383 101 318 q 127 499 119 449 q 142 585 135 549 l 38 585 l 33 590 l 56 629 l 150 633 l 161 681 q 298 926 193 815 q 525 1038 403 1038 q 608 1016 569 1038 q 646 953 646 994 q 629 906 646 929 q 590 875 613 882 l 579 875 q 535 932 571 903 q 451 961 500 961 q 324 883 369 961 q 264 696 279 806 l 256 636 l 429 643 l 418 590 l 411 585 l 247 585 q 174 196 207 332 q 138 73 158 135 q 80 -63 117 11 q 1 -192 43 -137 q -100 -285 -40 -247 q -225 -322 -160 -322 z "},"g":{"ha":651,"x_min":-76,"x_max":697,"o":"m 697 654 q 683 619 697 633 q 649 603 668 604 l 642 607 q 590 643 625 643 q 533 617 563 643 q 551 539 551 585 q 472 351 551 440 q 276 261 392 261 q 204 274 233 261 q 160 268 178 285 q 143 222 143 251 q 166 176 143 196 q 240 131 189 156 l 371 67 q 501 -96 501 4 q 413 -258 501 -193 q 208 -322 325 -322 q 7 -276 90 -322 q -76 -151 -76 -229 q -55 -78 -76 -112 q -10 -26 -33 -44 q 60 25 13 -7 l 121 67 q 67 103 90 79 q 43 153 43 128 q 113 261 43 194 l 158 304 q 124 401 124 342 q 201 593 124 503 q 396 683 278 683 q 519 638 481 683 q 638 711 585 711 q 680 694 663 711 q 697 654 697 678 m 442 536 q 371 647 442 647 q 289 599 322 647 q 244 500 256 551 q 233 406 233 449 q 299 296 233 296 q 382 342 347 296 q 429 441 417 389 q 442 536 442 493 m 224 -281 q 357 -240 304 -281 q 410 -143 410 -200 q 383 -73 410 -100 q 304 -19 357 -46 l 192 38 q 99 15 156 57 q 17 -124 17 -43 q 81 -235 17 -190 q 224 -281 144 -281 z "},"h":{"ha":685,"x_min":15,"x_max":618,"o":"m 618 479 q 573 272 618 388 q 455 71 528 156 q 314 -14 382 -14 q 272 0 289 -14 q 256 33 256 14 q 294 94 256 78 l 303 93 q 353 63 315 63 q 426 101 394 63 q 475 198 458 139 q 499 315 492 257 q 507 426 507 374 q 501 494 507 463 q 474 555 496 526 q 418 583 453 583 q 279 497 356 583 q 215 406 235 447 q 181 293 196 365 l 118 0 l 15 0 l 200 865 q 209 951 214 935 q 169 975 204 968 l 119 986 l 119 1003 l 329 1036 l 338 1032 l 222 489 l 226 489 q 492 672 386 672 q 590 616 561 672 q 618 479 618 560 z "},"i":{"ha":350,"x_min":19,"x_max":363,"o":"m 269 881 q 227 896 243 881 q 211 936 211 911 q 238 999 211 972 q 301 1025 264 1025 q 345 1010 328 1025 q 363 969 363 994 q 334 908 363 935 q 269 881 306 881 m 114 -12 q 61 160 21 -12 q 63 167 63 164 l 143 514 q 111 610 165 610 q 31 576 90 610 l 19 596 q 190 676 131 676 q 240 664 222 676 q 260 626 258 651 q 260 583 263 601 q 250 532 257 564 l 161 150 q 193 54 139 54 q 274 88 214 54 l 285 68 q 114 -12 174 -12 z "},"j":{"ha":351,"x_min":-321,"x_max":361,"o":"m 268 881 q 226 896 242 881 q 210 936 210 911 q 236 999 210 972 q 300 1025 263 1025 q 344 1010 326 1025 q 361 969 361 994 q 333 908 361 935 q 268 881 304 881 m -222 -322 q -290 -303 -258 -322 q -321 -250 -321 -285 q -307 -210 -321 -231 q -275 -185 -293 -190 l -267 -185 q -231 -228 -261 -204 q -164 -251 -200 -251 q -26 -157 -72 -251 q 67 164 19 -62 l 140 514 q 108 610 161 610 q 28 576 88 610 l 17 596 q 188 676 128 676 q 230 667 214 676 q 252 645 246 657 q 258 610 258 633 q 256 572 258 586 q 247 532 253 558 l 176 197 q 130 38 161 121 q 50 -129 99 -44 q -70 -268 1 -214 q -222 -322 -142 -322 z "},"k":{"ha":683,"x_min":15,"x_max":657,"o":"m 657 100 q 603 9 657 43 q 489 -25 549 -25 q 417 -11 451 -25 q 356 33 383 3 q 308 91 328 64 q 265 168 288 118 q 233 244 243 218 q 203 324 222 271 q 258 318 225 318 q 397 376 344 318 q 449 521 449 433 q 401 592 449 592 q 281 517 360 592 q 194 360 215 456 l 118 0 l 15 0 l 200 865 q 209 951 214 935 q 169 975 204 968 l 119 986 l 119 1003 l 329 1036 l 338 1032 l 226 510 l 228 510 q 465 671 375 671 q 537 640 514 671 q 560 567 560 608 q 495 397 560 476 q 319 288 431 318 q 518 13 429 13 q 559 28 540 13 q 578 75 578 44 q 553 126 578 104 l 554 136 q 604 156 571 156 q 642 140 628 156 q 657 100 657 124 z "},"l":{"ha":333,"x_min":35,"x_max":338,"o":"m 101 -12 q 53 3 69 -12 q 35 50 36 19 q 38 101 35 81 q 47 154 40 122 q 50 167 49 163 l 200 865 q 209 951 214 935 q 169 975 204 968 l 119 986 l 119 1003 l 329 1036 l 338 1032 l 149 150 q 181 54 129 54 q 261 88 201 54 l 272 68 q 101 -12 161 -12 z "},"m":{"ha":1076,"x_min":15,"x_max":1010,"o":"m 839 -12 q 786 158 746 -12 q 788 167 788 164 l 849 429 q 857 468 854 454 q 861 509 860 482 q 858 551 863 536 q 838 578 853 565 q 799 590 824 590 q 660 506 739 590 q 599 426 619 463 q 567 332 579 389 l 496 0 l 393 0 l 486 429 q 494 468 492 454 q 499 509 497 482 q 495 551 500 536 q 476 578 490 565 q 436 590 461 590 q 297 506 376 590 q 237 426 257 463 q 204 332 217 389 l 132 0 l 29 0 l 140 514 q 107 610 163 610 q 26 576 86 610 l 15 596 q 186 676 126 676 q 239 532 272 676 l 228 478 l 231 478 q 513 679 396 679 q 588 648 564 679 q 613 569 613 617 q 603 490 613 533 l 604 490 q 876 679 756 679 q 952 648 928 679 q 976 569 976 617 q 954 438 976 533 l 888 150 q 918 54 865 54 q 999 88 939 54 l 1010 68 q 839 -12 899 -12 z "},"n":{"ha":732,"x_min":15,"x_max":665,"o":"m 494 -12 q 457 -5 472 -12 q 436 22 442 3 q 427 51 431 40 q 428 92 424 63 q 434 126 433 121 q 442 160 435 132 q 443 167 443 164 l 506 429 q 516 480 513 460 q 519 529 519 500 q 501 574 518 558 q 451 590 485 590 q 300 507 383 590 q 235 426 254 461 q 203 332 215 392 l 132 0 l 29 0 l 140 514 q 107 610 163 610 q 26 576 86 610 l 15 596 q 186 676 126 676 q 239 532 272 676 l 228 478 l 231 478 q 385 624 306 569 q 528 679 464 679 q 608 648 582 679 q 633 569 633 617 q 610 438 633 540 l 543 150 q 574 54 521 54 q 654 88 594 54 l 665 68 q 494 -12 554 -12 z "},"o":{"ha":622,"x_min":8,"x_max":564,"o":"m 203 -25 q 58 38 108 -25 q 8 211 8 100 q 34 373 8 290 q 105 525 60 456 q 219 639 150 594 q 365 683 288 683 q 515 617 465 683 q 564 440 564 551 q 519 230 564 336 q 390 49 475 124 q 203 -25 304 -25 m 224 14 q 326 62 281 14 q 395 181 371 110 q 432 322 419 253 q 444 446 444 392 q 340 644 444 644 q 241 596 285 644 q 174 474 197 547 q 140 332 151 401 q 128 208 128 263 q 224 14 128 14 z "},"p":{"ha":664,"x_min":-124,"x_max":606,"o":"m 606 449 q 485 135 606 278 q 207 -8 364 -8 q 142 0 164 -8 l 106 -178 q 99 -263 93 -249 q 140 -286 106 -278 l 210 -303 l 208 -318 l -124 -318 l -122 -303 l -72 -290 q -24 -264 -36 -282 q 3 -178 -11 -246 l 171 607 q 21 528 121 589 l 4 560 q 179 647 88 617 l 217 825 l 313 840 l 321 836 l 283 664 q 360 669 317 669 q 538 613 469 669 q 606 449 606 556 m 492 428 q 451 570 492 513 q 333 628 410 628 q 276 625 294 628 l 160 81 q 199 60 171 69 q 251 50 226 50 q 384 110 328 50 q 466 253 440 169 q 492 428 492 338 z "},"q":{"ha":682,"x_min":17,"x_max":615,"o":"m 174 -318 l 175 -303 l 251 -286 q 304 -261 290 -278 q 332 -178 318 -244 l 407 179 l 404 179 q 142 -8 250 -8 q 17 183 17 -8 q 67 411 17 299 q 215 601 117 524 q 432 679 313 679 q 551 651 493 679 l 607 672 l 615 671 l 435 -178 q 426 -265 421 -247 q 463 -290 431 -282 l 507 -303 l 504 -318 l 174 -318 m 215 81 q 344 160 272 81 q 413 257 393 213 q 450 381 433 301 l 489 568 q 372 621 460 621 q 266 581 314 621 q 190 481 218 542 q 146 355 161 421 q 131 229 131 289 q 215 81 131 81 z "},"r":{"ha":528,"x_min":15,"x_max":532,"o":"m 43 0 l 143 463 q 107 610 176 610 q 26 576 86 610 l 15 596 q 186 676 126 676 q 253 532 281 676 l 242 475 l 244 475 q 313 565 296 542 q 363 623 331 588 q 418 669 396 658 q 465 679 440 679 q 514 659 496 679 q 532 610 532 639 q 486 526 532 554 l 472 526 q 448 554 465 542 q 411 567 431 567 q 314 511 365 567 q 244 410 265 460 q 204 272 224 360 l 146 0 l 43 0 z "},"s":{"ha":486,"x_min":-32,"x_max":436,"o":"m 125 -19 q 13 5 58 -19 q -32 69 -32 29 q 25 153 -32 121 l 36 153 q 81 69 43 107 q 174 31 118 31 q 261 63 224 31 q 299 144 299 94 q 274 217 299 183 q 179 307 249 251 q 101 384 129 347 q 72 471 72 421 q 140 617 72 561 q 299 674 208 674 q 391 651 346 674 q 436 586 436 629 q 419 541 436 560 q 385 515 403 522 l 375 515 q 334 592 369 556 q 251 628 299 628 q 180 602 208 628 q 151 535 151 576 q 153 517 151 526 q 158 501 156 508 q 167 485 161 494 q 176 471 172 476 q 190 456 181 465 q 203 442 199 447 q 218 428 207 438 q 233 416 229 419 q 249 403 238 413 q 264 392 261 393 q 351 305 321 346 q 382 208 382 264 q 302 45 382 110 q 125 -19 222 -19 z "},"t":{"ha":403,"x_min":28,"x_max":424,"o":"m 131 -19 q 63 6 86 -19 q 39 74 39 31 q 56 197 39 125 l 139 586 l 32 586 l 28 592 l 50 631 l 153 635 l 189 810 l 293 863 l 300 860 l 250 638 l 424 644 l 413 592 l 406 586 l 240 586 l 154 181 q 203 50 126 50 q 324 110 260 50 l 339 90 q 239 14 296 47 q 131 -19 182 -19 z "},"u":{"ha":724,"x_min":17,"x_max":654,"o":"m 150 -19 q 74 12 99 -19 q 50 90 50 43 q 72 222 50 129 l 140 514 q 108 610 163 610 q 28 576 88 610 l 17 596 q 188 676 128 676 q 238 664 219 676 q 258 627 256 651 q 258 583 261 603 q 249 532 256 563 l 178 231 q 169 192 172 206 q 165 151 167 178 q 169 109 164 124 q 188 82 174 94 q 228 69 203 69 q 368 154 283 69 q 433 233 414 201 q 464 328 451 265 l 535 653 l 638 653 l 529 150 q 563 54 507 54 q 643 88 583 54 l 654 68 q 483 -12 543 -12 q 455 -7 467 -12 q 436 6 443 -1 q 425 27 429 14 q 420 51 421 40 q 421 76 419 61 q 423 99 422 92 q 426 119 424 107 l 429 132 l 439 182 l 436 182 q 150 -19 272 -19 z "},"v":{"ha":728,"x_min":28,"x_max":686,"o":"m 686 564 q 649 386 686 488 q 553 195 611 285 q 413 43 494 106 q 254 -19 332 -19 q 144 25 188 -19 q 100 144 100 69 q 311 564 100 339 l 199 567 q 149 563 169 568 q 118 556 129 558 q 92 534 107 554 q 72 507 76 514 q 47 464 68 500 l 28 464 l 69 653 l 301 649 q 394 654 382 647 l 414 628 q 270 449 326 560 q 214 217 214 339 q 243 111 214 156 q 331 67 272 67 q 453 135 392 67 q 553 295 515 203 q 590 463 590 388 q 522 614 590 578 l 522 626 q 603 679 550 679 q 664 649 642 679 q 686 564 686 618 z "},"w":{"ha":1031,"x_min":28,"x_max":989,"o":"m 989 564 q 951 386 989 488 q 856 195 914 285 q 716 43 797 106 q 557 -19 635 -19 q 456 67 490 -19 q 254 -19 351 -19 q 144 25 188 -19 q 100 144 100 69 q 311 564 100 339 l 199 567 q 149 563 169 568 q 118 556 129 558 q 92 534 107 554 q 72 507 76 514 q 47 464 68 500 l 28 464 l 69 653 l 301 649 q 394 654 382 647 l 414 628 q 270 449 326 560 q 214 217 214 339 q 245 110 214 153 q 338 67 276 67 q 442 107 389 67 q 428 233 428 163 q 453 428 428 326 q 526 604 478 529 q 629 679 574 679 q 692 637 672 679 q 713 544 713 594 q 661 342 713 453 q 529 139 610 231 q 633 67 568 67 q 756 135 694 67 q 856 295 818 203 q 893 463 893 388 q 825 614 893 578 l 825 626 q 906 679 853 679 q 967 649 944 679 q 989 564 989 618 m 626 456 q 613 535 626 504 q 576 567 599 567 q 515 503 540 567 q 489 328 489 440 q 514 172 489 243 q 626 456 626 297 z "},"x":{"ha":575,"x_min":-62,"x_max":560,"o":"m -7 -14 q -47 6 -32 -14 q -62 54 -62 26 q -22 142 -62 106 l -8 142 q 43 115 13 115 q 117 168 79 115 q 221 351 156 221 l 147 558 q 99 610 129 610 q 22 576 74 610 l 11 596 q 171 676 118 676 q 244 592 218 676 l 297 431 q 419 619 379 571 q 503 668 458 668 q 543 648 528 668 q 558 600 558 628 q 518 513 558 549 l 504 513 q 453 539 483 539 q 393 506 421 539 q 314 386 365 474 l 401 121 q 468 53 424 53 q 549 86 489 53 l 560 67 q 399 -14 454 -14 q 347 10 368 -14 q 308 86 326 33 l 238 300 q 106 60 132 97 q -7 -14 54 -14 z "},"y":{"ha":642,"x_min":-226,"x_max":586,"o":"m 586 564 q 435 88 586 360 q 335 -68 385 -1 q 220 -196 286 -135 q 72 -290 154 -257 q -106 -322 -11 -322 q -194 -299 -161 -322 q -226 -236 -226 -276 q -179 -150 -226 -176 l -165 -150 q -101 -226 -147 -197 q -4 -256 -54 -256 q 173 -185 104 -256 q 242 -7 242 -115 q 183 346 242 75 q 128 557 150 504 q 71 610 107 610 q -12 576 40 610 l -24 596 q 147 676 88 676 q 226 606 199 676 q 282 376 244 558 q 333 54 333 129 q 332 6 333 15 l 336 6 q 493 461 493 239 q 422 614 493 576 l 422 626 q 503 679 450 679 q 564 649 542 679 q 586 564 586 618 z "},"z":{"ha":575,"x_min":-56,"x_max":521,"o":"m 521 629 l 81 101 l 81 100 q 133 108 111 108 q 255 70 174 108 q 375 32 336 32 q 421 48 406 32 q 436 83 436 64 q 419 121 436 104 q 381 140 401 138 l 376 150 q 433 189 390 189 q 483 167 463 189 q 503 113 503 146 q 446 13 503 50 q 325 -25 389 -25 q 178 8 263 -25 q 60 40 94 40 q 0 24 21 40 l -33 -3 l -56 17 l 393 544 l 393 546 q 343 538 363 538 q 242 568 303 538 q 160 599 181 599 q 126 586 139 599 q 113 556 113 574 q 168 500 113 517 l 169 490 q 117 458 157 458 q 75 475 94 458 q 56 524 56 492 q 103 617 56 575 q 218 658 150 658 q 307 640 253 658 q 382 617 361 621 q 465 622 442 604 l 499 649 l 521 629 z "},"{":{"ha":486,"x_min":25,"x_max":518,"o":"m 253 -243 q 112 -182 163 -231 q 61 -64 61 -133 q 110 100 61 -14 q 154 260 154 206 q 119 344 154 317 q 25 371 83 371 l 29 396 q 167 447 117 397 q 232 693 232 513 q 310 939 232 861 q 518 1010 381 1010 l 513 983 q 369 925 419 975 q 316 832 329 885 q 303 703 303 779 q 213 443 303 533 q 106 381 167 397 q 175 324 146 368 q 204 224 204 281 q 168 67 204 169 q 131 -89 131 -40 q 258 -217 131 -197 l 253 -243 z "},"|":{"ha":354,"x_min":138,"x_max":217,"o":"m 138 -292 l 138 1097 l 217 1097 l 217 -292 l 138 -292 z "},"}":{"ha":486,"x_min":-93,"x_max":400,"o":"m -93 -242 l -87 -215 q 56 -157 6 -207 q 109 -64 96 -117 q 122 65 122 -11 q 213 325 122 235 q 319 388 258 371 q 250 444 279 400 q 221 544 221 488 q 257 701 221 599 q 294 857 294 808 q 167 985 294 965 l 172 1011 q 313 950 263 999 q 364 832 364 901 q 315 668 364 782 q 271 508 271 563 q 306 424 271 451 q 400 397 342 397 l 396 372 q 258 321 308 371 q 193 75 193 256 q 115 -171 193 -93 q -93 -242 44 -242 z "},"~":{"ha":708,"x_min":29,"x_max":635,"o":"m 471 246 q 338 289 417 246 q 186 335 257 335 q 76 240 119 335 l 29 306 q 193 418 89 418 q 339 376 244 418 q 374 361 349 372 q 412 344 400 350 q 442 334 424 339 q 472 329 460 329 q 520 345 497 329 q 555 377 543 361 q 588 424 567 393 l 635 358 q 592 303 610 322 q 542 265 575 283 q 471 246 510 246 z "},"¡":{"ha":442,"x_min":-31,"x_max":367,"o":"m 261 592 q 213 610 232 592 q 196 657 194 628 q 230 726 197 697 q 304 754 263 754 q 350 736 333 754 q 365 690 367 718 q 333 621 364 650 q 261 592 303 592 m -15 -279 q -31 -268 -31 -279 q 0 -167 -29 -250 q 51 -27 13 -132 q 115 150 89 78 q 172 318 142 222 q 219 479 203 414 l 249 479 q 181 67 217 347 q 133 -260 144 -214 q 126 -276 131 -272 q 111 -279 122 -279 l -15 -279 z "},"¢":{"ha":708,"x_min":92,"x_max":647,"o":"m 253 -50 l 292 131 l 278 131 q 142 186 192 131 q 92 340 92 242 q 188 650 92 503 q 436 821 285 797 l 469 978 l 528 978 l 494 824 q 507 824 499 824 q 519 825 515 825 q 607 803 567 825 q 647 739 647 782 q 631 691 647 715 q 592 660 614 667 l 579 660 q 482 758 553 740 l 365 208 q 561 304 456 207 l 576 283 q 350 135 457 156 l 311 -50 l 253 -50 m 308 211 l 424 763 l 414 763 q 318 726 361 763 q 251 633 275 689 q 215 517 228 576 q 203 403 203 457 q 308 211 203 233 z "},"£":{"ha":708,"x_min":-86,"x_max":660,"o":"m -78 -25 l -86 -8 l 22 64 q 161 200 117 126 q 206 382 206 274 q 203 471 206 415 l 56 471 l 67 522 l 199 522 q 196 615 196 583 q 293 851 196 749 q 528 953 390 953 q 623 925 586 953 q 660 858 660 897 q 633 794 660 821 q 576 769 606 768 l 568 772 q 549 855 578 808 q 463 901 519 901 q 369 861 406 901 q 319 772 332 821 q 307 668 307 722 q 313 522 307 606 l 500 522 l 489 471 l 318 471 q 318 451 318 463 q 318 428 318 440 q 318 410 318 415 q 286 272 318 331 q 188 157 254 213 l 111 93 l 364 64 q 574 157 574 39 q 548 208 574 188 q 493 226 522 228 l 490 231 q 516 273 496 256 q 561 290 536 290 q 611 260 593 290 q 629 196 629 231 q 587 73 629 133 q 482 -10 544 13 q 422 -20 458 -18 q 340 -19 385 -22 q 263 -11 296 -15 q 186 0 229 -7 q 136 8 143 7 q 26 11 58 17 q -78 -25 -7 6 z "},"¤":{"ha":708,"x_min":36,"x_max":675,"o":"m 103 13 l 36 82 l 140 188 q 92 338 92 256 q 139 488 92 418 l 36 593 l 103 663 l 207 556 q 354 601 275 601 q 501 556 436 601 l 608 663 l 675 593 l 571 488 q 618 338 618 418 q 569 188 618 256 l 675 82 l 608 13 l 501 119 q 354 75 432 75 q 208 119 272 75 l 103 13 m 231 214 q 256 188 231 214 q 354 163 282 163 q 478 214 426 163 q 531 338 531 265 q 479 463 531 411 q 354 514 428 514 q 231 462 282 514 q 179 338 179 410 q 231 214 179 265 z "},"¥":{"ha":708,"x_min":-15,"x_max":807,"o":"m 86 0 l 89 14 l 139 29 q 203 67 188 43 q 236 176 218 90 l 244 219 l -15 219 l -3 271 l 256 271 l 281 390 l 21 390 l 33 442 l 285 442 l 179 790 q 124 903 150 888 l 89 924 l 92 938 l 421 938 l 418 924 l 333 901 q 296 788 269 885 l 381 478 l 592 788 q 603 901 656 882 l 540 924 l 543 938 l 807 938 l 804 924 l 764 903 q 657 779 733 886 l 418 442 l 672 442 l 661 390 l 397 390 l 371 271 l 636 271 l 625 219 l 360 219 l 351 178 q 338 64 332 88 q 383 29 343 40 l 436 14 l 433 0 l 86 0 z "},"¦":{"ha":354,"x_min":138,"x_max":217,"o":"m 138 -292 l 138 344 l 217 344 l 217 -292 l 138 -292 m 138 461 l 138 1097 l 217 1097 l 217 461 l 138 461 z "},"§":{"ha":708,"x_min":-25,"x_max":650,"o":"m 165 -233 q 24 -206 74 -233 q -25 -139 -25 -178 q -1 -75 -25 -107 q 54 -36 24 -43 l 67 -36 q 97 -135 63 -85 q 204 -185 131 -185 q 306 -141 263 -185 q 349 -25 349 -97 q 341 31 349 4 q 314 88 333 58 q 283 132 294 117 q 241 181 271 147 q 204 222 211 214 q 116 353 144 292 q 88 493 88 414 q 208 801 88 660 q 492 942 329 942 q 608 915 565 942 q 650 851 650 889 q 628 790 650 815 q 575 754 606 764 l 563 754 q 535 853 569 811 q 444 896 501 896 q 349 850 385 896 q 314 739 314 804 q 318 706 314 722 q 333 672 322 690 q 350 640 343 653 q 374 606 357 626 q 399 577 392 585 q 426 547 406 569 q 449 522 446 525 q 578 243 578 378 q 458 -85 578 63 q 165 -233 339 -233 m 406 -44 q 500 125 478 19 q 491 290 519 215 q 390 450 463 365 q 274 617 299 556 q 263 765 250 678 q 201 687 228 738 q 165 596 174 636 q 169 439 147 511 q 278 275 192 367 q 397 111 365 182 q 406 -44 428 40 z "},"¨":{"ha":708,"x_min":160,"x_max":549,"o":"m 460 881 q 419 897 435 881 q 404 939 404 914 q 429 1005 404 978 q 490 1032 454 1032 q 533 1017 517 1032 q 549 974 549 1001 q 522 908 549 936 q 460 881 496 881 m 215 881 q 175 897 190 881 q 160 939 160 914 q 185 1005 160 978 q 246 1032 210 1032 q 288 1017 272 1032 q 304 974 304 1001 q 278 908 304 936 q 215 881 251 881 z "},"̈":{"ha":708,"x_min":160,"x_max":549,"o":"m 460 881 q 419 897 435 881 q 404 939 404 914 q 429 1005 404 978 q 490 1032 454 1032 q 533 1017 517 1032 q 549 974 549 1001 q 522 908 549 936 q 460 881 496 881 m 215 881 q 175 897 190 881 q 160 939 160 914 q 185 1005 160 978 q 246 1032 210 1032 q 288 1017 272 1032 q 304 974 304 1001 q 278 908 304 936 q 215 881 251 881 z "},"©":{"ha":1042,"x_min":72,"x_max":975,"o":"m 524 32 q 799 145 689 33 q 908 436 908 257 q 798 725 908 614 q 524 836 688 836 q 249 724 358 836 q 139 433 139 613 q 249 144 139 256 q 524 32 360 32 m 845 111 q 780 47 845 111 q 524 -18 715 -18 q 202 110 332 -18 q 72 433 72 238 q 202 758 72 629 q 524 888 332 888 q 845 760 715 888 q 975 436 975 632 q 845 111 975 240 m 689 210 q 546 186 625 186 q 356 253 428 186 q 283 435 283 319 q 353 618 283 550 q 539 686 422 686 q 619 679 578 686 q 661 675 658 672 q 664 681 663 676 l 667 690 l 685 690 l 685 550 l 664 550 l 654 592 q 615 634 647 619 q 544 649 583 649 q 426 591 465 649 q 388 447 388 533 q 435 286 388 350 q 567 222 483 222 q 674 278 650 222 l 690 317 l 710 311 l 689 210 z "},"ª":{"ha":457,"x_min":21,"x_max":468,"o":"m 139 403 q 56 528 56 403 q 133 752 56 647 q 325 857 210 857 q 403 840 372 857 l 451 856 l 457 853 l 389 532 q 383 478 379 501 q 410 454 386 454 q 458 475 428 454 l 468 457 q 349 404 397 404 q 304 503 288 404 l 307 525 l 304 525 q 139 403 210 403 m 193 474 q 274 526 229 474 q 333 654 317 579 l 361 783 q 292 818 342 818 q 209 772 244 818 q 159 671 174 726 q 144 565 144 615 q 193 474 144 474 m 21 247 l 32 294 l 419 294 l 408 247 l 21 247 z "},"«":{"ha":792,"x_min":74,"x_max":718,"o":"m 328 76 l 74 350 l 79 375 l 418 631 l 435 610 l 210 354 l 354 97 l 328 76 m 611 76 l 357 350 l 361 375 l 701 631 l 718 611 l 492 354 l 636 97 l 611 76 z "},"¬":{"ha":708,"x_min":6,"x_max":668,"o":"m 581 142 l 581 419 l 6 419 l 6 506 l 668 506 l 668 142 l 581 142 z "},"®":{"ha":1042,"x_min":72,"x_max":975,"o":"m 732 194 q 647 217 685 194 q 591 264 608 240 q 540 340 574 288 q 461 456 496 413 l 490 456 q 599 556 599 456 q 492 656 599 656 q 457 654 471 656 l 457 303 q 462 250 457 260 q 486 235 467 240 l 519 226 l 519 210 l 300 210 l 300 226 l 333 235 q 359 250 354 240 q 364 303 364 260 l 364 590 q 358 641 364 631 q 333 657 353 651 l 300 667 l 299 683 q 524 690 472 690 q 699 569 699 690 q 572 446 699 478 q 668 313 636 350 q 779 222 743 222 q 796 225 785 222 l 800 210 q 732 194 769 194 m 524 32 q 799 145 689 33 q 908 436 908 257 q 798 725 908 614 q 524 836 688 836 q 249 724 358 836 q 139 433 139 613 q 249 144 139 256 q 524 32 360 32 m 845 111 q 780 47 845 111 q 524 -18 715 -18 q 202 110 332 -18 q 72 433 72 238 q 202 758 72 629 q 524 888 332 888 q 845 760 715 888 q 975 436 975 632 q 845 111 975 240 z "},"¯":{"ha":708,"x_min":164,"x_max":544,"o":"m 164 922 l 183 1000 l 544 1000 l 525 922 l 164 922 z "},"ˉ":{"ha":708,"x_min":164,"x_max":544,"o":"m 164 922 l 183 1000 l 544 1000 l 525 922 l 164 922 z "},"̄":{"ha":708,"x_min":164,"x_max":544,"o":"m 164 922 l 183 1000 l 544 1000 l 525 922 l 164 922 z "},"°":{"ha":708,"x_min":228,"x_max":581,"o":"m 368 578 q 268 622 308 578 q 228 729 228 667 q 289 891 228 818 q 439 964 350 964 q 540 919 500 964 q 581 811 581 875 q 519 650 581 722 q 368 578 458 578 m 381 633 q 473 687 438 633 q 508 801 508 740 q 488 878 508 847 q 426 908 467 908 q 333 856 368 908 q 299 739 299 803 q 319 663 299 692 q 381 633 340 633 z "},"±":{"ha":708,"x_min":1,"x_max":664,"o":"m 289 181 l 289 379 l 1 379 l 1 465 l 289 465 l 289 664 l 376 664 l 376 465 l 664 465 l 664 379 l 376 379 l 376 181 l 289 181 m 1 0 l 1 86 l 664 86 l 664 0 l 1 0 z "},"²":{"ha":460,"x_min":35,"x_max":476,"o":"m 35 407 l 44 458 q 232 608 167 540 q 251 628 235 611 q 273 650 268 646 q 292 671 278 654 q 313 694 307 688 q 330 717 318 701 q 347 742 342 732 q 359 766 351 751 q 370 793 367 781 q 376 820 374 806 q 379 850 379 835 q 351 927 379 896 q 278 958 324 958 q 151 907 207 958 l 139 922 q 225 1003 182 976 q 329 1029 268 1029 q 433 987 390 1029 q 476 878 476 944 q 463 807 476 840 q 419 738 450 774 q 372 685 389 701 q 315 633 356 669 q 128 478 217 544 l 292 478 q 396 515 375 478 l 424 561 l 439 554 l 392 407 l 35 407 z "},"³":{"ha":460,"x_min":54,"x_max":456,"o":"m 151 393 q 85 410 115 393 q 54 457 54 426 q 73 495 54 481 q 117 507 92 510 l 121 503 q 142 452 121 474 q 197 431 164 431 q 294 479 254 431 q 333 593 333 528 q 296 676 333 650 q 207 701 258 701 l 146 701 l 156 746 l 203 746 q 317 783 267 746 q 367 882 367 819 q 342 945 367 919 q 278 971 317 971 q 157 915 213 971 l 143 932 q 322 1032 224 1032 q 419 997 383 1032 q 456 911 456 963 q 414 813 456 856 q 314 750 372 771 q 388 715 351 746 q 425 625 425 683 q 341 458 425 524 q 151 393 257 393 z "},"´":{"ha":708,"x_min":201,"x_max":507,"o":"m 215 740 l 201 753 l 378 1036 l 507 1036 q 476 983 503 1007 l 215 740 z "},"ˊ":{"ha":708,"x_min":201,"x_max":507,"o":"m 215 740 l 201 753 l 378 1036 l 507 1036 q 476 983 503 1007 l 215 740 z "},"́":{"ha":708,"x_min":201,"x_max":507,"o":"m 215 740 l 201 753 l 378 1036 l 507 1036 q 476 983 503 1007 l 215 740 z "},"µ":{"ha":728,"x_min":-47,"x_max":653,"o":"m -40 -283 l -47 -278 l 154 664 l 260 664 l 163 219 q 162 110 146 150 q 224 69 178 69 q 368 155 286 69 q 471 338 450 240 l 542 664 l 646 664 l 535 149 q 561 53 513 53 q 638 94 590 53 l 653 78 q 490 -14 571 -14 q 441 4 458 -14 q 422 51 424 22 q 422 97 421 79 q 428 131 424 115 l 440 186 l 438 186 q 157 -18 282 -18 q 89 13 106 -18 l 86 11 q 93 -51 96 -15 l 83 -268 l -40 -283 z "},"¶":{"ha":914,"x_min":-47,"x_max":954,"o":"m 954 940 l 942 883 l 931 879 l 838 879 l 693 197 q 657 47 675 110 q 604 -90 639 -15 q 526 -212 569 -165 q 413 -290 482 -258 q 256 -322 343 -322 q 43 -242 133 -322 q -47 -40 -47 -161 q -2 110 -47 43 q 122 178 43 178 q 181 157 157 178 q 206 101 206 136 l 206 99 l 196 89 l 178 89 q 75 46 118 89 q 32 -58 32 3 q 96 -215 32 -154 q 256 -275 160 -275 q 374 -254 321 -275 q 463 -191 426 -233 q 526 -105 500 -149 q 571 5 551 -61 q 600 116 590 71 q 621 228 610 161 q 481 221 564 221 q 281 292 354 221 q 207 490 207 364 q 314 795 207 667 q 594 933 421 924 q 798 939 665 938 q 954 940 931 940 m 757 879 l 692 879 l 568 296 q 635 300 600 293 l 757 879 z "},"·":{"ha":354,"x_min":89,"x_max":265,"o":"m 156 294 q 107 314 125 294 q 89 363 89 333 q 120 435 89 404 q 194 465 151 465 q 245 447 225 465 q 265 397 265 428 q 232 325 265 356 q 156 294 199 294 z "},"∙":{"ha":354,"x_min":89,"x_max":265,"o":"m 156 294 q 107 314 125 294 q 89 363 89 333 q 120 435 89 404 q 194 465 151 465 q 245 447 225 465 q 265 397 265 428 q 232 325 265 356 q 156 294 199 294 z "},"¸":{"ha":708,"x_min":240,"x_max":467,"o":"m 364 -289 q 240 -160 275 -289 l 264 -150 q 346 -211 294 -211 q 394 -189 375 -211 q 414 -129 414 -167 q 354 32 414 -72 l 381 47 q 399 14 385 39 q 420 -22 414 -11 q 438 -56 426 -33 q 453 -94 449 -79 q 463 -131 458 -110 q 467 -172 467 -153 q 440 -255 467 -221 q 364 -289 413 -289 z "},"̧":{"ha":708,"x_min":240,"x_max":467,"o":"m 364 -289 q 240 -160 275 -289 l 264 -150 q 346 -211 294 -211 q 394 -189 375 -211 q 414 -129 414 -167 q 354 32 414 -72 l 381 47 q 399 14 385 39 q 420 -22 414 -11 q 438 -56 426 -33 q 453 -94 449 -79 q 463 -131 458 -110 q 467 -172 467 -153 q 440 -255 467 -221 q 364 -289 413 -289 z "},"¹":{"ha":460,"x_min":86,"x_max":401,"o":"m 86 407 l 90 422 l 133 432 q 181 456 168 439 q 206 526 194 472 l 286 914 q 283 945 290 935 q 257 950 275 956 l 167 924 l 158 954 l 393 1031 l 401 1026 l 297 526 q 293 453 288 469 q 326 432 299 436 l 369 422 l 367 407 l 86 407 z "},"º":{"ha":417,"x_min":4,"x_max":431,"o":"m 188 393 q 86 436 121 393 q 51 554 51 479 q 120 760 51 664 q 293 857 189 857 q 397 813 363 857 q 431 693 431 768 q 360 489 431 585 q 188 393 290 393 m 201 419 q 266 453 238 419 q 310 535 294 486 q 333 629 325 583 q 340 708 340 675 q 276 832 340 832 q 198 774 231 832 q 154 653 165 715 q 143 540 143 590 q 201 419 143 419 m 4 247 l 15 294 l 357 294 l 346 247 l 4 247 z "},"»":{"ha":792,"x_min":74,"x_max":718,"o":"m 90 76 l 74 96 l 300 353 l 156 610 l 181 631 l 435 357 l 431 332 l 90 76 m 374 76 l 357 97 l 582 353 l 438 610 l 464 631 l 718 357 l 713 332 l 374 76 z "},"¼":{"ha":1075,"x_min":67,"x_max":988,"o":"m 197 -15 l 158 15 l 914 949 l 953 917 l 197 -15 m 67 319 l 71 335 l 114 344 q 162 368 149 351 q 186 439 175 385 l 267 826 q 263 858 271 847 q 238 863 256 868 l 147 836 l 139 867 l 374 943 l 382 939 l 278 439 q 274 365 268 382 q 307 344 279 349 l 350 335 l 347 319 l 67 319 m 686 0 l 690 15 l 731 25 q 772 47 763 32 q 793 119 781 61 l 803 163 l 563 163 l 574 214 l 926 635 l 958 607 l 625 211 l 811 211 l 850 392 l 935 392 l 897 211 l 988 211 l 978 163 l 888 163 l 879 119 q 872 47 868 63 q 900 25 875 32 l 931 15 l 928 0 l 686 0 z "},"½":{"ha":1126,"x_min":67,"x_max":1057,"o":"m 197 -15 l 158 15 l 914 949 l 953 917 l 197 -15 m 67 319 l 71 335 l 114 344 q 162 368 149 351 q 186 439 175 385 l 267 826 q 263 858 271 847 q 238 863 256 868 l 147 836 l 139 867 l 374 943 l 382 939 l 278 439 q 274 365 268 382 q 307 344 279 349 l 350 335 l 347 319 l 67 319 m 615 0 l 625 51 q 813 201 747 133 q 832 222 815 204 q 853 243 849 239 q 873 264 858 247 q 893 288 888 281 q 910 310 899 294 q 927 335 922 325 q 940 359 932 344 q 951 386 947 374 q 957 413 954 399 q 960 443 960 428 q 932 520 960 489 q 858 551 904 551 q 732 500 788 551 l 719 515 q 806 596 763 569 q 910 622 849 622 q 1014 580 971 622 q 1057 471 1057 538 q 1044 400 1057 433 q 1000 331 1031 367 q 953 278 969 294 q 896 226 936 263 q 708 71 797 138 l 872 71 q 976 108 956 71 l 1004 154 l 1019 147 l 972 0 l 615 0 z "},"¾":{"ha":1075,"x_min":35,"x_max":988,"o":"m 199 -15 l 160 15 l 915 949 l 954 917 l 199 -15 m 686 0 l 690 15 l 731 25 q 772 47 763 32 q 793 119 781 61 l 803 163 l 563 163 l 574 214 l 926 635 l 958 607 l 625 211 l 811 211 l 850 392 l 935 392 l 897 211 l 988 211 l 978 163 l 888 163 l 879 119 q 872 47 868 63 q 900 25 875 32 l 931 15 l 928 0 l 686 0 m 132 306 q 65 322 96 306 q 35 369 35 339 q 53 408 35 393 q 97 419 72 422 l 101 415 q 123 365 101 386 q 178 343 144 343 q 274 392 235 343 q 314 506 314 440 q 276 588 314 563 q 188 614 239 614 l 126 614 l 136 658 l 183 658 q 297 695 247 658 q 347 794 347 732 q 322 858 347 832 q 258 883 297 883 q 138 828 193 883 l 124 844 q 303 944 204 944 q 400 910 364 944 q 436 824 436 875 q 394 726 436 768 q 294 663 353 683 q 369 627 332 658 q 406 538 406 596 q 322 371 406 436 q 132 306 238 306 z "},"¿":{"ha":622,"x_min":-72,"x_max":464,"o":"m 358 594 q 312 613 331 594 q 294 660 293 631 q 328 728 296 700 q 401 757 360 757 q 447 739 431 757 q 463 693 464 721 q 431 624 461 653 q 358 594 400 594 m 165 -283 q -1 -217 69 -283 q -69 -56 -72 -150 q 97 200 -62 110 l 236 278 q 310 344 289 307 q 326 415 332 381 q 296 482 321 449 l 314 496 q 377 399 357 450 q 376 288 397 347 q 281 189 356 229 l 132 108 q 81 79 99 90 q 38 46 64 68 q -1 -5 11 24 q -15 -69 -14 -33 q 25 -169 -17 -132 q 129 -207 67 -207 q 233 -174 188 -207 q 288 -90 278 -140 l 297 -87 q 337 -106 318 -90 q 354 -150 356 -122 q 303 -242 353 -200 q 165 -283 254 -283 z "},"À":{"ha":889,"x_min":-110,"x_max":801,"o":"m 801 14 l 799 0 l 450 0 l 453 14 l 504 28 q 567 68 556 42 q 569 178 579 94 l 550 343 l 232 343 l 176 246 q 100 81 106 122 q 140 29 94 40 l 188 14 l 185 0 l -110 0 l -107 14 l -71 26 q -4 69 -29 40 q 83 206 21 99 l 464 851 q 486 896 483 883 q 483 947 489 908 l 486 950 l 588 950 l 697 176 q 722 67 710 90 q 772 26 735 43 l 801 14 m 542 393 l 507 679 q 496 803 494 775 l 493 803 q 426 681 486 786 l 261 393 l 542 393 m 556 986 l 335 1238 q 314 1282 314 1263 l 440 1282 l 574 999 l 556 986 z "},"Á":{"ha":889,"x_min":-110,"x_max":818,"o":"m 801 14 l 799 0 l 450 0 l 453 14 l 504 28 q 567 68 556 42 q 569 178 579 94 l 550 343 l 232 343 l 176 246 q 100 81 106 122 q 140 29 94 40 l 188 14 l 185 0 l -110 0 l -107 14 l -71 26 q -4 69 -29 40 q 83 206 21 99 l 464 851 q 486 896 483 883 q 483 947 489 908 l 486 950 l 588 950 l 697 176 q 722 67 710 90 q 772 26 735 43 l 801 14 m 542 393 l 507 679 q 496 803 494 775 l 493 803 q 426 681 486 786 l 261 393 l 542 393 m 526 986 l 513 999 l 689 1282 l 818 1282 q 788 1229 814 1253 l 526 986 z "},"Â":{"ha":889,"x_min":-110,"x_max":801,"o":"m 801 14 l 799 0 l 450 0 l 453 14 l 504 28 q 567 68 556 42 q 569 178 579 94 l 550 343 l 232 343 l 176 246 q 100 81 106 122 q 140 29 94 40 l 188 14 l 185 0 l -110 0 l -107 14 l -71 26 q -4 69 -29 40 q 83 206 21 99 l 464 851 q 486 896 483 883 q 483 947 489 908 l 486 950 l 588 950 l 697 176 q 722 67 710 90 q 772 26 735 43 l 801 14 m 542 393 l 507 679 q 496 803 494 775 l 493 803 q 426 681 486 786 l 261 393 l 542 393 m 324 986 l 310 999 l 536 1290 l 561 1290 l 739 999 l 721 986 l 539 1161 l 324 986 z "},"Ã":{"ha":889,"x_min":-110,"x_max":801,"o":"m 801 14 l 799 0 l 450 0 l 453 14 l 504 28 q 567 68 556 42 q 569 178 579 94 l 550 343 l 232 343 l 176 246 q 100 81 106 122 q 140 29 94 40 l 188 14 l 185 0 l -110 0 l -107 14 l -71 26 q -4 69 -29 40 q 83 206 21 99 l 464 851 q 486 896 483 883 q 483 947 489 908 l 486 950 l 588 950 l 697 176 q 722 67 710 90 q 772 26 735 43 l 801 14 m 542 393 l 507 679 q 496 803 494 775 l 493 803 q 426 681 486 786 l 261 393 l 542 393 m 632 1075 q 540 1089 600 1075 q 446 1103 479 1103 q 400 1087 421 1103 q 353 1024 379 1071 l 333 1031 q 402 1153 369 1119 q 475 1188 435 1188 q 567 1174 506 1188 q 661 1160 628 1160 q 707 1176 686 1160 q 754 1239 728 1192 l 774 1232 q 705 1109 738 1143 q 632 1075 672 1075 z "},"Ä":{"ha":889,"x_min":-110,"x_max":801,"o":"m 801 14 l 799 0 l 450 0 l 453 14 l 504 28 q 567 68 556 42 q 569 178 579 94 l 550 343 l 232 343 l 176 246 q 100 81 106 122 q 140 29 94 40 l 188 14 l 185 0 l -110 0 l -107 14 l -71 26 q -4 69 -29 40 q 83 206 21 99 l 464 851 q 486 896 483 883 q 483 947 489 908 l 486 950 l 588 950 l 697 176 q 722 67 710 90 q 772 26 735 43 l 801 14 m 542 393 l 507 679 q 496 803 494 775 l 493 803 q 426 681 486 786 l 261 393 l 542 393 m 658 1064 q 618 1081 633 1064 q 603 1122 603 1097 q 628 1188 603 1161 q 689 1215 653 1215 q 731 1200 715 1215 q 747 1157 747 1185 q 721 1092 747 1119 q 658 1064 694 1064 m 414 1064 q 374 1081 389 1064 q 358 1122 358 1097 q 383 1188 358 1161 q 444 1215 408 1215 q 487 1200 471 1215 q 503 1157 503 1185 q 476 1092 503 1119 q 414 1064 450 1064 z "},"Å":{"ha":889,"x_min":-110,"x_max":801,"o":"m 801 14 l 799 0 l 450 0 l 453 14 l 504 28 q 567 68 556 42 q 569 178 579 94 l 550 343 l 232 343 l 176 246 q 100 81 106 122 q 140 29 94 40 l 188 14 l 185 0 l -110 0 l -107 14 l -71 26 q -4 69 -29 40 q 83 206 21 99 l 464 851 q 486 896 483 883 q 483 947 489 908 l 486 950 l 588 950 l 697 176 q 722 67 710 90 q 772 26 735 43 l 801 14 m 542 393 l 507 679 q 496 803 494 775 l 493 803 q 426 681 486 786 l 261 393 l 542 393 m 540 1001 q 469 1026 496 1001 q 442 1093 442 1051 q 488 1213 442 1156 q 604 1269 535 1269 q 677 1243 651 1269 q 703 1175 703 1217 q 656 1058 703 1114 q 540 1001 608 1001 m 547 1026 q 613 1078 590 1026 q 636 1178 636 1129 q 594 1246 636 1246 q 531 1193 553 1246 q 508 1092 508 1140 q 547 1026 508 1026 z "},"Æ":{"ha":1176,"x_min":-139,"x_max":1157,"o":"m -139 0 l -136 14 l -101 26 q -43 65 -67 39 q 67 206 -19 92 l 433 692 q 512 815 492 769 q 524 878 532 860 q 482 908 515 897 l 435 924 l 438 938 l 1157 938 l 1121 764 l 1100 764 l 1099 818 q 1067 874 1097 861 q 932 888 1036 888 l 783 888 l 696 481 l 836 481 q 955 489 928 481 q 999 535 982 497 l 1025 594 l 1046 594 l 989 328 l 968 328 l 967 374 q 942 422 965 413 q 828 431 918 431 l 686 431 l 638 199 q 627 75 618 100 q 681 50 636 50 l 767 50 q 914 69 864 50 q 994 132 964 88 l 1033 189 l 1056 185 l 979 0 l 361 0 l 364 14 l 414 29 q 478 67 463 43 q 511 176 493 90 l 563 426 l 303 426 l 172 246 q 96 123 115 168 q 84 59 76 78 q 125 29 92 40 l 172 14 l 169 0 l -139 0 m 344 481 l 575 481 l 660 885 l 646 885 l 344 481 z "},"Ç":{"ha":858,"x_min":39,"x_max":876,"o":"m 876 968 l 819 711 l 797 711 l 797 782 q 736 879 797 844 q 603 914 675 914 q 420 862 503 914 q 288 726 338 810 q 211 547 238 643 q 185 354 185 450 q 253 117 185 210 q 456 25 322 25 q 589 58 522 25 q 693 150 656 92 l 736 217 l 757 211 l 683 25 q 418 -22 565 -21 q 467 -175 467 -110 q 440 -258 467 -224 q 364 -292 413 -292 q 240 -162 275 -292 l 264 -153 q 346 -214 294 -214 q 394 -192 375 -214 q 414 -132 414 -169 q 382 -21 414 -82 q 129 83 219 -14 q 39 344 39 181 q 110 643 39 503 q 314 872 182 783 q 607 961 446 961 q 760 946 674 961 q 777 942 767 944 q 792 940 788 940 q 803 938 796 939 q 815 937 811 938 q 823 937 818 936 q 831 938 828 938 q 836 940 833 939 q 841 944 839 942 q 846 951 843 947 l 856 968 l 876 968 z "},"È":{"ha":692,"x_min":11,"x_max":719,"o":"m 719 857 q 698 807 719 826 q 646 788 676 788 q 641 788 644 788 q 636 789 638 789 l 626 797 q 587 884 626 850 q 488 918 547 918 q 357 874 413 918 q 278 770 301 829 q 254 651 254 711 q 267 574 254 611 q 390 597 333 597 q 437 594 414 597 q 483 576 460 590 q 507 539 507 561 q 460 479 507 499 q 363 460 413 460 q 215 500 272 460 q 138 260 138 417 q 321 47 138 47 q 469 97 399 47 q 583 221 539 147 l 611 203 q 469 47 557 106 q 274 -12 381 -12 q 88 57 165 -12 q 11 233 11 126 q 58 403 11 324 q 182 532 104 482 q 149 642 149 576 q 185 769 149 706 q 331 916 236 861 q 531 971 426 971 q 658 942 597 971 q 719 857 719 913 m 429 521 q 406 547 429 539 q 363 556 383 556 q 288 542 321 556 q 378 490 315 490 q 412 498 394 490 q 429 521 429 506 m 514 986 l 293 1238 q 272 1282 272 1263 l 399 1282 l 532 999 l 514 986 z "},"É":{"ha":692,"x_min":11,"x_max":788,"o":"m 719 857 q 698 807 719 826 q 646 788 676 788 q 641 788 644 788 q 636 789 638 789 l 626 797 q 587 884 626 850 q 488 918 547 918 q 357 874 413 918 q 278 770 301 829 q 254 651 254 711 q 267 574 254 611 q 390 597 333 597 q 437 594 414 597 q 483 576 460 590 q 507 539 507 561 q 460 479 507 499 q 363 460 413 460 q 215 500 272 460 q 138 260 138 417 q 321 47 138 47 q 469 97 399 47 q 583 221 539 147 l 611 203 q 469 47 557 106 q 274 -12 381 -12 q 88 57 165 -12 q 11 233 11 126 q 58 403 11 324 q 182 532 104 482 q 149 642 149 576 q 185 769 149 706 q 331 916 236 861 q 531 971 426 971 q 658 942 597 971 q 719 857 719 913 m 429 521 q 406 547 429 539 q 363 556 383 556 q 288 542 321 556 q 378 490 315 490 q 412 498 394 490 q 429 521 429 506 m 496 986 l 482 999 l 658 1282 l 788 1282 q 757 1229 783 1253 l 496 986 z "},"Ê":{"ha":692,"x_min":11,"x_max":719,"o":"m 719 857 q 698 807 719 826 q 646 788 676 788 q 641 788 644 788 q 636 789 638 789 l 626 797 q 587 884 626 850 q 488 918 547 918 q 357 874 413 918 q 278 770 301 829 q 254 651 254 711 q 267 574 254 611 q 390 597 333 597 q 437 594 414 597 q 483 576 460 590 q 507 539 507 561 q 460 479 507 499 q 363 460 413 460 q 215 500 272 460 q 138 260 138 417 q 321 47 138 47 q 469 97 399 47 q 583 221 539 147 l 611 203 q 469 47 557 106 q 274 -12 381 -12 q 88 57 165 -12 q 11 233 11 126 q 58 403 11 324 q 182 532 104 482 q 149 642 149 576 q 185 769 149 706 q 331 916 236 861 q 531 971 426 971 q 658 942 597 971 q 719 857 719 913 m 429 521 q 406 547 429 539 q 363 556 383 556 q 288 542 321 556 q 378 490 315 490 q 412 498 394 490 q 429 521 429 506 m 265 986 l 251 999 l 478 1290 l 503 1290 l 681 999 l 663 986 l 481 1161 l 265 986 z "},"Ë":{"ha":692,"x_min":11,"x_max":719,"o":"m 719 857 q 698 807 719 826 q 646 788 676 788 q 641 788 644 788 q 636 789 638 789 l 626 797 q 587 884 626 850 q 488 918 547 918 q 357 874 413 918 q 278 770 301 829 q 254 651 254 711 q 267 574 254 611 q 390 597 333 597 q 437 594 414 597 q 483 576 460 590 q 507 539 507 561 q 460 479 507 499 q 363 460 413 460 q 215 500 272 460 q 138 260 138 417 q 321 47 138 47 q 469 97 399 47 q 583 221 539 147 l 611 203 q 469 47 557 106 q 274 -12 381 -12 q 88 57 165 -12 q 11 233 11 126 q 58 403 11 324 q 182 532 104 482 q 149 642 149 576 q 185 769 149 706 q 331 916 236 861 q 531 971 426 971 q 658 942 597 971 q 719 857 719 913 m 429 521 q 406 547 429 539 q 363 556 383 556 q 288 542 321 556 q 378 490 315 490 q 412 498 394 490 q 429 521 429 506 m 621 1064 q 581 1081 596 1064 q 565 1122 565 1097 q 590 1188 565 1161 q 651 1215 615 1215 q 694 1200 678 1215 q 710 1157 710 1185 q 683 1092 710 1119 q 621 1064 657 1064 m 376 1064 q 336 1081 351 1064 q 321 1122 321 1097 q 346 1188 321 1161 q 407 1215 371 1215 q 449 1200 433 1215 q 465 1157 465 1185 q 439 1092 465 1119 q 376 1064 413 1064 z "},"Ì":{"ha":461,"x_min":-46,"x_max":501,"o":"m -46 0 l -43 14 l 7 29 q 71 67 56 43 q 104 176 86 90 l 228 760 q 242 873 247 849 q 196 908 236 897 l 143 924 l 146 938 l 501 938 l 499 924 l 449 908 q 385 871 400 894 q 351 761 369 847 l 228 178 q 214 65 208 89 q 260 29 219 40 l 313 14 l 310 0 l -46 0 m 343 986 l 122 1238 q 101 1282 101 1263 l 228 1282 l 361 999 l 343 986 z "},"Í":{"ha":461,"x_min":-46,"x_max":597,"o":"m -46 0 l -43 14 l 7 29 q 71 67 56 43 q 104 176 86 90 l 228 760 q 242 873 247 849 q 196 908 236 897 l 143 924 l 146 938 l 501 938 l 499 924 l 449 908 q 385 871 400 894 q 351 761 369 847 l 228 178 q 214 65 208 89 q 260 29 219 40 l 313 14 l 310 0 l -46 0 m 306 986 l 292 999 l 468 1282 l 597 1282 q 567 1229 593 1253 l 306 986 z "},"Î":{"ha":461,"x_min":-46,"x_max":553,"o":"m -46 0 l -43 14 l 7 29 q 71 67 56 43 q 104 176 86 90 l 228 760 q 242 873 247 849 q 196 908 236 897 l 143 924 l 146 938 l 501 938 l 499 924 l 449 908 q 385 871 400 894 q 351 761 369 847 l 228 178 q 214 65 208 89 q 260 29 219 40 l 313 14 l 310 0 l -46 0 m 138 986 l 124 999 l 350 1290 l 375 1290 l 553 999 l 535 986 l 353 1161 l 138 986 z "},"Ï":{"ha":461,"x_min":-46,"x_max":567,"o":"m -46 0 l -43 14 l 7 29 q 71 67 56 43 q 104 176 86 90 l 228 760 q 242 873 247 849 q 196 908 236 897 l 143 924 l 146 938 l 501 938 l 499 924 l 449 908 q 385 871 400 894 q 351 761 369 847 l 228 178 q 214 65 208 89 q 260 29 219 40 l 313 14 l 310 0 l -46 0 m 478 1064 q 438 1081 453 1064 q 422 1122 422 1097 q 447 1188 422 1161 q 508 1215 472 1215 q 551 1200 535 1215 q 567 1157 567 1185 q 540 1092 567 1119 q 478 1064 514 1064 m 233 1064 q 193 1081 208 1064 q 178 1122 178 1097 q 203 1188 178 1161 q 264 1215 228 1215 q 306 1200 290 1215 q 322 1157 322 1185 q 296 1092 322 1119 q 233 1064 269 1064 z "},"Ð":{"ha":1008,"x_min":-40,"x_max":969,"o":"m 969 586 q 889 303 969 438 q 665 84 808 168 q 353 0 521 0 l -40 0 l -37 14 l 13 29 q 76 67 61 43 q 110 176 92 90 l 171 468 l 78 468 l 89 517 l 182 517 l 233 760 q 245 872 251 850 q 197 906 239 893 l 149 921 l 151 935 q 542 944 424 944 q 708 926 633 944 q 842 867 782 907 q 936 756 903 828 q 969 586 969 685 m 828 574 q 742 810 828 729 q 519 892 657 892 q 383 888 429 892 l 304 517 l 525 517 l 514 468 l 294 468 l 238 199 q 227 75 218 100 q 281 50 236 50 l 321 50 q 695 192 563 50 q 828 574 828 333 z "},"Ñ":{"ha":1042,"x_min":-68,"x_max":1136,"o":"m 1136 886 q 1123 842 1136 864 q 1092 814 1110 821 l 1079 814 q 1026 856 1071 856 q 892 688 947 856 q 792 232 838 531 q 760 -17 772 113 l 700 -17 l 386 693 q 346 793 357 758 l 343 793 q 327 691 339 767 q 308 572 315 615 q 288 462 300 528 q 259 338 275 396 q 225 225 243 279 q 194 147 211 185 q 150 69 176 110 q 87 5 124 29 q 8 -19 50 -19 q -45 1 -22 -19 q -68 53 -68 22 q -55 97 -68 75 q -24 125 -42 118 l -11 125 q 42 83 -3 83 q 176 251 121 83 q 285 760 228 403 q 286 874 296 849 q 235 908 276 899 l 172 924 l 175 938 l 419 939 l 693 297 q 732 188 718 240 l 735 188 q 843 714 789 557 q 874 792 857 754 q 918 869 892 829 q 981 934 944 910 q 1060 958 1018 958 q 1113 938 1090 958 q 1136 886 1136 917 m 778 1075 q 685 1089 746 1075 q 592 1103 625 1103 q 546 1087 567 1103 q 499 1024 525 1071 l 479 1031 q 548 1153 515 1119 q 621 1188 581 1188 q 711 1174 650 1188 q 807 1160 772 1160 q 853 1176 832 1160 q 900 1239 874 1192 l 919 1232 q 851 1109 883 1143 q 778 1075 818 1075 z "},"Ò":{"ha":992,"x_min":39,"x_max":953,"o":"m 389 -22 q 128 72 218 -22 q 39 335 39 167 q 110 626 39 483 q 315 866 182 769 q 604 963 447 963 q 863 865 774 963 q 953 600 953 767 q 882 309 953 451 q 678 72 811 167 q 389 -22 546 -22 m 400 21 q 552 63 482 21 q 670 171 622 104 q 752 321 718 238 q 801 485 786 404 q 817 639 817 567 q 752 849 817 776 q 592 921 688 921 q 441 878 511 921 q 324 769 371 836 q 242 617 276 701 q 192 452 208 533 q 176 299 176 371 q 239 91 176 161 q 400 21 301 21 m 607 986 l 386 1238 q 365 1282 365 1263 l 492 1282 l 625 999 l 607 986 z "},"Ó":{"ha":992,"x_min":39,"x_max":953,"o":"m 389 -22 q 128 72 218 -22 q 39 335 39 167 q 110 626 39 483 q 315 866 182 769 q 604 963 447 963 q 863 865 774 963 q 953 600 953 767 q 882 309 953 451 q 678 72 811 167 q 389 -22 546 -22 m 400 21 q 552 63 482 21 q 670 171 622 104 q 752 321 718 238 q 801 485 786 404 q 817 639 817 567 q 752 849 817 776 q 592 921 688 921 q 441 878 511 921 q 324 769 371 836 q 242 617 276 701 q 192 452 208 533 q 176 299 176 371 q 239 91 176 161 q 400 21 301 21 m 588 986 l 574 999 l 750 1282 l 879 1282 q 849 1229 875 1253 l 588 986 z "},"Ô":{"ha":992,"x_min":39,"x_max":953,"o":"m 389 -22 q 128 72 218 -22 q 39 335 39 167 q 110 626 39 483 q 315 866 182 769 q 604 963 447 963 q 863 865 774 963 q 953 600 953 767 q 882 309 953 451 q 678 72 811 167 q 389 -22 546 -22 m 400 21 q 552 63 482 21 q 670 171 622 104 q 752 321 718 238 q 801 485 786 404 q 817 639 817 567 q 752 849 817 776 q 592 921 688 921 q 441 878 511 921 q 324 769 371 836 q 242 617 276 701 q 192 452 208 533 q 176 299 176 371 q 239 91 176 161 q 400 21 301 21 m 403 986 l 389 999 l 615 1290 l 640 1290 l 818 999 l 800 986 l 618 1161 l 403 986 z "},"Õ":{"ha":992,"x_min":39,"x_max":953,"o":"m 389 -22 q 128 72 218 -22 q 39 335 39 167 q 110 626 39 483 q 315 866 182 769 q 604 963 447 963 q 863 865 774 963 q 953 600 953 767 q 882 309 953 451 q 678 72 811 167 q 389 -22 546 -22 m 400 21 q 552 63 482 21 q 670 171 622 104 q 752 321 718 238 q 801 485 786 404 q 817 639 817 567 q 752 849 817 776 q 592 921 688 921 q 441 878 511 921 q 324 769 371 836 q 242 617 276 701 q 192 452 208 533 q 176 299 176 371 q 239 91 176 161 q 400 21 301 21 m 694 1075 q 602 1089 663 1075 q 508 1103 542 1103 q 463 1087 483 1103 q 415 1024 442 1071 l 396 1031 q 465 1153 432 1119 q 538 1188 497 1188 q 628 1174 567 1188 q 724 1160 689 1160 q 769 1176 749 1160 q 817 1239 790 1192 l 836 1232 q 767 1109 800 1143 q 694 1075 735 1075 z "},"Ö":{"ha":992,"x_min":39,"x_max":953,"o":"m 389 -22 q 128 72 218 -22 q 39 335 39 167 q 110 626 39 483 q 315 866 182 769 q 604 963 447 963 q 863 865 774 963 q 953 600 953 767 q 882 309 953 451 q 678 72 811 167 q 389 -22 546 -22 m 400 21 q 552 63 482 21 q 670 171 622 104 q 752 321 718 238 q 801 485 786 404 q 817 639 817 567 q 752 849 817 776 q 592 921 688 921 q 441 878 511 921 q 324 769 371 836 q 242 617 276 701 q 192 452 208 533 q 176 299 176 371 q 239 91 176 161 q 400 21 301 21 m 764 1064 q 724 1081 739 1064 q 708 1122 708 1097 q 733 1188 708 1161 q 794 1215 758 1215 q 837 1200 821 1215 q 853 1157 853 1185 q 826 1092 853 1119 q 764 1064 800 1064 m 519 1064 q 479 1081 494 1064 q 464 1122 464 1097 q 489 1188 464 1161 q 550 1215 514 1215 q 592 1200 576 1215 q 608 1157 608 1185 q 582 1092 608 1119 q 519 1064 556 1064 z "},"×":{"ha":708,"x_min":26,"x_max":668,"o":"m 89 11 l 26 74 l 283 332 l 26 589 l 89 653 l 347 393 l 606 653 l 668 589 l 410 332 l 668 74 l 606 11 l 347 269 l 89 11 z "},"Ø":{"ha":992,"x_min":7,"x_max":985,"o":"m 47 -51 l 7 -19 l 110 94 q 39 335 39 186 q 110 626 39 483 q 315 866 182 769 q 604 963 447 963 q 832 893 743 963 l 944 1018 l 985 988 l 868 858 q 953 600 953 761 q 882 309 953 451 q 678 72 811 167 q 389 -22 546 -22 q 144 57 235 -22 l 47 -51 m 192 185 l 769 825 q 592 921 708 921 q 441 878 511 921 q 324 769 371 836 q 242 617 276 701 q 192 452 208 533 q 176 299 176 371 q 192 185 176 238 m 400 21 q 552 63 482 21 q 670 171 622 104 q 752 321 718 238 q 801 485 786 404 q 817 639 817 567 q 794 776 817 717 l 213 132 q 400 21 271 21 z "},"Ù":{"ha":936,"x_min":97,"x_max":1007,"o":"m 385 -22 q 175 49 253 -22 q 97 251 97 121 q 114 381 97 297 l 194 760 q 208 873 214 849 q 163 908 203 897 l 110 924 l 113 938 l 468 938 l 465 924 l 415 908 q 351 871 367 894 q 318 761 336 847 l 244 410 q 222 247 222 310 q 273 95 222 150 q 421 40 324 40 q 505 55 467 40 q 570 88 543 69 q 621 144 597 107 q 658 207 644 181 q 685 284 671 233 q 706 358 700 335 q 722 433 711 382 l 750 564 q 785 740 775 679 q 795 839 796 801 q 785 888 794 876 q 753 907 775 900 l 697 924 l 700 938 l 1007 938 l 1004 924 l 946 908 q 883 851 903 897 q 828 636 864 804 l 785 429 q 739 256 763 325 q 671 117 715 186 q 556 13 626 47 q 385 -22 485 -22 m 579 986 l 358 1238 q 338 1282 338 1263 l 464 1282 l 597 999 l 579 986 z "},"Ú":{"ha":936,"x_min":97,"x_max":1007,"o":"m 385 -22 q 175 49 253 -22 q 97 251 97 121 q 114 381 97 297 l 194 760 q 208 873 214 849 q 163 908 203 897 l 110 924 l 113 938 l 468 938 l 465 924 l 415 908 q 351 871 367 894 q 318 761 336 847 l 244 410 q 222 247 222 310 q 273 95 222 150 q 421 40 324 40 q 505 55 467 40 q 570 88 543 69 q 621 144 597 107 q 658 207 644 181 q 685 284 671 233 q 706 358 700 335 q 722 433 711 382 l 750 564 q 785 740 775 679 q 795 839 796 801 q 785 888 794 876 q 753 907 775 900 l 697 924 l 700 938 l 1007 938 l 1004 924 l 946 908 q 883 851 903 897 q 828 636 864 804 l 785 429 q 739 256 763 325 q 671 117 715 186 q 556 13 626 47 q 385 -22 485 -22 m 585 986 l 571 999 l 747 1282 l 876 1282 q 846 1229 872 1253 l 585 986 z "},"Û":{"ha":936,"x_min":97,"x_max":1007,"o":"m 385 -22 q 175 49 253 -22 q 97 251 97 121 q 114 381 97 297 l 194 760 q 208 873 214 849 q 163 908 203 897 l 110 924 l 113 938 l 468 938 l 465 924 l 415 908 q 351 871 367 894 q 318 761 336 847 l 244 410 q 222 247 222 310 q 273 95 222 150 q 421 40 324 40 q 505 55 467 40 q 570 88 543 69 q 621 144 597 107 q 658 207 644 181 q 685 284 671 233 q 706 358 700 335 q 722 433 711 382 l 750 564 q 785 740 775 679 q 795 839 796 801 q 785 888 794 876 q 753 907 775 900 l 697 924 l 700 938 l 1007 938 l 1004 924 l 946 908 q 883 851 903 897 q 828 636 864 804 l 785 429 q 739 256 763 325 q 671 117 715 186 q 556 13 626 47 q 385 -22 485 -22 m 388 986 l 374 999 l 600 1290 l 625 1290 l 803 999 l 785 986 l 603 1161 l 388 986 z "},"Ü":{"ha":936,"x_min":97,"x_max":1007,"o":"m 385 -22 q 175 49 253 -22 q 97 251 97 121 q 114 381 97 297 l 194 760 q 208 873 214 849 q 163 908 203 897 l 110 924 l 113 938 l 468 938 l 465 924 l 415 908 q 351 871 367 894 q 318 761 336 847 l 244 410 q 222 247 222 310 q 273 95 222 150 q 421 40 324 40 q 505 55 467 40 q 570 88 543 69 q 621 144 597 107 q 658 207 644 181 q 685 284 671 233 q 706 358 700 335 q 722 433 711 382 l 750 564 q 785 740 775 679 q 795 839 796 801 q 785 888 794 876 q 753 907 775 900 l 697 924 l 700 938 l 1007 938 l 1004 924 l 946 908 q 883 851 903 897 q 828 636 864 804 l 785 429 q 739 256 763 325 q 671 117 715 186 q 556 13 626 47 q 385 -22 485 -22 m 719 1064 q 679 1081 694 1064 q 664 1122 664 1097 q 689 1188 664 1161 q 750 1215 714 1215 q 792 1200 776 1215 q 808 1157 808 1185 q 782 1092 808 1119 q 719 1064 756 1064 m 475 1064 q 435 1081 450 1064 q 419 1122 419 1097 q 444 1188 419 1161 q 506 1215 469 1215 q 548 1200 532 1215 q 564 1157 564 1185 q 538 1092 564 1119 q 475 1064 511 1064 z "},"Ý":{"ha":769,"x_min":56,"x_max":893,"o":"m 893 928 q 878 881 893 901 q 849 854 864 861 l 839 854 q 779 886 818 886 q 611 746 708 886 q 486 528 543 647 q 410 317 429 408 l 381 178 q 367 65 361 89 q 413 29 372 40 l 465 14 l 463 0 l 107 0 l 110 14 l 160 29 q 224 67 208 43 q 257 176 239 90 l 289 328 q 278 592 307 417 q 200 839 250 768 q 144 874 176 874 q 67 842 124 874 l 56 865 q 235 946 168 946 q 338 854 304 946 q 387 645 367 776 q 403 443 407 514 q 572 785 450 599 q 817 994 713 994 q 870 976 847 994 q 893 928 893 957 m 489 986 l 475 999 l 651 1282 l 781 1282 q 750 1229 776 1253 l 489 986 z "},"Þ":{"ha":775,"x_min":-40,"x_max":754,"o":"m -40 0 l -37 14 l 13 29 q 76 67 61 43 q 110 176 92 90 l 233 760 q 247 873 253 849 q 201 908 242 897 l 149 924 l 151 938 l 507 938 l 504 924 l 454 908 q 415 893 431 901 q 391 872 400 885 q 378 848 382 858 q 368 817 374 838 l 450 817 q 754 594 754 817 q 712 444 754 513 q 601 336 669 376 q 455 274 533 296 q 299 253 376 253 l 306 294 q 529 378 442 294 q 617 596 617 461 q 560 730 617 686 q 414 774 503 774 l 360 774 l 233 178 q 226 63 217 88 q 279 29 235 38 l 354 14 l 351 0 l -40 0 z "},"ß":{"ha":753,"x_min":-324,"x_max":725,"o":"m -225 -322 q -292 -303 -261 -322 q -324 -250 -324 -285 q -310 -210 -324 -231 q -278 -185 -296 -190 l -268 -185 q -233 -229 -261 -207 q -165 -251 -206 -251 q -6 -120 -65 -251 q 96 286 54 11 q 161 682 143 604 q 298 928 193 818 q 525 1039 403 1039 q 665 993 604 1039 q 725 871 725 947 q 678 752 725 801 q 551 657 631 703 q 447 536 447 600 q 449 520 447 528 q 453 505 450 513 q 459 492 457 497 q 468 478 461 486 q 478 465 475 469 q 491 451 481 461 q 505 438 501 442 q 521 424 508 435 q 538 408 533 413 q 598 348 578 371 q 637 287 618 325 q 656 206 656 249 q 579 43 656 106 q 396 -19 503 -19 q 284 5 329 -19 q 239 69 239 29 q 296 153 239 121 l 306 153 q 349 69 313 107 q 442 31 386 31 q 533 65 494 31 q 571 156 571 100 q 564 197 571 176 q 539 238 557 217 q 510 271 521 260 q 474 306 500 282 q 442 335 447 329 q 346 483 346 425 q 379 572 346 535 q 481 656 413 608 q 549 707 526 688 q 596 765 572 726 q 619 847 619 803 q 577 933 619 899 q 476 968 535 968 q 333 889 386 968 q 264 697 281 810 q 174 197 213 357 q 124 38 154 117 q 45 -127 93 -40 q -74 -268 -3 -214 q -225 -322 -144 -322 z "},"à":{"ha":689,"x_min":15,"x_max":629,"o":"m 136 -15 q 15 176 15 -15 q 65 405 15 292 q 213 598 114 518 q 431 678 311 678 q 543 653 489 678 l 599 675 l 607 674 l 506 201 q 493 101 489 149 q 538 54 497 54 q 618 88 558 54 l 629 68 q 458 -12 518 -12 q 424 -6 439 -12 q 403 14 410 0 q 392 39 396 28 q 388 72 388 50 q 390 102 389 93 q 394 132 390 111 l 397 153 l 400 171 l 396 171 q 265 38 335 90 q 136 -15 194 -15 m 208 72 q 342 160 267 72 q 404 251 386 211 q 438 365 422 292 l 481 567 q 440 604 469 589 q 368 619 410 619 q 263 579 311 619 q 188 478 215 539 q 144 349 160 417 q 129 222 129 282 q 131 170 129 192 q 140 124 133 149 q 165 85 147 99 q 208 72 182 72 m 397 740 l 176 992 q 156 1036 156 1017 l 282 1036 l 415 753 l 397 740 z "},"á":{"ha":689,"x_min":15,"x_max":663,"o":"m 136 -15 q 15 176 15 -15 q 65 405 15 292 q 213 598 114 518 q 431 678 311 678 q 543 653 489 678 l 599 675 l 607 674 l 506 201 q 493 101 489 149 q 538 54 497 54 q 618 88 558 54 l 629 68 q 458 -12 518 -12 q 424 -6 439 -12 q 403 14 410 0 q 392 39 396 28 q 388 72 388 50 q 390 102 389 93 q 394 132 390 111 l 397 153 l 400 171 l 396 171 q 265 38 335 90 q 136 -15 194 -15 m 208 72 q 342 160 267 72 q 404 251 386 211 q 438 365 422 292 l 481 567 q 440 604 469 589 q 368 619 410 619 q 263 579 311 619 q 188 478 215 539 q 144 349 160 417 q 129 222 129 282 q 131 170 129 192 q 140 124 133 149 q 165 85 147 99 q 208 72 182 72 m 371 740 l 357 753 l 533 1036 l 663 1036 q 632 983 658 1007 l 371 740 z "},"â":{"ha":689,"x_min":15,"x_max":629,"o":"m 136 -15 q 15 176 15 -15 q 65 405 15 292 q 213 598 114 518 q 431 678 311 678 q 543 653 489 678 l 599 675 l 607 674 l 506 201 q 493 101 489 149 q 538 54 497 54 q 618 88 558 54 l 629 68 q 458 -12 518 -12 q 424 -6 439 -12 q 403 14 410 0 q 392 39 396 28 q 388 72 388 50 q 390 102 389 93 q 394 132 390 111 l 397 153 l 400 171 l 396 171 q 265 38 335 90 q 136 -15 194 -15 m 208 72 q 342 160 267 72 q 404 251 386 211 q 438 365 422 292 l 481 567 q 440 604 469 589 q 368 619 410 619 q 263 579 311 619 q 188 478 215 539 q 144 349 160 417 q 129 222 129 282 q 131 170 129 192 q 140 124 133 149 q 165 85 147 99 q 208 72 182 72 m 189 740 l 175 753 l 401 1044 l 426 1044 l 604 753 l 586 740 l 404 915 l 189 740 z "},"ã":{"ha":689,"x_min":15,"x_max":635,"o":"m 136 -15 q 15 176 15 -15 q 65 405 15 292 q 213 598 114 518 q 431 678 311 678 q 543 653 489 678 l 599 675 l 607 674 l 506 201 q 493 101 489 149 q 538 54 497 54 q 618 88 558 54 l 629 68 q 458 -12 518 -12 q 424 -6 439 -12 q 403 14 410 0 q 392 39 396 28 q 388 72 388 50 q 390 102 389 93 q 394 132 390 111 l 397 153 l 400 171 l 396 171 q 265 38 335 90 q 136 -15 194 -15 m 208 72 q 342 160 267 72 q 404 251 386 211 q 438 365 422 292 l 481 567 q 440 604 469 589 q 368 619 410 619 q 263 579 311 619 q 188 478 215 539 q 144 349 160 417 q 129 222 129 282 q 131 170 129 192 q 140 124 133 149 q 165 85 147 99 q 208 72 182 72 m 493 890 q 401 904 461 890 q 307 918 340 918 q 261 902 282 918 q 214 839 240 886 l 194 846 q 263 969 231 935 q 336 1003 296 1003 q 428 989 367 1003 q 522 975 489 975 q 568 991 547 975 q 615 1054 589 1007 l 635 1047 q 566 924 599 958 q 493 890 533 890 z "},"ä":{"ha":689,"x_min":15,"x_max":629,"o":"m 136 -15 q 15 176 15 -15 q 65 405 15 292 q 213 598 114 518 q 431 678 311 678 q 543 653 489 678 l 599 675 l 607 674 l 506 201 q 493 101 489 149 q 538 54 497 54 q 618 88 558 54 l 629 68 q 458 -12 518 -12 q 424 -6 439 -12 q 403 14 410 0 q 392 39 396 28 q 388 72 388 50 q 390 102 389 93 q 394 132 390 111 l 397 153 l 400 171 l 396 171 q 265 38 335 90 q 136 -15 194 -15 m 208 72 q 342 160 267 72 q 404 251 386 211 q 438 365 422 292 l 481 567 q 440 604 469 589 q 368 619 410 619 q 263 579 311 619 q 188 478 215 539 q 144 349 160 417 q 129 222 129 282 q 131 170 129 192 q 140 124 133 149 q 165 85 147 99 q 208 72 182 72 m 519 881 q 479 897 494 881 q 464 939 464 914 q 489 1005 464 978 q 550 1032 514 1032 q 592 1017 576 1032 q 608 974 608 1001 q 582 908 608 936 q 519 881 556 881 m 275 881 q 235 897 250 881 q 219 939 219 914 q 244 1005 219 978 q 306 1032 269 1032 q 348 1017 332 1032 q 364 974 364 1001 q 338 908 364 936 q 275 881 311 881 z "},"å":{"ha":689,"x_min":15,"x_max":629,"o":"m 136 -15 q 15 176 15 -15 q 65 405 15 292 q 213 598 114 518 q 431 678 311 678 q 543 653 489 678 l 599 675 l 607 674 l 506 201 q 493 101 489 149 q 538 54 497 54 q 618 88 558 54 l 629 68 q 458 -12 518 -12 q 424 -6 439 -12 q 403 14 410 0 q 392 39 396 28 q 388 72 388 50 q 390 102 389 93 q 394 132 390 111 l 397 153 l 400 171 l 396 171 q 265 38 335 90 q 136 -15 194 -15 m 208 72 q 342 160 267 72 q 404 251 386 211 q 438 365 422 292 l 481 567 q 440 604 469 589 q 368 619 410 619 q 263 579 311 619 q 188 478 215 539 q 144 349 160 417 q 129 222 129 282 q 131 170 129 192 q 140 124 133 149 q 165 85 147 99 q 208 72 182 72 m 375 779 q 303 804 331 779 q 276 871 276 829 q 323 990 276 933 q 439 1047 369 1047 q 512 1021 486 1047 q 538 953 538 994 q 490 835 538 892 q 375 779 443 779 m 382 804 q 448 856 425 804 q 471 956 471 907 q 429 1024 471 1024 q 365 971 388 1024 q 343 869 343 918 q 382 804 343 804 z "},"æ":{"ha":972,"x_min":15,"x_max":926,"o":"m 581 -19 q 450 50 490 -19 q 425 210 410 119 l 396 171 q 265 38 335 90 q 136 -15 194 -15 q 15 176 15 -15 q 65 403 15 289 q 209 597 114 517 q 415 678 304 678 q 518 644 479 678 l 585 675 l 593 674 l 564 564 q 803 679 669 679 q 893 651 860 679 q 926 576 926 622 q 871 454 926 508 q 740 369 815 400 q 531 319 636 326 q 518 204 518 251 q 644 57 518 57 q 839 151 738 57 l 856 132 q 726 20 789 60 q 581 -19 663 -19 m 536 354 q 714 407 642 364 q 783 472 754 432 q 813 557 813 511 q 795 610 813 590 q 749 631 778 631 q 617 538 679 631 q 536 354 554 446 m 208 72 q 342 160 267 72 q 404 251 386 211 q 438 365 422 292 l 481 567 q 440 604 469 589 q 368 619 410 619 q 263 579 311 619 q 188 478 215 539 q 144 349 160 417 q 129 222 129 282 q 131 170 129 192 q 140 124 133 149 q 165 85 147 99 q 208 72 182 72 z "},"ç":{"ha":547,"x_min":15,"x_max":514,"o":"m 156 -289 q 32 -160 67 -289 l 56 -150 q 138 -211 86 -211 q 186 -189 167 -211 q 206 -129 206 -167 q 175 -19 206 -78 q 58 40 100 -15 q 15 190 15 94 q 62 410 15 300 q 196 598 108 521 q 388 675 283 675 q 474 650 433 675 q 514 582 514 625 q 497 538 514 558 q 460 510 481 517 l 451 510 q 405 579 442 546 q 319 613 368 613 q 212 549 258 613 q 146 406 165 486 q 126 253 126 326 q 244 58 126 58 q 424 154 325 58 l 439 133 q 210 -18 318 -3 q 258 -172 258 -104 q 231 -255 258 -221 q 156 -289 204 -289 z "},"è":{"ha":575,"x_min":15,"x_max":529,"o":"m 199 -19 q 63 38 110 -19 q 15 193 15 94 q 65 417 15 306 q 206 603 114 528 q 406 679 297 679 q 496 651 463 679 q 529 576 529 622 q 474 454 529 508 q 343 369 418 400 q 133 319 239 326 q 129 264 129 278 q 158 113 129 169 q 264 57 186 57 q 338 76 300 57 q 394 109 375 94 q 442 151 413 124 l 458 132 q 385 58 415 85 q 304 6 356 32 q 199 -19 253 -19 m 139 354 q 317 407 244 364 q 386 472 357 432 q 415 557 415 511 q 398 610 415 590 q 351 631 381 631 q 219 538 282 631 q 139 354 157 446 m 400 740 l 179 992 q 158 1036 158 1017 l 285 1036 l 418 753 l 400 740 z "},"é":{"ha":575,"x_min":15,"x_max":649,"o":"m 199 -19 q 63 38 110 -19 q 15 193 15 94 q 65 417 15 306 q 206 603 114 528 q 406 679 297 679 q 496 651 463 679 q 529 576 529 622 q 474 454 529 508 q 343 369 418 400 q 133 319 239 326 q 129 264 129 278 q 158 113 129 169 q 264 57 186 57 q 338 76 300 57 q 394 109 375 94 q 442 151 413 124 l 458 132 q 385 58 415 85 q 304 6 356 32 q 199 -19 253 -19 m 139 354 q 317 407 244 364 q 386 472 357 432 q 415 557 415 511 q 398 610 415 590 q 351 631 381 631 q 219 538 282 631 q 139 354 157 446 m 357 740 l 343 753 l 519 1036 l 649 1036 q 618 983 644 1007 l 357 740 z "},"ê":{"ha":575,"x_min":15,"x_max":585,"o":"m 199 -19 q 63 38 110 -19 q 15 193 15 94 q 65 417 15 306 q 206 603 114 528 q 406 679 297 679 q 496 651 463 679 q 529 576 529 622 q 474 454 529 508 q 343 369 418 400 q 133 319 239 326 q 129 264 129 278 q 158 113 129 169 q 264 57 186 57 q 338 76 300 57 q 394 109 375 94 q 442 151 413 124 l 458 132 q 385 58 415 85 q 304 6 356 32 q 199 -19 253 -19 m 139 354 q 317 407 244 364 q 386 472 357 432 q 415 557 415 511 q 398 610 415 590 q 351 631 381 631 q 219 538 282 631 q 139 354 157 446 m 169 740 l 156 753 l 382 1044 l 407 1044 l 585 753 l 567 740 l 385 915 l 169 740 z "},"ë":{"ha":575,"x_min":15,"x_max":586,"o":"m 199 -19 q 63 38 110 -19 q 15 193 15 94 q 65 417 15 306 q 206 603 114 528 q 406 679 297 679 q 496 651 463 679 q 529 576 529 622 q 474 454 529 508 q 343 369 418 400 q 133 319 239 326 q 129 264 129 278 q 158 113 129 169 q 264 57 186 57 q 338 76 300 57 q 394 109 375 94 q 442 151 413 124 l 458 132 q 385 58 415 85 q 304 6 356 32 q 199 -19 253 -19 m 139 354 q 317 407 244 364 q 386 472 357 432 q 415 557 415 511 q 398 610 415 590 q 351 631 381 631 q 219 538 282 631 q 139 354 157 446 m 497 881 q 457 897 472 881 q 442 939 442 914 q 467 1005 442 978 q 528 1032 492 1032 q 570 1017 554 1032 q 586 974 586 1001 q 560 908 586 936 q 497 881 533 881 m 253 881 q 213 897 228 881 q 197 939 197 914 q 222 1005 197 978 q 283 1032 247 1032 q 326 1017 310 1032 q 342 974 342 1001 q 315 908 342 936 q 253 881 289 881 z "},"ì":{"ha":350,"x_min":0,"x_max":285,"o":"m 114 -12 q 61 160 21 -12 q 63 167 63 164 l 143 514 q 111 610 165 610 q 31 576 90 610 l 19 596 q 190 676 131 676 q 240 664 222 676 q 260 626 258 651 q 260 583 263 601 q 250 532 257 564 l 161 150 q 193 54 139 54 q 274 88 214 54 l 285 68 q 114 -12 174 -12 m 242 740 l 21 992 q 0 1036 0 1017 l 126 1036 l 260 753 l 242 740 z "},"í":{"ha":350,"x_min":19,"x_max":446,"o":"m 114 -12 q 61 160 21 -12 q 63 167 63 164 l 143 514 q 111 610 165 610 q 31 576 90 610 l 19 596 q 190 676 131 676 q 240 664 222 676 q 260 626 258 651 q 260 583 263 601 q 250 532 257 564 l 161 150 q 193 54 139 54 q 274 88 214 54 l 285 68 q 114 -12 174 -12 m 154 740 l 140 753 l 317 1036 l 446 1036 q 415 983 442 1007 l 154 740 z "},"î":{"ha":350,"x_min":7,"x_max":436,"o":"m 114 -12 q 61 160 21 -12 q 63 167 63 164 l 143 514 q 111 610 165 610 q 31 576 90 610 l 19 596 q 190 676 131 676 q 240 664 222 676 q 260 626 258 651 q 260 583 263 601 q 250 532 257 564 l 161 150 q 193 54 139 54 q 274 88 214 54 l 285 68 q 114 -12 174 -12 m 21 740 l 7 753 l 233 1044 l 258 1044 l 436 753 l 418 740 l 236 915 l 21 740 z "},"ï":{"ha":350,"x_min":19,"x_max":424,"o":"m 114 -12 q 61 160 21 -12 q 63 167 63 164 l 143 514 q 111 610 165 610 q 31 576 90 610 l 19 596 q 190 676 131 676 q 240 664 222 676 q 260 626 258 651 q 260 583 263 601 q 250 532 257 564 l 161 150 q 193 54 139 54 q 274 88 214 54 l 285 68 q 114 -12 174 -12 m 335 881 q 294 897 310 881 q 279 939 279 914 q 304 1005 279 978 q 365 1032 329 1032 q 408 1017 392 1032 q 424 974 424 1001 q 397 908 424 936 q 335 881 371 881 m 90 881 q 50 897 65 881 q 35 939 35 914 q 60 1005 35 978 q 121 1032 85 1032 q 163 1017 147 1032 q 179 974 179 1001 q 153 908 179 936 q 90 881 126 881 z "},"ð":{"ha":613,"x_min":10,"x_max":554,"o":"m 174 763 l 160 803 l 328 874 q 169 1006 264 958 l 179 1029 q 392 900 308 981 l 540 963 l 554 922 l 424 868 q 544 529 544 731 q 504 272 544 396 q 381 65 464 149 q 189 -19 297 -19 q 54 42 99 -19 q 10 200 10 104 q 46 415 10 310 q 163 596 82 519 q 353 672 244 672 q 415 665 389 672 q 351 838 396 764 l 174 763 m 428 528 q 426 567 428 554 q 322 617 388 617 q 222 576 264 617 q 161 475 181 536 q 134 363 142 414 q 126 268 126 311 q 225 31 126 31 q 323 84 281 31 q 387 219 365 138 q 418 380 408 301 q 428 528 428 458 z "},"ñ":{"ha":732,"x_min":15,"x_max":665,"o":"m 494 -12 q 457 -5 472 -12 q 436 22 442 3 q 427 51 431 40 q 428 92 424 63 q 434 126 433 121 q 442 160 435 132 q 443 167 443 164 l 506 429 q 516 480 513 460 q 519 529 519 500 q 501 574 518 558 q 451 590 485 590 q 300 507 383 590 q 235 426 254 461 q 203 332 215 392 l 132 0 l 29 0 l 140 514 q 107 610 163 610 q 26 576 86 610 l 15 596 q 186 676 126 676 q 239 532 272 676 l 228 478 l 231 478 q 385 624 306 569 q 528 679 464 679 q 608 648 582 679 q 633 569 633 617 q 610 438 633 540 l 543 150 q 574 54 521 54 q 654 88 594 54 l 665 68 q 494 -12 554 -12 m 496 890 q 403 904 464 890 q 310 918 343 918 q 264 902 285 918 q 217 839 243 886 l 197 846 q 266 969 233 935 q 339 1003 299 1003 q 431 989 369 1003 q 525 975 492 975 q 571 991 550 975 q 618 1054 592 1007 l 638 1047 q 569 924 601 958 q 496 890 536 890 z "},"ò":{"ha":622,"x_min":8,"x_max":564,"o":"m 203 -25 q 58 38 108 -25 q 8 211 8 100 q 34 373 8 290 q 105 525 60 456 q 219 639 150 594 q 365 683 288 683 q 515 617 465 683 q 564 440 564 551 q 519 230 564 336 q 390 49 475 124 q 203 -25 304 -25 m 224 14 q 326 62 281 14 q 395 181 371 110 q 432 322 419 253 q 444 446 444 392 q 340 644 444 644 q 241 596 285 644 q 174 474 197 547 q 140 332 151 401 q 128 208 128 263 q 224 14 128 14 m 350 740 l 129 992 q 108 1036 108 1017 l 235 1036 l 368 753 l 350 740 z "},"ó":{"ha":622,"x_min":8,"x_max":633,"o":"m 203 -25 q 58 38 108 -25 q 8 211 8 100 q 34 373 8 290 q 105 525 60 456 q 219 639 150 594 q 365 683 288 683 q 515 617 465 683 q 564 440 564 551 q 519 230 564 336 q 390 49 475 124 q 203 -25 304 -25 m 224 14 q 326 62 281 14 q 395 181 371 110 q 432 322 419 253 q 444 446 444 392 q 340 644 444 644 q 241 596 285 644 q 174 474 197 547 q 140 332 151 401 q 128 208 128 263 q 224 14 128 14 m 342 740 l 328 753 l 504 1036 l 633 1036 q 603 983 629 1007 l 342 740 z "},"ô":{"ha":622,"x_min":8,"x_max":568,"o":"m 203 -25 q 58 38 108 -25 q 8 211 8 100 q 34 373 8 290 q 105 525 60 456 q 219 639 150 594 q 365 683 288 683 q 515 617 465 683 q 564 440 564 551 q 519 230 564 336 q 390 49 475 124 q 203 -25 304 -25 m 224 14 q 326 62 281 14 q 395 181 371 110 q 432 322 419 253 q 444 446 444 392 q 340 644 444 644 q 241 596 285 644 q 174 474 197 547 q 140 332 151 401 q 128 208 128 263 q 224 14 128 14 m 153 740 l 139 753 l 365 1044 l 390 1044 l 568 753 l 550 740 l 368 915 l 153 740 z "},"õ":{"ha":622,"x_min":8,"x_max":613,"o":"m 203 -25 q 58 38 108 -25 q 8 211 8 100 q 34 373 8 290 q 105 525 60 456 q 219 639 150 594 q 365 683 288 683 q 515 617 465 683 q 564 440 564 551 q 519 230 564 336 q 390 49 475 124 q 203 -25 304 -25 m 224 14 q 326 62 281 14 q 395 181 371 110 q 432 322 419 253 q 444 446 444 392 q 340 644 444 644 q 241 596 285 644 q 174 474 197 547 q 140 332 151 401 q 128 208 128 263 q 224 14 128 14 m 471 890 q 378 904 439 890 q 285 918 318 918 q 239 902 260 918 q 192 839 218 886 l 172 846 q 241 969 208 935 q 314 1003 274 1003 q 406 989 344 1003 q 500 975 467 975 q 546 991 525 975 q 593 1054 567 1007 l 613 1047 q 544 924 576 958 q 471 890 511 890 z "},"ö":{"ha":622,"x_min":8,"x_max":610,"o":"m 203 -25 q 58 38 108 -25 q 8 211 8 100 q 34 373 8 290 q 105 525 60 456 q 219 639 150 594 q 365 683 288 683 q 515 617 465 683 q 564 440 564 551 q 519 230 564 336 q 390 49 475 124 q 203 -25 304 -25 m 224 14 q 326 62 281 14 q 395 181 371 110 q 432 322 419 253 q 444 446 444 392 q 340 644 444 644 q 241 596 285 644 q 174 474 197 547 q 140 332 151 401 q 128 208 128 263 q 224 14 128 14 m 521 881 q 481 897 496 881 q 465 939 465 914 q 490 1005 465 978 q 551 1032 515 1032 q 594 1017 578 1032 q 610 974 610 1001 q 583 908 610 936 q 521 881 557 881 m 276 881 q 236 897 251 881 q 221 939 221 914 q 246 1005 221 978 q 307 1032 271 1032 q 349 1017 333 1032 q 365 974 365 1001 q 339 908 365 936 q 276 881 313 881 z "},"÷":{"ha":708,"x_min":1,"x_max":663,"o":"m 381 551 q 369 541 381 551 q 332 532 357 532 q 283 551 307 532 q 260 603 260 569 q 281 656 260 633 q 332 678 303 678 q 383 656 361 678 q 406 603 406 633 q 381 551 406 569 m 1 289 l 1 375 l 663 375 l 663 289 l 1 289 m 381 6 q 369 -3 381 6 q 332 -12 357 -12 q 283 6 307 -12 q 260 58 260 25 q 281 110 260 89 q 332 132 303 132 q 383 110 361 132 q 406 58 406 89 q 381 6 406 25 z "},"ø":{"ha":622,"x_min":-119,"x_max":697,"o":"m -87 -103 l -119 -71 l 29 88 q 8 211 8 139 q 34 373 8 290 q 105 525 60 456 q 219 639 150 594 q 365 683 288 683 q 519 610 468 683 l 665 765 l 697 733 l 542 568 q 564 440 564 515 q 519 230 564 336 q 390 49 475 124 q 203 -25 304 -25 q 51 46 101 -25 l -87 -103 m 128 193 l 440 525 q 340 644 425 644 q 241 596 285 644 q 174 474 197 547 q 140 332 151 401 q 128 208 128 263 l 128 193 m 224 14 q 326 62 281 14 q 395 181 371 110 q 432 322 419 253 q 444 446 444 392 l 444 464 l 133 132 q 224 14 151 14 z "},"ù":{"ha":724,"x_min":17,"x_max":654,"o":"m 150 -19 q 74 12 99 -19 q 50 90 50 43 q 72 222 50 129 l 140 514 q 108 610 163 610 q 28 576 88 610 l 17 596 q 188 676 128 676 q 238 664 219 676 q 258 627 256 651 q 258 583 261 603 q 249 532 256 563 l 178 231 q 169 192 172 206 q 165 151 167 178 q 169 109 164 124 q 188 82 174 94 q 228 69 203 69 q 368 154 283 69 q 433 233 414 201 q 464 328 451 265 l 535 653 l 638 653 l 529 150 q 563 54 507 54 q 643 88 583 54 l 654 68 q 483 -12 543 -12 q 455 -7 467 -12 q 436 6 443 -1 q 425 27 429 14 q 420 51 421 40 q 421 76 419 61 q 423 99 422 92 q 426 119 424 107 l 429 132 l 439 182 l 436 182 q 150 -19 272 -19 m 397 740 l 176 992 q 156 1036 156 1017 l 282 1036 l 415 753 l 397 740 z "},"ú":{"ha":724,"x_min":17,"x_max":674,"o":"m 150 -19 q 74 12 99 -19 q 50 90 50 43 q 72 222 50 129 l 140 514 q 108 610 163 610 q 28 576 88 610 l 17 596 q 188 676 128 676 q 238 664 219 676 q 258 627 256 651 q 258 583 261 603 q 249 532 256 563 l 178 231 q 169 192 172 206 q 165 151 167 178 q 169 109 164 124 q 188 82 174 94 q 228 69 203 69 q 368 154 283 69 q 433 233 414 201 q 464 328 451 265 l 535 653 l 638 653 l 529 150 q 563 54 507 54 q 643 88 583 54 l 654 68 q 483 -12 543 -12 q 455 -7 467 -12 q 436 6 443 -1 q 425 27 429 14 q 420 51 421 40 q 421 76 419 61 q 423 99 422 92 q 426 119 424 107 l 429 132 l 439 182 l 436 182 q 150 -19 272 -19 m 382 740 l 368 753 l 544 1036 l 674 1036 q 643 983 669 1007 l 382 740 z "},"û":{"ha":724,"x_min":17,"x_max":654,"o":"m 150 -19 q 74 12 99 -19 q 50 90 50 43 q 72 222 50 129 l 140 514 q 108 610 163 610 q 28 576 88 610 l 17 596 q 188 676 128 676 q 238 664 219 676 q 258 627 256 651 q 258 583 261 603 q 249 532 256 563 l 178 231 q 169 192 172 206 q 165 151 167 178 q 169 109 164 124 q 188 82 174 94 q 228 69 203 69 q 368 154 283 69 q 433 233 414 201 q 464 328 451 265 l 535 653 l 638 653 l 529 150 q 563 54 507 54 q 643 88 583 54 l 654 68 q 483 -12 543 -12 q 455 -7 467 -12 q 436 6 443 -1 q 425 27 429 14 q 420 51 421 40 q 421 76 419 61 q 423 99 422 92 q 426 119 424 107 l 429 132 l 439 182 l 436 182 q 150 -19 272 -19 m 161 740 l 147 753 l 374 1044 l 399 1044 l 576 753 l 558 740 l 376 915 l 161 740 z "},"ü":{"ha":724,"x_min":17,"x_max":654,"o":"m 150 -19 q 74 12 99 -19 q 50 90 50 43 q 72 222 50 129 l 140 514 q 108 610 163 610 q 28 576 88 610 l 17 596 q 188 676 128 676 q 238 664 219 676 q 258 627 256 651 q 258 583 261 603 q 249 532 256 563 l 178 231 q 169 192 172 206 q 165 151 167 178 q 169 109 164 124 q 188 82 174 94 q 228 69 203 69 q 368 154 283 69 q 433 233 414 201 q 464 328 451 265 l 535 653 l 638 653 l 529 150 q 563 54 507 54 q 643 88 583 54 l 654 68 q 483 -12 543 -12 q 455 -7 467 -12 q 436 6 443 -1 q 425 27 429 14 q 420 51 421 40 q 421 76 419 61 q 423 99 422 92 q 426 119 424 107 l 429 132 l 439 182 l 436 182 q 150 -19 272 -19 m 536 881 q 496 897 511 881 q 481 939 481 914 q 506 1005 481 978 q 567 1032 531 1032 q 609 1017 593 1032 q 625 974 625 1001 q 599 908 625 936 q 536 881 572 881 m 292 881 q 251 897 267 881 q 236 939 236 914 q 261 1005 236 978 q 322 1032 286 1032 q 365 1017 349 1032 q 381 974 381 1001 q 354 908 381 936 q 292 881 328 881 z "},"ý":{"ha":642,"x_min":-226,"x_max":614,"o":"m 586 564 q 435 88 586 360 q 335 -68 385 -1 q 220 -196 286 -135 q 72 -290 154 -257 q -106 -322 -11 -322 q -194 -299 -161 -322 q -226 -236 -226 -276 q -179 -150 -226 -176 l -165 -150 q -101 -226 -147 -197 q -4 -256 -54 -256 q 173 -185 104 -256 q 242 -7 242 -115 q 183 346 242 75 q 128 557 150 504 q 71 610 107 610 q -12 576 40 610 l -24 596 q 147 676 88 676 q 226 606 199 676 q 282 376 244 558 q 333 54 333 129 q 332 6 333 15 l 336 6 q 493 461 493 239 q 422 614 493 576 l 422 626 q 503 679 450 679 q 564 649 542 679 q 586 564 586 618 m 322 740 l 308 753 l 485 1036 l 614 1036 q 583 983 610 1007 l 322 740 z "},"þ":{"ha":664,"x_min":-124,"x_max":606,"o":"m 606 449 q 485 135 606 278 q 207 -8 364 -8 q 142 0 164 -8 l 106 -178 q 99 -263 93 -249 q 140 -286 106 -278 l 210 -303 l 208 -318 l -124 -318 l -122 -303 l -72 -290 q -24 -264 -36 -282 q 3 -178 -11 -246 l 171 607 q 21 528 121 589 l 4 560 q 179 647 88 617 l 225 865 q 234 951 239 935 q 194 975 229 968 l 144 986 l 144 1003 l 354 1036 l 363 1032 l 283 664 q 360 669 317 669 q 538 613 469 669 q 606 449 606 556 m 492 428 q 451 570 492 513 q 333 628 410 628 q 276 625 294 628 l 160 81 q 199 60 171 69 q 251 50 226 50 q 384 110 328 50 q 466 253 440 169 q 492 428 492 338 z "},"ÿ":{"ha":642,"x_min":-226,"x_max":586,"o":"m 586 564 q 435 88 586 360 q 335 -68 385 -1 q 220 -196 286 -135 q 72 -290 154 -257 q -106 -322 -11 -322 q -194 -299 -161 -322 q -226 -236 -226 -276 q -179 -150 -226 -176 l -165 -150 q -101 -226 -147 -197 q -4 -256 -54 -256 q 173 -185 104 -256 q 242 -7 242 -115 q 183 346 242 75 q 128 557 150 504 q 71 610 107 610 q -12 576 40 610 l -24 596 q 147 676 88 676 q 226 606 199 676 q 282 376 244 558 q 333 54 333 129 q 332 6 333 15 l 336 6 q 493 461 493 239 q 422 614 493 576 l 422 626 q 503 679 450 679 q 564 649 542 679 q 586 564 586 618 m 446 881 q 406 897 421 881 q 390 939 390 914 q 415 1005 390 978 q 476 1032 440 1032 q 519 1017 503 1032 q 535 974 535 1001 q 508 908 535 936 q 446 881 482 881 m 201 881 q 161 897 176 881 q 146 939 146 914 q 171 1005 146 978 q 232 1032 196 1032 q 274 1017 258 1032 q 290 974 290 1001 q 264 908 290 936 q 201 881 238 881 z "},"İ":{"ha":461,"x_min":-46,"x_max":501,"o":"m -46 0 l -43 14 l 7 29 q 71 67 56 43 q 104 176 86 90 l 228 760 q 242 873 247 849 q 196 908 236 897 l 143 924 l 146 938 l 501 938 l 499 924 l 449 908 q 385 871 400 894 q 351 761 369 847 l 228 178 q 214 65 208 89 q 260 29 219 40 l 313 14 l 310 0 l -46 0 m 342 1075 q 299 1090 315 1075 q 283 1131 283 1106 q 310 1193 283 1167 q 374 1219 336 1219 q 417 1204 400 1219 q 435 1164 435 1189 q 406 1102 435 1129 q 342 1075 378 1075 z "},"ı":{"ha":350,"x_min":19,"x_max":285,"o":"m 114 -12 q 61 160 21 -12 q 63 167 63 164 l 143 514 q 111 610 165 610 q 31 576 90 610 l 19 596 q 190 676 131 676 q 240 664 222 676 q 260 626 258 651 q 260 583 263 601 q 250 532 257 564 l 161 150 q 193 54 139 54 q 274 88 214 54 l 285 68 q 114 -12 174 -12 z "},"Ŀ":{"ha":693,"x_min":-40,"x_max":668,"o":"m -40 0 l -37 14 l 13 29 q 76 67 61 43 q 110 176 92 90 l 233 760 q 247 873 253 849 q 201 908 242 897 l 149 924 l 151 938 l 535 938 l 532 924 l 468 908 q 395 870 417 896 q 357 761 374 844 l 238 199 q 227 75 218 100 q 281 50 236 50 l 353 50 q 503 73 450 50 q 588 150 557 96 l 628 222 l 651 214 l 568 0 l -40 0 m 558 399 q 510 418 528 399 q 492 467 492 438 q 523 539 492 508 q 597 569 554 569 q 648 551 628 569 q 668 501 668 532 q 635 429 668 460 q 558 399 601 399 z "},"ŀ":{"ha":333,"x_min":35,"x_max":504,"o":"m 101 -12 q 53 3 69 -12 q 35 50 36 19 q 38 101 35 81 q 47 154 40 122 q 50 167 49 163 l 200 865 q 209 951 214 935 q 169 975 204 968 l 119 986 l 119 1003 l 329 1036 l 338 1032 l 149 150 q 181 54 129 54 q 261 88 201 54 l 272 68 q 101 -12 161 -12 m 394 253 q 346 272 364 253 q 328 321 328 292 q 359 393 328 363 q 433 424 390 424 q 484 405 464 424 q 504 356 504 386 q 471 283 504 314 q 394 253 438 253 z "},"Ł":{"ha":693,"x_min":-40,"x_max":651,"o":"m -40 0 l -37 14 l 13 29 q 76 67 61 43 q 110 176 92 90 l 157 403 l 57 360 l 36 408 l 171 467 l 233 760 q 247 873 253 849 q 201 908 242 897 l 149 924 l 151 938 l 535 938 l 532 924 l 468 908 q 395 870 417 896 q 357 761 374 844 l 307 525 l 561 636 l 582 588 l 293 463 l 238 199 q 227 75 218 100 q 281 50 236 50 l 353 50 q 503 73 450 50 q 588 150 557 96 l 628 222 l 651 214 l 568 0 l -40 0 z "},"ł":{"ha":328,"x_min":-8,"x_max":393,"o":"m 101 -12 q 53 3 69 -12 q 35 50 36 19 q 38 101 35 81 q 47 154 40 122 q 50 167 49 163 l 119 483 l 13 433 l -8 472 l 131 539 l 200 865 q 209 951 214 935 q 169 975 204 968 l 119 986 l 119 1003 l 329 1036 l 338 1032 l 244 593 l 371 653 l 393 614 l 232 538 l 149 150 q 181 54 129 54 q 261 88 201 54 l 272 68 q 101 -12 161 -12 z "},"Œ":{"ha":1282,"x_min":39,"x_max":1310,"o":"m 1310 938 l 1274 764 l 1253 764 l 1251 818 q 1219 874 1250 861 q 1085 888 1189 888 l 839 888 q 953 600 953 790 q 947 521 953 556 l 999 521 q 1117 529 1090 521 q 1161 575 1144 538 l 1185 625 l 1206 625 l 1150 358 l 1129 358 l 1129 414 q 1105 462 1129 453 q 990 471 1081 471 l 939 471 q 833 229 910 342 q 646 50 757 117 l 919 50 q 1067 69 1017 50 q 1147 132 1117 88 l 1186 189 l 1208 185 l 1132 0 l 535 0 q 389 -22 461 -22 q 128 72 218 -22 q 39 335 39 167 q 110 626 39 483 q 315 866 182 769 q 604 963 447 963 q 753 938 689 963 l 1310 938 m 817 639 q 752 849 817 776 q 592 921 688 921 q 441 878 511 921 q 324 769 371 836 q 242 617 276 701 q 192 452 208 533 q 176 299 176 371 q 239 91 176 161 q 400 21 301 21 q 552 63 482 21 q 670 171 622 104 q 752 321 718 238 q 801 485 786 404 q 817 639 817 567 z "},"œ":{"ha":990,"x_min":8,"x_max":944,"o":"m 203 -25 q 58 38 108 -25 q 8 211 8 100 q 34 373 8 290 q 105 525 60 456 q 219 639 150 594 q 365 683 288 683 q 549 525 517 683 q 821 679 663 679 q 911 651 878 679 q 944 576 944 622 q 889 454 944 508 q 758 369 833 400 q 549 319 654 326 q 544 264 544 278 q 573 113 544 169 q 679 57 601 57 q 753 76 715 57 q 809 109 790 94 q 857 151 828 124 l 874 132 q 801 58 831 85 q 719 6 771 32 q 614 -19 668 -19 q 446 113 478 -19 q 203 -25 342 -25 m 554 354 q 732 407 660 364 q 801 472 772 432 q 831 557 831 511 q 813 610 831 590 q 767 631 796 631 q 635 538 697 631 q 554 354 572 446 m 224 14 q 326 62 281 14 q 395 181 371 110 q 432 322 419 253 q 444 446 444 392 q 340 644 444 644 q 241 596 285 644 q 174 474 197 547 q 140 332 151 401 q 128 208 128 263 q 224 14 128 14 z "},"Š":{"ha":643,"x_min":-7,"x_max":667,"o":"m 650 969 l 596 717 l 574 717 l 572 788 q 533 869 571 835 q 418 904 494 904 q 285 859 338 904 q 233 747 233 814 q 237 708 233 726 q 251 673 240 690 q 270 644 263 656 q 297 616 278 633 q 326 591 317 599 q 363 563 336 583 q 399 536 389 543 q 515 417 478 475 q 551 289 551 360 q 451 63 551 147 q 201 -21 350 -21 q 89 -8 150 -21 q -7 24 28 6 l 6 218 l 29 224 l 42 151 q 110 61 53 90 q 233 32 167 32 q 378 83 313 32 q 444 229 444 135 q 417 322 444 278 q 365 387 389 365 q 269 463 340 408 q 254 475 260 471 q 136 688 136 565 q 228 885 136 813 q 444 957 321 957 q 539 947 489 957 q 613 940 601 935 q 624 953 619 943 l 632 969 l 650 969 m 404 996 l 238 1288 l 256 1300 l 431 1125 l 653 1300 l 667 1288 l 429 996 l 404 996 z "},"š":{"ha":486,"x_min":-32,"x_max":544,"o":"m 125 -19 q 13 5 58 -19 q -32 69 -32 29 q 25 153 -32 121 l 36 153 q 81 69 43 107 q 174 31 118 31 q 261 63 224 31 q 299 144 299 94 q 274 217 299 183 q 179 307 249 251 q 101 384 129 347 q 72 471 72 421 q 140 617 72 561 q 299 674 208 674 q 391 651 346 674 q 436 586 436 629 q 419 541 436 560 q 385 515 403 522 l 375 515 q 334 592 369 556 q 251 628 299 628 q 180 602 208 628 q 151 535 151 576 q 153 517 151 526 q 158 501 156 508 q 167 485 161 494 q 176 471 172 476 q 190 456 181 465 q 203 442 199 447 q 218 428 207 438 q 233 416 229 419 q 249 403 238 413 q 264 392 261 393 q 351 305 321 346 q 382 208 382 264 q 302 45 382 110 q 125 -19 222 -19 m 282 738 l 115 1029 l 133 1042 l 308 867 l 531 1042 l 544 1029 l 307 738 l 282 738 z "},"Ÿ":{"ha":769,"x_min":56,"x_max":893,"o":"m 893 928 q 878 881 893 901 q 849 854 864 861 l 839 854 q 779 886 818 886 q 611 746 708 886 q 486 528 543 647 q 410 317 429 408 l 381 178 q 367 65 361 89 q 413 29 372 40 l 465 14 l 463 0 l 107 0 l 110 14 l 160 29 q 224 67 208 43 q 257 176 239 90 l 289 328 q 278 592 307 417 q 200 839 250 768 q 144 874 176 874 q 67 842 124 874 l 56 865 q 235 946 168 946 q 338 854 304 946 q 387 645 367 776 q 403 443 407 514 q 572 785 450 599 q 817 994 713 994 q 870 976 847 994 q 893 928 893 957 m 621 1064 q 581 1081 596 1064 q 565 1122 565 1097 q 590 1188 565 1161 q 651 1215 615 1215 q 694 1200 678 1215 q 710 1157 710 1185 q 683 1092 710 1119 q 621 1064 657 1064 m 376 1064 q 336 1081 351 1064 q 321 1122 321 1097 q 346 1188 321 1161 q 407 1215 371 1215 q 449 1200 433 1215 q 465 1157 465 1185 q 439 1092 465 1119 q 376 1064 413 1064 z "},"Ž":{"ha":746,"x_min":-121,"x_max":807,"o":"m 807 953 l 71 122 l 72 118 q 144 135 113 135 q 333 116 193 135 q 504 97 474 97 q 585 128 558 97 q 654 251 613 158 l 681 249 q 658 161 669 197 q 624 78 646 125 q 571 7 603 32 q 497 -18 539 -18 q 290 19 454 -18 q 60 56 125 56 q -62 -1 -3 56 l -100 -36 l -121 -14 l 615 817 l 614 821 q 542 804 574 804 q 396 820 493 804 q 268 836 299 836 q 190 809 214 836 q 126 693 167 782 l 100 696 q 120 776 110 743 q 151 856 131 810 q 202 926 171 901 q 275 951 233 951 q 440 917 318 951 q 626 883 561 883 q 749 940 689 883 l 786 975 l 807 953 m 481 996 l 314 1288 l 332 1300 l 507 1125 l 729 1300 l 743 1288 l 506 996 l 481 996 z "},"ž":{"ha":575,"x_min":-56,"x_max":568,"o":"m 521 629 l 81 101 l 81 100 q 133 108 111 108 q 255 70 174 108 q 375 32 336 32 q 421 48 406 32 q 436 83 436 64 q 419 121 436 104 q 381 140 401 138 l 376 150 q 433 189 390 189 q 483 167 463 189 q 503 113 503 146 q 446 13 503 50 q 325 -25 389 -25 q 178 8 263 -25 q 60 40 94 40 q 0 24 21 40 l -33 -3 l -56 17 l 393 544 l 393 546 q 343 538 363 538 q 242 568 303 538 q 160 599 181 599 q 126 586 139 599 q 113 556 113 574 q 168 500 113 517 l 169 490 q 117 458 157 458 q 75 475 94 458 q 56 524 56 492 q 103 617 56 575 q 218 658 150 658 q 307 640 253 658 q 382 617 361 621 q 465 622 442 604 l 499 649 l 521 629 m 306 738 l 139 1029 l 157 1042 l 332 867 l 554 1042 l 568 1029 l 331 738 l 306 738 z "},"ƒ":{"ha":708,"x_min":-121,"x_max":760,"o":"m -25 -250 q -90 -232 -60 -250 q -121 -181 -121 -214 q -108 -142 -121 -160 q -78 -118 -96 -125 l -67 -118 q -33 -169 -58 -144 q 35 -193 -7 -193 q 219 90 186 -193 l 269 526 l 97 526 l 97 578 l 278 578 l 282 604 q 411 850 304 739 q 642 961 518 961 q 723 940 686 961 q 760 879 760 919 q 744 833 760 856 q 707 803 729 810 l 697 803 q 656 866 689 835 q 574 897 622 897 q 456 824 493 897 q 401 621 419 751 l 396 578 l 604 578 l 604 526 l 390 526 l 349 215 q 312 54 338 131 q 243 -94 286 -22 q 131 -208 200 -165 q -25 -250 61 -250 z "},"ˆ":{"ha":708,"x_min":140,"x_max":569,"o":"m 154 740 l 140 753 l 367 1044 l 392 1044 l 569 753 l 551 740 l 369 915 l 154 740 z "},"̂":{"ha":708,"x_min":140,"x_max":569,"o":"m 154 740 l 140 753 l 367 1044 l 392 1044 l 569 753 l 551 740 l 369 915 l 154 740 z "},"ˇ":{"ha":708,"x_min":140,"x_max":569,"o":"m 307 738 l 140 1029 l 158 1042 l 333 867 l 556 1042 l 569 1029 l 332 738 l 307 738 z "},"̌":{"ha":708,"x_min":140,"x_max":569,"o":"m 307 738 l 140 1029 l 158 1042 l 333 867 l 556 1042 l 569 1029 l 332 738 l 307 738 z "},"˘":{"ha":708,"x_min":172,"x_max":536,"o":"m 325 840 q 267 851 299 840 q 203 902 235 863 q 172 1001 172 942 q 175 1029 172 1010 l 201 1029 q 346 931 193 931 q 507 1029 469 931 l 536 1029 q 481 915 518 960 q 406 856 444 871 q 325 840 368 840 z "},"̆":{"ha":708,"x_min":172,"x_max":536,"o":"m 325 840 q 267 851 299 840 q 203 902 235 863 q 172 1001 172 942 q 175 1029 172 1010 l 201 1029 q 346 931 193 931 q 507 1029 469 931 l 536 1029 q 481 915 518 960 q 406 856 444 871 q 325 840 368 840 z "},"˙":{"ha":708,"x_min":279,"x_max":431,"o":"m 338 881 q 295 896 311 881 q 279 936 279 911 q 306 999 279 972 q 369 1025 332 1025 q 413 1010 396 1025 q 431 969 431 994 q 402 908 431 935 q 338 881 374 881 z "},"̇":{"ha":708,"x_min":279,"x_max":431,"o":"m 338 881 q 295 896 311 881 q 279 936 279 911 q 306 999 279 972 q 369 1025 332 1025 q 413 1010 396 1025 q 431 969 431 994 q 402 908 431 935 q 338 881 374 881 z "},"˚":{"ha":708,"x_min":224,"x_max":485,"o":"m 322 779 q 251 804 278 779 q 224 871 224 829 q 270 990 224 933 q 386 1047 317 1047 q 459 1021 433 1047 q 485 953 485 994 q 438 835 485 892 q 322 779 390 779 m 329 804 q 395 856 372 804 q 418 956 418 907 q 376 1024 418 1024 q 313 971 335 1024 q 290 869 290 918 q 329 804 290 804 z "},"̊":{"ha":708,"x_min":224,"x_max":485,"o":"m 322 779 q 251 804 278 779 q 224 871 224 829 q 270 990 224 933 q 386 1047 317 1047 q 459 1021 433 1047 q 485 953 485 994 q 438 835 485 892 q 322 779 390 779 m 329 804 q 395 856 372 804 q 418 956 418 907 q 376 1024 418 1024 q 313 971 335 1024 q 290 869 290 918 q 329 804 290 804 z "},"˛":{"ha":708,"x_min":226,"x_max":481,"o":"m 319 -289 q 251 -264 276 -289 q 226 -201 226 -239 q 276 -94 226 -147 q 439 46 325 -40 l 456 24 q 344 -79 374 -42 q 314 -160 314 -117 q 330 -204 314 -187 q 375 -221 346 -221 q 461 -176 425 -221 l 481 -192 q 319 -289 410 -289 z "},"̨":{"ha":708,"x_min":226,"x_max":481,"o":"m 319 -289 q 251 -264 276 -289 q 226 -201 226 -239 q 276 -94 226 -147 q 439 46 325 -40 l 456 24 q 344 -79 374 -42 q 314 -160 314 -117 q 330 -204 314 -187 q 375 -221 346 -221 q 461 -176 425 -221 l 481 -192 q 319 -289 410 -289 z "},"˜":{"ha":708,"x_min":129,"x_max":569,"o":"m 428 890 q 335 904 396 890 q 242 918 275 918 q 196 902 217 918 q 149 839 175 886 l 129 846 q 198 969 165 935 q 271 1003 231 1003 q 361 989 300 1003 q 457 975 422 975 q 503 991 482 975 q 550 1054 524 1007 l 569 1047 q 501 924 533 958 q 428 890 468 890 z "},"̃":{"ha":708,"x_min":129,"x_max":569,"o":"m 428 890 q 335 904 396 890 q 242 918 275 918 q 196 902 217 918 q 149 839 175 886 l 129 846 q 198 969 165 935 q 271 1003 231 1003 q 361 989 300 1003 q 457 975 422 975 q 503 991 482 975 q 550 1054 524 1007 l 569 1047 q 501 924 533 958 q 428 890 468 890 z "},"˝":{"ha":708,"x_min":81,"x_max":628,"o":"m 94 740 l 81 753 l 267 1036 l 396 1036 q 364 983 389 1006 l 94 740 m 326 740 l 313 753 l 499 1036 l 628 1036 q 596 983 621 1006 l 326 740 z "},"̋":{"ha":708,"x_min":81,"x_max":628,"o":"m 94 740 l 81 753 l 267 1036 l 396 1036 q 364 983 389 1006 l 94 740 m 326 740 l 313 753 l 499 1036 l 628 1036 q 596 983 621 1006 l 326 740 z "},"π":{"ha":899,"x_min":39,"x_max":900,"o":"m 586 -15 q 517 20 539 -15 q 501 134 496 56 q 538 338 506 213 l 592 550 l 408 550 l 250 0 l 124 0 q 322 457 256 261 l 353 550 l 308 550 q 61 411 151 550 l 39 424 q 168 607 101 550 q 354 664 235 664 l 717 664 q 839 704 814 664 l 883 774 l 900 768 l 831 550 l 649 550 l 604 338 q 663 97 553 97 q 769 146 711 97 l 788 129 q 586 -15 681 -15 z "},"–":{"ha":708,"x_min":17,"x_max":692,"o":"m 17 368 l 32 435 l 692 435 l 676 368 l 17 368 z "},"—":{"ha":1389,"x_min":17,"x_max":1374,"o":"m 17 369 l 32 435 l 1374 435 l 1358 369 l 17 369 z "},"‘":{"ha":354,"x_min":135,"x_max":372,"o":"m 228 632 q 161 664 188 632 q 135 740 135 696 q 356 1017 135 911 l 372 989 q 214 810 214 911 q 242 749 214 772 q 303 733 269 726 l 310 728 q 291 660 313 689 q 228 632 269 632 z "},"’":{"ha":354,"x_min":106,"x_max":342,"o":"m 122 633 l 106 661 q 263 840 263 738 q 235 901 263 878 q 175 917 208 924 l 168 922 q 187 990 165 961 q 250 1018 208 1018 q 316 986 290 1018 q 342 910 342 954 q 122 633 342 738 z "},"‚":{"ha":354,"x_min":-61,"x_max":175,"o":"m -44 -193 l -61 -165 q 96 14 96 -89 q 69 74 96 51 q 8 90 42 97 l 1 96 q 20 163 -1 135 q 83 192 42 192 q 149 160 124 192 q 175 83 175 128 q -44 -193 175 -89 z "},"“":{"ha":632,"x_min":146,"x_max":647,"o":"m 239 632 q 172 664 199 632 q 146 740 146 696 q 367 1017 146 911 l 383 989 q 225 810 225 911 q 253 749 225 772 q 314 733 281 726 l 321 728 q 302 660 324 689 q 239 632 281 632 m 503 632 q 436 664 463 632 q 410 740 410 696 q 631 1017 410 911 l 647 989 q 489 810 489 911 q 517 749 489 772 q 578 733 544 726 l 585 728 q 566 660 588 689 q 503 632 544 632 z "},"”":{"ha":632,"x_min":110,"x_max":610,"o":"m 390 633 l 372 661 q 531 840 531 739 q 503 901 531 878 q 443 917 476 924 l 436 922 q 455 990 433 961 q 518 1018 476 1018 q 584 986 558 1018 q 610 910 610 954 q 390 633 610 738 m 126 633 l 110 661 q 267 840 267 738 q 240 901 267 878 q 179 917 213 924 l 172 922 q 191 990 169 961 q 254 1018 213 1018 q 320 986 294 1018 q 346 910 346 954 q 126 633 346 738 z "},"„":{"ha":632,"x_min":-61,"x_max":439,"o":"m 219 -193 l 201 -165 q 360 14 360 -87 q 333 74 360 51 q 272 90 306 97 l 265 96 q 284 163 263 135 q 347 192 306 192 q 413 160 388 192 q 439 83 439 128 q 219 -193 439 -89 m -44 -193 l -61 -165 q 96 14 96 -89 q 69 74 96 51 q 8 90 42 97 l 1 96 q 20 163 -1 135 q 83 192 42 192 q 149 160 124 192 q 175 83 175 128 q -44 -193 175 -89 z "},"†":{"ha":708,"x_min":74,"x_max":675,"o":"m 164 -318 l 204 -126 q 233 246 275 221 l 235 257 q 301 367 268 275 q 356 560 335 460 q 241 533 319 557 q 119 510 163 510 q 74 542 74 510 q 88 610 74 576 q 146 639 101 639 q 254 613 183 639 q 364 588 325 588 q 373 744 375 639 q 382 903 371 850 q 403 954 390 943 q 454 965 415 965 q 514 933 514 965 q 474 796 514 893 q 445 733 467 779 q 410 654 424 688 q 390 588 397 621 q 509 613 431 588 q 629 638 588 638 q 675 604 675 638 q 664 546 675 576 q 642 515 656 522 q 601 508 629 508 q 492 533 563 508 q 386 560 422 558 q 367 442 375 506 q 360 322 358 379 q 378 256 361 264 l 376 244 q 306 99 347 229 q 246 -128 265 -32 l 206 -318 l 164 -318 z "},"‡":{"ha":708,"x_min":-28,"x_max":681,"o":"m 192 -325 q 133 -293 133 -325 q 156 -199 133 -261 q 205 -86 165 -174 q 256 53 244 1 q 137 28 215 53 q 17 4 58 4 q -17 11 -7 4 q -28 38 -28 18 q -12 108 -28 78 q 43 132 0 132 q 153 107 82 132 q 260 81 224 82 q 276 176 271 129 q 276 263 281 224 q 253 313 271 303 l 256 325 q 316 408 288 342 q 363 560 344 475 q 248 533 326 557 q 125 510 169 510 q 91 516 101 510 q 81 542 81 522 q 100 618 81 585 q 153 639 114 639 q 260 613 190 639 q 369 588 331 588 q 378 744 381 639 q 388 903 376 850 q 409 954 396 943 q 461 965 422 965 q 519 933 519 965 q 497 839 519 901 q 448 726 488 814 q 397 588 408 639 q 516 613 438 588 q 636 638 594 638 q 670 630 660 638 q 681 603 681 622 q 667 538 681 568 q 647 514 658 519 q 610 508 636 508 q 501 534 572 508 q 393 560 431 560 q 376 413 376 479 q 399 325 375 346 l 397 313 q 338 225 369 299 q 290 81 306 151 q 405 107 326 83 q 528 131 483 131 q 562 124 551 131 q 572 99 572 118 q 558 33 572 67 q 500 3 544 3 q 392 28 461 3 q 283 53 322 53 q 274 -105 272 0 q 265 -262 276 -210 q 244 -314 257 -303 q 192 -325 231 -325 z "},"•":{"ha":493,"x_min":69,"x_max":424,"o":"m 213 257 q 110 298 150 257 q 69 401 69 339 q 131 549 69 486 q 282 611 192 611 q 384 571 344 611 q 424 469 424 531 q 360 318 424 379 q 213 257 296 257 z "},"…":{"ha":1389,"x_min":140,"x_max":1150,"o":"m 1040 3 q 992 22 1010 3 q 974 71 974 42 q 1005 143 974 113 q 1079 174 1036 174 q 1130 155 1110 174 q 1150 106 1150 136 q 1117 33 1150 64 q 1040 3 1083 3 m 624 3 q 575 22 593 3 q 557 71 557 42 q 588 143 557 113 q 663 174 619 174 q 713 155 693 174 q 733 106 733 136 q 700 33 733 64 q 624 3 667 3 m 207 3 q 158 22 176 3 q 140 71 140 42 q 172 143 140 113 q 246 174 203 174 q 297 155 276 174 q 317 106 317 136 q 283 33 317 64 q 207 3 250 3 z "},"‰":{"ha":1590,"x_min":43,"x_max":1546,"o":"m 206 -15 l 167 15 l 922 949 l 961 917 l 206 -15 m 793 -14 q 685 38 724 -14 q 647 176 647 90 q 667 319 647 243 q 724 465 688 396 q 817 581 760 535 q 940 626 874 626 q 1047 575 1008 626 q 1086 436 1086 524 q 1066 294 1086 371 q 1010 148 1046 218 q 917 32 974 78 q 793 -14 860 -14 m 819 18 q 912 108 871 18 q 969 296 953 199 q 986 457 986 393 q 914 593 986 593 q 838 542 872 593 q 785 417 804 490 q 757 275 767 343 q 747 160 747 207 q 819 18 747 18 m 1253 -14 q 1145 38 1183 -14 q 1107 176 1107 90 q 1127 319 1107 243 q 1183 465 1147 396 q 1276 581 1219 535 q 1400 626 1333 626 q 1507 575 1468 626 q 1546 436 1546 524 q 1526 294 1546 371 q 1469 148 1506 218 q 1376 32 1433 78 q 1253 -14 1319 -14 m 1279 18 q 1372 108 1331 18 q 1429 296 1413 199 q 1446 457 1446 393 q 1374 593 1446 593 q 1298 542 1332 593 q 1245 417 1264 490 q 1217 275 1226 343 q 1207 160 1207 207 q 1279 18 1207 18 m 189 306 q 81 358 119 306 q 43 496 43 410 q 63 639 43 563 q 119 785 83 715 q 213 900 156 854 q 336 946 269 946 q 443 894 404 946 q 482 756 482 843 q 462 614 482 690 q 406 467 442 538 q 313 351 369 397 q 189 306 256 306 m 215 338 q 308 428 267 338 q 365 615 349 518 q 382 776 382 713 q 310 913 382 913 q 234 861 268 913 q 181 736 200 810 q 153 594 163 663 q 143 479 143 526 q 215 338 143 338 z "},"‹":{"ha":486,"x_min":57,"x_max":418,"o":"m 311 76 l 57 350 l 61 375 l 401 631 l 418 611 l 192 354 l 336 97 l 311 76 z "},"›":{"ha":486,"x_min":63,"x_max":424,"o":"m 79 76 l 63 96 l 289 353 l 144 610 l 169 631 l 424 357 l 419 332 l 79 76 z "},"⁄":{"ha":354,"x_min":-215,"x_max":579,"o":"m -176 -15 l -215 15 l 540 949 l 579 917 l -176 -15 z "},"€":{"ha":708,"x_min":10,"x_max":728,"o":"m 349 -21 q 218 16 272 -21 q 138 114 164 53 q 103 241 113 175 q 97 379 93 307 l 10 379 l 21 431 l 100 431 q 124 550 106 489 l 46 550 l 57 601 l 140 601 q 305 861 196 760 q 542 963 414 963 q 728 917 644 963 l 685 713 l 663 713 l 661 783 q 623 881 660 847 q 535 915 586 915 q 257 601 349 915 l 601 601 l 590 550 l 243 550 q 224 431 231 501 l 565 431 l 554 379 l 219 379 q 389 26 215 26 q 556 151 489 26 l 593 221 l 615 213 l 553 26 q 349 -21 458 -21 z "},"ℓ":{"ha":614,"x_min":-31,"x_max":631,"o":"m 238 -15 q 113 43 157 -15 q 60 194 69 101 q -19 165 -7 169 l -31 196 q 57 232 -10 204 q 106 572 56 404 q 254 851 157 739 q 469 964 351 964 q 590 919 549 964 q 631 800 631 875 q 517 504 631 644 q 193 256 403 364 q 321 69 213 69 q 464 140 381 69 l 486 117 q 238 -15 368 -15 m 190 299 q 501 794 501 481 q 426 913 501 913 q 305 808 361 913 q 219 563 249 703 q 190 299 189 422 z "},"℗":{"ha":1042,"x_min":72,"x_max":975,"o":"m 742 544 q 672 427 742 464 q 508 386 601 390 l 507 419 q 603 447 564 419 q 643 531 643 475 q 612 617 643 588 q 525 647 581 647 q 490 644 510 647 l 490 294 q 497 242 490 254 q 526 226 504 231 l 575 217 l 575 200 l 335 200 l 335 217 l 368 226 q 392 242 388 232 q 397 294 397 251 l 397 581 q 392 633 397 624 q 367 649 388 643 l 335 657 l 335 674 q 554 679 424 679 q 742 544 742 679 m 524 32 q 799 145 689 33 q 908 436 908 257 q 798 725 908 614 q 524 836 688 836 q 249 724 358 836 q 139 433 139 613 q 249 144 139 256 q 524 32 360 32 m 845 111 q 780 47 845 111 q 524 -18 715 -18 q 202 110 332 -18 q 72 433 72 238 q 202 758 72 629 q 524 888 332 888 q 845 760 715 888 q 975 436 975 632 q 845 111 975 240 z "},"™":{"ha":1375,"x_min":42,"x_max":1319,"o":"m 1319 368 l 1064 368 l 1064 385 l 1101 396 q 1135 417 1128 404 q 1140 478 1142 429 l 1132 796 l 1132 860 l 1131 860 l 1108 797 l 939 368 l 888 368 l 718 789 q 707 815 715 794 q 696 844 699 835 l 694 844 l 694 786 l 690 594 q 692 467 689 508 q 704 413 696 425 q 731 396 713 400 l 775 385 l 775 368 l 564 368 l 564 385 l 601 396 q 631 428 624 403 q 639 553 638 453 l 644 826 q 636 888 646 874 q 599 908 626 901 l 558 919 l 558 936 l 768 939 l 913 567 q 936 492 931 518 l 938 492 l 967 567 l 1114 939 l 1311 936 l 1311 919 l 1272 908 q 1240 888 1247 900 q 1235 826 1233 875 l 1243 478 q 1250 415 1244 426 q 1281 396 1256 403 l 1319 385 l 1319 368 m 421 368 l 146 368 l 146 385 l 193 396 q 224 414 218 401 q 231 478 231 426 l 231 896 l 192 896 q 101 885 125 896 q 72 851 76 875 l 63 799 l 42 799 l 42 963 l 57 963 l 61 951 q 78 938 64 940 q 144 935 92 935 l 422 935 q 489 938 475 935 q 506 951 503 940 l 510 963 l 525 963 l 525 799 l 504 799 l 494 851 q 466 885 490 875 q 375 896 442 896 l 336 896 l 336 478 q 342 414 336 426 q 372 396 347 401 l 421 385 l 421 368 z "},"Ω":{"ha":992,"x_min":-4,"x_max":919,"o":"m -1 0 l -4 207 l 15 210 l 29 156 q 74 111 38 122 q 181 100 111 100 l 283 100 l 283 103 q 146 278 196 179 q 96 479 96 378 q 131 657 96 569 q 228 813 167 744 q 379 922 289 881 q 571 964 469 964 q 828 873 738 964 q 919 633 919 782 q 821 336 919 475 q 563 103 722 197 l 563 100 l 693 100 q 824 138 800 100 l 871 210 l 888 204 l 824 0 l 454 0 l 467 65 q 693 334 604 183 q 782 649 782 485 q 726 844 782 768 q 563 919 669 919 q 413 875 479 919 q 309 760 347 831 q 251 609 271 689 q 232 449 232 529 q 358 65 232 229 l 346 0 l -1 0 z "},"℮":{"ha":1203,"x_min":88,"x_max":1143,"o":"m 615 -22 q 239 115 390 -22 q 88 469 88 251 q 239 826 88 689 q 615 964 390 964 q 991 822 839 964 q 1143 460 1143 681 l 247 460 l 247 197 q 406 75 310 118 q 615 32 503 32 q 824 76 731 32 q 974 185 917 119 l 1054 185 q 867 33 983 88 q 615 -22 751 -22 m 247 522 l 983 522 l 983 742 q 824 863 921 819 q 615 907 728 907 q 406 864 503 907 q 247 742 310 821 l 247 522 z "},"∂":{"ha":588,"x_min":6,"x_max":540,"o":"m 185 -19 q 50 42 94 -19 q 6 200 6 104 q 42 415 6 310 q 159 596 78 519 q 349 672 240 672 q 411 665 385 672 q 165 1006 365 904 l 175 1029 q 438 847 335 968 q 540 529 540 725 q 500 272 540 396 q 376 65 460 149 q 185 -19 293 -19 m 424 528 q 422 567 424 554 q 318 617 383 617 q 218 576 260 617 q 157 475 176 536 q 130 363 138 414 q 122 268 122 311 q 221 31 122 31 q 319 84 276 31 q 383 219 361 138 q 414 380 404 301 q 424 528 424 458 z "},"∆":{"ha":882,"x_min":-51,"x_max":756,"o":"m -51 0 l -47 19 l 517 963 l 582 963 l 756 19 l 751 0 l -51 0 m 72 94 l 608 94 l 508 711 q 499 828 494 804 l 493 828 q 432 707 492 808 l 72 94 z "},"∏":{"ha":1019,"x_min":-81,"x_max":1065,"o":"m -81 -194 l -78 -181 l -28 -165 q 36 -128 21 -151 q 69 -18 51 -104 l 236 760 q 250 873 256 849 q 204 908 244 897 l 151 924 l 154 938 l 1065 938 l 1063 924 l 1013 908 q 949 871 964 894 q 915 761 935 847 l 749 -17 q 735 -130 729 -106 q 781 -165 740 -154 l 833 -181 l 831 -194 l 475 -194 l 478 -181 l 528 -165 q 592 -128 576 -151 q 625 -18 607 -104 l 817 888 l 385 888 l 193 -17 q 179 -130 174 -106 q 225 -165 185 -154 l 278 -181 l 275 -194 l -81 -194 z "},"∑":{"ha":826,"x_min":-99,"x_max":807,"o":"m -99 -194 l -85 -135 l 431 372 l 133 882 l 146 938 l 807 938 l 757 710 l 733 710 l 738 796 q 708 865 740 843 q 575 888 675 888 l 274 888 l 546 426 l 536 393 l 38 -100 l 489 -100 q 576 -85 544 -100 q 631 -32 608 -69 l 697 82 l 714 76 l 619 -194 l -99 -194 z "},"−":{"ha":708,"x_min":1,"x_max":663,"o":"m 1 289 l 1 375 l 663 375 l 663 289 l 1 289 z "},"√":{"ha":708,"x_min":13,"x_max":796,"o":"m 375 -275 l 161 524 l 13 524 l 13 625 l 254 625 l 436 -128 l 697 938 l 796 938 l 483 -275 l 375 -275 z "},"∞":{"ha":936,"x_min":35,"x_max":874,"o":"m 240 96 q 90 165 146 96 q 35 346 35 233 q 88 515 35 446 q 228 583 142 583 q 344 540 300 583 q 435 414 389 497 q 540 539 488 494 q 668 583 593 583 q 818 515 763 583 q 874 333 874 446 q 820 165 874 233 q 681 96 767 96 q 610 109 642 96 q 553 151 579 122 q 513 204 528 181 q 474 271 497 228 q 369 142 421 188 q 240 96 317 96 m 682 193 q 787 234 747 193 q 826 343 826 275 q 792 441 826 403 q 699 479 757 479 q 592 435 636 479 q 494 307 547 392 q 682 193 582 193 m 210 200 q 271 213 243 200 q 326 257 299 226 q 369 310 353 288 q 413 379 385 333 q 226 486 331 486 q 122 445 161 486 q 82 336 82 404 q 119 239 82 278 q 210 200 156 200 z "},"∫":{"ha":531,"x_min":-287,"x_max":682,"o":"m -189 -322 q -256 -303 -225 -322 q -287 -250 -287 -285 q -274 -210 -287 -231 q -242 -185 -260 -190 l -232 -185 q -197 -229 -225 -207 q -129 -251 -169 -251 q 26 -123 -31 -251 q 125 285 82 6 q 140 391 126 293 q 166 556 154 489 q 190 681 178 624 q 329 926 222 815 q 561 1038 436 1038 q 644 1016 606 1038 q 682 953 682 994 q 665 906 682 929 q 626 875 649 882 l 615 875 q 572 932 607 903 q 488 961 536 961 q 307 696 343 961 q 217 196 261 372 q 180 72 201 135 q 122 -64 158 10 q 42 -192 85 -137 q -62 -285 -1 -247 q -189 -322 -122 -322 z "},"≈":{"ha":708,"x_min":39,"x_max":644,"o":"m 481 122 q 347 165 426 122 q 196 211 267 211 q 86 117 129 211 l 39 182 q 203 294 99 294 q 349 253 254 294 q 384 238 358 249 q 422 221 410 226 q 451 210 433 215 q 482 206 469 206 q 530 222 507 206 q 565 253 553 238 q 597 300 576 269 l 644 235 q 602 179 619 199 q 552 141 585 160 q 481 122 519 122 m 481 382 q 347 425 426 382 q 196 471 267 471 q 86 376 129 471 l 39 442 q 203 554 99 554 q 349 513 254 554 q 384 497 358 508 q 422 481 410 486 q 451 470 433 475 q 482 465 469 465 q 530 481 507 465 q 565 513 553 497 q 597 560 576 529 l 644 494 q 602 439 619 458 q 552 401 585 419 q 481 382 519 382 z "},"≠":{"ha":708,"x_min":11,"x_max":672,"o":"m 193 -10 l 136 21 l 210 157 l 11 157 l 11 244 l 256 244 l 351 419 l 11 419 l 11 507 l 397 507 l 492 679 l 549 649 l 471 507 l 672 507 l 672 419 l 425 419 l 329 244 l 672 244 l 672 157 l 283 157 l 193 -10 z "},"≤":{"ha":708,"x_min":13,"x_max":674,"o":"m 674 142 l 19 364 l 19 463 l 674 685 l 674 600 l 135 414 l 674 226 l 674 142 m 13 0 l 13 86 l 674 86 l 674 0 l 13 0 z "},"≥":{"ha":708,"x_min":21,"x_max":682,"o":"m 21 142 l 21 226 l 560 414 l 21 600 l 21 685 l 675 463 l 675 364 l 21 142 m 21 0 l 21 86 l 682 86 l 682 0 l 21 0 z "},"◊":{"ha":650,"x_min":50,"x_max":594,"o":"m 283 -7 l 50 465 l 283 938 l 361 938 l 594 465 l 361 -7 l 283 -7 m 322 94 l 501 465 l 322 836 l 144 465 l 322 94 z "},"":{"ha":708,"x_min":6,"x_max":640,"o":"m 328 -15 q 133 67 199 -15 q 67 282 67 150 l 6 282 l 17 333 l 71 333 q 88 415 75 376 l 32 415 l 43 467 l 106 467 q 251 662 154 586 q 461 738 347 738 q 640 703 560 738 l 608 542 l 583 542 l 583 599 q 547 669 583 643 q 463 694 511 694 q 318 631 381 694 q 221 467 256 567 l 532 467 l 521 415 l 206 415 q 192 333 196 378 l 506 333 l 494 282 l 189 282 q 203 169 189 222 q 257 72 217 115 q 360 29 297 29 q 508 121 456 29 l 539 174 l 563 168 l 513 21 q 328 -15 424 -15 z "},"":{"ha":708,"x_min":35,"x_max":592,"o":"m 178 -176 l 211 -17 q 35 18 107 -17 l 43 172 l 67 178 l 76 121 q 126 54 85 76 q 224 31 168 32 l 289 326 q 233 364 251 350 q 188 403 214 378 q 151 456 163 428 q 139 519 139 485 q 209 672 139 614 q 379 733 279 729 l 404 847 l 464 847 l 439 733 q 592 699 524 731 l 560 544 l 536 544 l 535 599 q 508 656 533 631 q 428 685 482 681 l 372 431 q 490 336 451 381 q 528 226 528 292 q 455 59 528 124 q 272 -15 382 -6 l 238 -176 l 178 -176 m 318 456 l 369 686 q 271 651 308 683 q 233 569 233 618 q 254 509 233 533 q 318 456 275 485 m 283 32 q 385 76 343 39 q 428 175 428 114 q 343 300 428 238 l 283 32 z "},"":{"ha":708,"x_min":35,"x_max":636,"o":"m 224 -176 l 260 -11 q 95 79 156 4 q 35 272 35 154 q 150 588 35 450 q 425 736 265 726 l 450 847 l 510 847 l 485 736 q 636 703 569 732 l 604 542 l 579 542 l 579 599 q 549 662 579 638 q 475 693 519 686 l 329 29 q 426 51 381 25 q 501 121 472 76 l 535 174 l 557 168 l 504 21 q 319 -15 421 -14 l 283 -176 l 224 -176 m 272 44 l 415 692 q 280 611 339 679 q 192 456 221 543 q 164 279 164 368 q 192 135 164 199 q 272 44 219 71 z "},"":{"ha":708,"x_min":-86,"x_max":660,"o":"m -78 -25 l -86 -8 l 22 64 q 161 200 117 126 q 206 382 206 274 q 203 471 206 415 l 56 471 l 67 522 l 199 522 q 196 615 196 583 q 293 851 196 749 q 528 953 390 953 q 623 925 586 953 q 660 858 660 897 q 633 794 660 821 q 576 769 606 768 l 568 772 q 549 855 578 808 q 463 901 519 901 q 369 861 406 901 q 319 772 332 821 q 307 668 307 722 q 313 522 307 606 l 500 522 l 489 471 l 318 471 q 318 451 318 463 q 318 428 318 440 q 318 410 318 415 q 286 272 318 331 q 188 157 254 213 l 111 93 l 364 64 q 574 157 574 39 q 548 208 574 188 q 493 226 522 228 l 490 231 q 516 273 496 256 q 561 290 536 290 q 611 260 593 290 q 629 196 629 231 q 587 73 629 133 q 482 -10 544 13 q 422 -20 458 -18 q 340 -19 385 -22 q 263 -11 296 -15 q 186 0 229 -7 q 136 8 143 7 q 26 11 58 17 q -78 -25 -7 6 z "},"":{"ha":708,"x_min":-121,"x_max":760,"o":"m -25 -250 q -90 -232 -60 -250 q -121 -181 -121 -214 q -108 -142 -121 -160 q -78 -118 -96 -125 l -67 -118 q -33 -169 -58 -144 q 35 -193 -7 -193 q 219 90 186 -193 l 269 526 l 97 526 l 97 578 l 278 578 l 282 604 q 411 850 304 739 q 642 961 518 961 q 723 940 686 961 q 760 879 760 919 q 744 833 760 856 q 707 803 729 810 l 697 803 q 656 866 689 835 q 574 897 622 897 q 456 824 493 897 q 401 621 419 751 l 396 578 l 604 578 l 604 526 l 390 526 l 349 215 q 312 54 338 131 q 243 -94 286 -22 q 131 -208 200 -165 q -25 -250 61 -250 z "},"":{"ha":708,"x_min":57,"x_max":731,"o":"m 129 0 l 133 17 l 190 32 q 219 56 210 38 q 239 121 228 74 l 249 163 l 57 163 l 68 214 l 260 214 l 279 296 l 83 296 l 94 347 l 269 347 l 188 581 q 154 663 167 642 q 124 692 142 683 l 101 701 l 104 718 l 389 718 l 385 701 l 325 686 q 299 672 307 682 q 294 640 292 661 q 307 582 296 618 l 375 378 l 489 533 q 538 602 522 579 q 563 647 553 625 q 567 677 572 668 q 546 690 563 686 l 501 701 l 506 718 l 731 718 l 726 701 l 699 692 q 663 669 682 686 q 631 637 643 651 q 600 596 619 622 q 575 563 581 569 l 411 347 l 581 347 l 569 296 l 392 296 l 374 214 l 554 214 l 543 163 l 363 163 l 353 119 q 364 32 335 40 l 419 17 l 415 0 l 129 0 z "},"":{"ha":708,"x_min":38,"x_max":642,"o":"m 251 -22 q 93 46 149 -22 q 38 233 38 114 q 83 464 38 349 q 220 661 129 579 q 424 743 311 743 q 588 672 533 743 q 642 481 642 600 q 613 308 642 397 q 533 146 583 219 q 409 25 483 72 q 251 -22 335 -22 m 274 22 q 385 74 336 22 q 460 202 433 125 q 499 353 486 279 q 513 486 513 426 q 396 699 513 699 q 288 647 335 699 q 215 516 240 594 q 178 363 190 438 q 167 229 167 289 q 274 22 167 22 z "},"":{"ha":708,"x_min":56,"x_max":592,"o":"m 56 0 l 58 14 l 119 28 q 192 65 174 40 q 228 171 210 89 l 307 546 q 315 657 324 633 q 263 690 307 681 l 199 704 l 201 718 l 592 718 l 589 704 l 526 690 q 456 655 474 679 q 419 547 438 631 l 339 172 q 331 61 322 85 q 383 28 339 38 l 449 14 l 446 0 l 56 0 z "},"":{"ha":708,"x_min":-14,"x_max":596,"o":"m -14 0 l -1 60 q 242 215 118 125 q 303 262 282 246 q 364 313 325 278 q 423 375 403 347 q 460 441 443 403 q 478 517 478 479 q 428 619 478 582 q 311 657 378 657 q 125 572 213 657 l 106 593 q 376 743 221 743 q 529 688 463 743 q 596 549 596 632 q 310 206 596 382 q 244 165 286 190 q 173 120 203 139 q 126 92 143 101 l 372 92 q 499 133 471 92 l 544 203 l 561 199 l 499 0 l -14 0 z "},"":{"ha":708,"x_min":-24,"x_max":561,"o":"m 40 -212 q -24 -211 0 -212 l -14 -171 q 47 -172 6 -172 q 206 -144 126 -172 q 345 -51 286 -115 q 404 96 404 13 q 385 176 404 143 q 335 224 367 208 q 271 247 303 240 q 203 253 239 253 l 118 253 l 132 311 l 193 311 q 371 373 292 311 q 450 532 450 435 q 414 626 450 586 q 318 665 378 665 q 219 644 258 665 q 136 578 179 622 l 117 599 q 372 743 233 743 q 512 694 463 743 q 561 579 561 646 q 501 428 561 494 q 351 321 442 363 q 462 269 407 315 q 517 135 517 222 q 470 -17 517 51 q 351 -127 424 -86 q 197 -190 278 -168 q 40 -212 115 -212 z "},"":{"ha":708,"x_min":-26,"x_max":596,"o":"m 289 -192 l 340 61 l -26 61 l -14 124 l 482 719 l 579 719 l 456 126 l 596 126 l 582 61 l 442 61 l 390 -192 l 289 -192 m 61 126 l 353 126 l 449 586 l 446 586 l 61 126 z "},"":{"ha":708,"x_min":-19,"x_max":622,"o":"m 622 804 l 565 622 l 249 622 l 215 497 q 411 382 354 431 q 521 171 521 290 q 447 -29 521 61 q 266 -166 374 -119 q 46 -212 158 -212 q -19 -211 4 -212 l -8 -171 q 53 -172 11 -172 q 310 -83 196 -172 q 424 133 424 7 q 403 222 424 181 q 360 290 383 264 q 290 346 336 317 q 219 388 243 375 q 144 422 194 400 l 221 718 l 438 718 q 569 756 544 718 l 606 808 l 622 804 z "},"":{"ha":708,"x_min":46,"x_max":817,"o":"m 817 972 l 815 931 q 476 827 626 928 q 247 566 326 726 q 168 218 168 406 q 199 83 168 139 q 301 26 229 26 q 449 112 396 26 q 503 297 503 197 q 467 425 503 375 q 356 475 431 475 q 242 440 289 475 l 229 467 q 428 544 338 544 q 573 483 519 544 q 626 328 626 422 q 521 85 626 192 q 278 -21 415 -21 q 106 56 165 -21 q 46 249 46 132 q 118 538 46 393 q 405 857 218 740 q 817 972 592 974 z "},"":{"ha":708,"x_min":11,"x_max":667,"o":"m 57 -219 l 11 -187 l 578 607 l 278 607 q 150 565 178 607 l 104 496 l 88 501 l 156 718 l 667 718 l 646 622 l 57 -219 z "},"":{"ha":708,"x_min":26,"x_max":660,"o":"m 257 -21 q 91 38 156 -21 q 26 185 26 97 q 37 263 26 226 q 71 330 47 299 q 114 383 94 361 q 172 431 133 406 q 231 467 211 456 q 292 503 250 479 q 185 710 185 597 q 268 894 185 826 q 451 963 351 963 q 601 918 542 963 q 660 792 660 874 q 656 749 660 769 q 641 709 651 728 q 622 676 631 690 q 596 645 614 661 q 567 619 578 629 q 533 595 556 610 q 499 574 510 581 q 464 554 489 568 q 432 536 439 540 q 550 402 518 456 q 582 267 582 349 q 484 56 582 133 q 257 -21 386 -21 m 406 560 q 528 658 489 607 q 567 786 567 710 q 531 885 567 844 q 442 925 494 925 q 332 872 372 925 q 292 751 292 819 q 319 655 292 697 q 406 560 347 613 m 278 21 q 419 81 365 21 q 472 238 472 142 q 459 304 472 271 q 419 371 446 338 q 372 425 392 404 q 318 478 353 446 q 171 358 218 422 q 124 190 124 294 q 164 71 124 121 q 278 21 204 21 z "},"":{"ha":708,"x_min":-149,"x_max":622,"o":"m -149 -250 l -147 -208 q 192 -105 42 -206 q 421 156 342 -4 q 500 504 500 317 q 469 640 500 583 q 367 696 439 696 q 219 610 272 696 q 165 425 165 525 q 201 297 165 347 q 313 247 238 247 q 426 282 379 247 l 439 256 q 240 178 331 178 q 95 239 149 178 q 42 394 42 300 q 147 637 42 531 q 390 743 253 743 q 563 667 503 743 q 622 474 622 590 q 550 185 622 329 q 263 -135 450 -18 q -149 -250 76 -251 z "},"":{"ha":944,"x_min":15,"x_max":976,"o":"m 186 -19 q 60 36 106 -19 q 15 190 15 92 q 101 485 15 340 q 318 665 188 629 l 318 668 q 265 806 265 726 q 327 947 265 888 q 486 1006 389 1006 q 643 987 533 1006 q 803 968 753 968 q 884 977 854 968 q 967 1015 914 986 l 976 1003 l 918 953 q 852 871 871 913 q 815 746 833 829 l 792 638 l 965 644 l 954 592 l 947 586 l 782 586 l 696 181 q 744 50 668 50 q 865 110 801 50 l 881 90 q 781 14 838 47 q 672 -19 724 -19 q 604 6 628 -19 q 581 74 581 31 q 597 197 581 125 l 681 586 l 574 586 l 569 592 l 592 631 l 694 635 l 707 696 q 740 781 717 739 q 780 842 763 822 q 836 904 797 863 l 833 907 q 753 888 789 888 q 601 923 708 888 q 451 958 493 958 q 351 922 388 958 q 315 838 315 886 q 425 672 315 742 q 451 656 443 661 q 474 630 460 650 q 488 586 488 610 q 472 546 488 565 q 438 521 456 526 l 428 521 q 388 588 418 563 q 319 613 358 613 q 212 549 258 613 q 146 406 165 486 q 126 253 126 326 q 244 58 126 58 q 424 154 325 58 l 439 133 q 186 -19 301 -19 z "},"":{"ha":1389,"x_min":19,"x_max":1368,"o":"m 1368 689 q 1317 531 1361 600 q 1193 436 1274 461 q 1153 431 1176 431 q 1053 483 1083 431 l 1047 482 q 976 419 1025 439 q 874 404 926 399 l 868 400 q 939 257 911 331 l 953 257 q 1019 299 974 299 q 1114 240 1071 299 q 1176 114 1157 182 q 1197 -4 1196 46 l 1197 -29 q 1138 -51 1175 -43 q 1074 -56 1101 -58 q 1025 -185 1071 -121 q 918 -268 979 -250 q 893 -272 906 -272 q 869 -265 878 -272 q 871 -237 871 -256 q 828 -83 871 -172 q 757 -93 797 -93 q 671 -74 704 -93 q 694 16 669 -49 q 722 100 718 81 q 758 217 739 190 q 842 256 788 256 q 901 243 872 256 l 906 250 q 849 359 885 306 q 772 436 814 413 l 768 433 l 768 429 q 723 306 771 356 q 600 257 675 257 q 542 265 565 257 l 539 260 q 549 211 549 233 q 522 133 549 168 q 454 85 494 97 q 374 70 428 76 q 294 57 319 64 q 236 33 264 49 q 231 82 231 54 q 256 189 231 143 q 185 199 225 199 q 25 172 92 199 q 19 211 19 189 q 86 338 19 283 q 228 394 153 392 q 229 407 229 399 q 204 463 229 435 q 350 536 263 536 q 487 497 424 536 q 550 389 550 458 q 525 314 550 344 l 529 306 q 599 293 563 293 q 685 323 647 293 q 722 400 722 353 q 714 443 722 422 q 697 475 706 464 q 669 508 689 486 q 643 539 650 531 q 585 625 606 583 q 453 592 522 592 q 317 640 376 592 q 257 763 257 688 q 294 853 257 814 q 382 893 332 893 q 446 867 419 893 q 472 804 472 842 q 455 756 472 775 q 408 738 438 738 q 360 760 379 738 q 350 811 342 783 l 346 814 q 315 754 315 796 q 361 665 315 700 q 463 631 407 631 q 568 660 513 631 q 542 779 542 725 q 611 956 542 881 q 781 1031 681 1031 q 897 986 849 1031 q 863 940 890 954 q 767 981 825 981 q 714 972 733 981 q 728 876 728 929 q 619 649 728 732 q 738 505 663 567 q 896 443 814 443 q 1025 507 985 443 l 1024 515 q 1001 513 1010 513 q 931 543 960 513 q 903 617 903 574 q 933 699 903 644 q 963 796 963 754 q 957 844 963 824 q 988 849 972 849 q 1083 804 1050 849 q 1155 879 1122 831 q 1201 978 1188 928 q 1294 822 1294 913 q 1272 722 1294 774 q 1368 689 1310 689 m 688 871 q 676 956 688 911 q 585 778 585 894 q 606 683 585 732 q 688 871 688 749 z "},"":{"ha":708,"x_min":-15,"x_max":696,"o":"m 65 0 l 147 213 l -15 213 l -3 281 l 174 281 l 240 450 l 82 450 l 94 521 l 268 521 l 344 718 l 390 718 l 314 521 l 503 521 l 579 718 l 625 718 l 549 521 l 696 521 l 683 450 l 521 450 l 456 281 l 601 281 l 589 213 l 429 213 l 347 0 l 303 0 l 385 213 l 193 213 l 111 0 l 65 0 m 219 281 l 411 281 l 476 450 l 286 450 l 219 281 z "},"":{"ha":1944,"x_min":7,"x_max":1938,"o":"m 1938 189 q 1918 111 1938 144 q 1863 124 1888 124 q 1776 90 1831 124 q 1681 56 1722 56 q 1586 82 1642 56 l 1579 74 q 1636 -93 1636 -15 q 1606 -201 1636 -151 q 1525 -276 1576 -250 q 1411 -143 1481 -200 q 1261 -61 1342 -86 q 1208 -50 1242 -56 l 1181 -47 q 1128 10 1147 -40 q 1108 104 1110 60 q 1054 97 1086 97 q 967 114 1024 97 q 882 132 910 131 q 831 56 869 82 q 740 29 793 29 q 660 60 694 29 q 628 138 626 92 q 543 174 581 142 q 506 253 506 206 q 453 281 475 258 q 431 333 431 303 q 471 417 431 381 q 404 403 442 403 q 357 404 389 403 q 308 406 325 406 q 233 391 282 406 q 157 376 183 376 q 36 424 72 376 q 18 414 29 422 q 7 458 7 436 q 10 478 7 468 q 19 495 13 488 q 33 509 26 503 q 51 522 39 515 q 70 532 63 528 q 92 541 78 536 q 112 548 106 546 q 132 554 118 550 q 149 560 146 558 q 242 595 158 576 q 386 622 326 614 q 456 630 399 624 q 544 642 514 636 q 588 651 560 644 q 639 663 615 658 q 683 667 663 667 q 830 640 749 667 q 1008 572 911 614 q 1151 514 1106 529 q 1217 544 1178 544 q 1285 641 1236 606 q 1396 689 1335 676 q 1518 708 1457 701 q 1637 733 1579 715 q 1724 782 1694 750 q 1733 701 1733 744 q 1613 471 1733 569 q 1542 419 1600 460 l 1546 413 q 1681 436 1619 436 q 1863 365 1788 436 q 1938 189 1938 294 m 1271 296 q 1231 451 1271 394 q 1065 503 1174 461 q 967 541 1054 507 q 833 590 879 575 q 703 621 747 621 q 558 597 674 621 q 472 585 528 592 q 403 578 417 579 q 167 526 197 550 q 169 508 169 515 q 78 432 169 457 q 153 415 118 415 q 225 431 178 415 q 297 446 272 446 q 342 445 308 446 q 394 444 375 444 q 440 447 413 444 q 488 458 467 450 q 528 481 510 467 q 531 468 531 472 q 529 458 531 461 q 664 493 613 493 q 706 479 692 493 q 475 333 475 426 q 489 304 475 317 q 521 290 503 292 q 610 350 546 324 q 721 376 675 376 q 767 360 753 376 q 629 319 703 349 q 556 249 556 289 q 579 198 556 218 q 635 174 603 178 q 697 236 643 207 q 789 265 751 265 q 821 251 813 265 q 675 132 675 210 q 694 83 675 100 q 744 65 713 65 q 799 83 772 65 q 831 126 825 100 q 743 100 799 124 q 742 107 742 103 q 794 153 742 135 q 883 172 847 172 q 963 156 911 172 q 1043 140 1015 140 q 1167 207 1138 140 q 1178 179 1178 196 q 1163 142 1178 163 q 1228 125 1178 135 q 1271 296 1271 181 m 1400 282 q 1396 347 1400 313 q 1382 422 1392 381 q 1349 488 1372 463 q 1294 514 1326 514 q 1271 511 1278 514 q 1322 418 1307 489 q 1336 282 1336 347 q 1233 -7 1336 69 q 1274 -18 1253 -18 q 1335 18 1308 -18 q 1374 106 1361 54 q 1394 204 1388 158 q 1400 282 1400 250 m 1781 242 q 1738 279 1749 279 q 1725 276 1729 279 q 1729 289 1729 283 q 1693 335 1729 304 q 1657 293 1657 307 q 1661 281 1657 286 q 1649 285 1656 285 q 1603 250 1633 285 q 1647 211 1632 211 q 1661 215 1656 211 q 1656 201 1656 207 q 1693 156 1656 189 q 1729 199 1729 182 q 1725 213 1729 206 q 1739 207 1733 207 q 1781 242 1754 207 m 1611 603 q 1571 629 1585 629 q 1556 622 1563 629 q 1560 635 1560 628 q 1526 668 1560 649 q 1493 622 1493 629 q 1496 611 1493 614 q 1489 613 1493 613 q 1444 572 1475 613 q 1482 546 1467 546 q 1496 553 1486 546 q 1492 539 1492 546 q 1526 501 1492 526 q 1561 550 1561 536 q 1556 563 1561 554 q 1568 560 1564 560 q 1611 603 1579 560 m 1572 -53 q 1536 -18 1547 -18 q 1524 -24 1529 -18 q 1528 -10 1528 -17 q 1497 33 1528 3 q 1468 -12 1468 0 q 1472 -26 1468 -19 q 1461 -22 1468 -22 q 1426 -61 1453 -22 q 1461 -94 1450 -94 q 1471 -90 1467 -94 q 1468 -103 1468 -99 q 1499 -146 1468 -115 q 1528 -101 1528 -117 q 1524 -89 1528 -94 q 1535 -92 1526 -92 q 1572 -53 1544 -92 m 135 508 q 132 519 135 514 q 39 461 39 490 q 42 449 39 457 q 135 508 135 475 z "},"":{"ha":1944,"x_min":7,"x_max":1938,"o":"m 1938 458 q 1926 414 1938 436 q 1908 424 1915 422 q 1788 376 1872 376 q 1712 391 1761 376 q 1636 406 1663 406 q 1588 404 1619 406 q 1540 403 1556 403 q 1474 417 1503 403 q 1514 333 1514 381 q 1492 281 1514 303 q 1439 253 1469 258 q 1401 174 1439 206 q 1317 138 1364 142 q 1284 60 1318 92 q 1204 29 1250 29 q 1113 56 1151 29 q 1063 132 1075 82 q 978 114 1035 131 q 890 97 921 97 q 836 104 858 97 q 816 10 835 60 q 764 -47 797 -40 l 736 -50 q 683 -61 703 -56 q 533 -143 603 -86 q 419 -276 464 -200 q 338 -201 368 -250 q 308 -93 308 -151 q 365 74 308 -15 l 358 82 q 264 56 303 56 q 168 90 222 56 q 82 124 114 124 q 26 111 57 124 q 7 189 7 144 q 82 365 7 294 q 264 436 157 436 q 399 413 325 436 l 403 419 q 332 471 344 460 q 211 701 211 569 q 221 782 211 744 q 308 733 250 750 q 426 708 365 715 q 549 689 488 701 q 659 641 610 676 q 728 544 708 606 q 793 514 767 544 q 936 572 839 529 q 1115 640 1033 614 q 1261 667 1196 667 q 1306 663 1282 667 q 1357 651 1329 658 q 1400 642 1385 644 q 1488 630 1431 636 q 1558 622 1546 624 q 1702 595 1618 614 q 1796 560 1786 576 q 1813 554 1799 558 q 1833 548 1826 550 q 1853 541 1839 546 q 1874 532 1867 536 q 1894 522 1882 528 q 1912 509 1906 515 q 1925 495 1918 503 q 1935 478 1932 488 q 1938 458 1938 468 m 1867 432 q 1775 508 1775 457 q 1778 526 1775 515 q 1542 578 1747 550 q 1472 585 1528 579 q 1386 597 1417 592 q 1242 621 1271 621 q 1111 590 1197 621 q 978 541 1065 575 q 879 503 890 507 q 714 451 771 461 q 674 296 674 394 q 717 125 674 181 q 782 142 767 135 q 767 179 767 163 q 778 207 767 196 q 901 140 807 140 q 981 156 929 140 q 1061 172 1033 172 q 1150 153 1097 172 q 1203 107 1203 135 q 1201 100 1203 103 q 1114 126 1146 124 q 1146 83 1119 100 q 1200 65 1172 65 q 1251 83 1232 65 q 1269 132 1269 100 q 1124 251 1269 210 q 1156 265 1132 265 q 1247 236 1193 265 q 1310 174 1301 207 q 1365 198 1342 178 q 1389 249 1389 218 q 1315 319 1389 289 q 1178 360 1242 349 q 1224 376 1192 376 q 1334 350 1269 376 q 1424 290 1399 324 q 1456 304 1442 292 q 1469 333 1469 317 q 1239 479 1469 426 q 1281 493 1253 493 q 1415 458 1332 493 q 1414 468 1414 461 q 1417 481 1414 472 q 1456 458 1435 467 q 1505 447 1478 450 q 1551 444 1532 444 q 1603 445 1569 444 q 1647 446 1636 446 q 1719 431 1672 446 q 1792 415 1767 415 q 1867 432 1826 415 m 711 -7 q 608 282 608 69 q 623 418 608 347 q 674 511 638 489 q 650 514 667 514 q 595 488 618 514 q 563 422 572 463 q 549 347 553 381 q 544 282 544 313 q 551 204 544 250 q 570 106 557 158 q 610 18 583 54 q 671 -18 636 -18 q 711 -7 692 -18 m 342 250 q 296 285 311 285 q 283 281 289 285 q 288 293 288 286 q 251 335 288 308 q 215 289 215 304 q 219 276 215 283 q 207 279 215 279 q 164 242 196 279 q 206 207 190 207 q 219 213 211 207 q 215 199 215 206 q 251 156 215 183 q 289 201 289 189 q 283 215 289 207 q 297 211 289 211 q 342 250 313 211 m 500 572 q 456 613 469 613 q 449 611 451 613 q 451 622 451 614 q 418 668 451 629 q 385 635 385 649 q 389 622 385 628 q 374 629 382 629 q 333 603 360 629 q 376 560 365 560 q 389 563 381 560 q 383 550 383 554 q 418 501 383 536 q 453 539 453 526 q 449 553 453 547 q 463 546 458 546 q 500 572 478 546 m 518 -61 q 483 -22 492 -22 q 472 -26 476 -22 q 476 -12 476 -21 q 447 33 476 0 q 417 -10 417 3 q 421 -24 417 -17 q 408 -18 415 -18 q 372 -53 397 -18 q 410 -92 400 -92 q 421 -89 418 -92 q 417 -101 417 -94 q 446 -146 417 -117 q 476 -103 476 -115 q 474 -90 476 -99 q 483 -94 478 -94 q 518 -61 494 -94 m 1906 461 q 1813 519 1906 490 q 1810 508 1810 514 q 1903 449 1810 475 q 1906 461 1906 457 z "},"":{"ha":889,"x_min":-110,"x_max":801,"o":"m 542 393 l 507 679 q 496 803 494 775 l 493 803 q 426 681 486 786 l 261 393 l 542 393 m 799 0 l 450 0 l 453 14 l 504 28 q 567 68 556 42 q 569 178 579 94 l 550 343 l 232 343 l 176 246 q 100 81 106 122 q 140 29 94 40 l 188 14 l 185 0 l -110 0 l -107 14 l -71 26 q -4 69 -29 40 q 83 206 21 99 l 411 761 q 444 842 440 811 q 435 885 449 872 q 392 911 422 897 l 363 924 l 365 938 l 706 938 l 703 924 l 658 910 q 612 871 621 897 q 614 760 603 844 l 697 176 q 722 67 710 90 q 772 26 735 43 l 801 14 l 799 0 z "},"":{"ha":1107,"x_min":28,"x_max":1514,"o":"m 1514 -179 q 1448 -290 1514 -247 q 1307 -332 1382 -332 q 1131 -294 1213 -332 q 985 -183 1050 -256 q 876 -44 919 -111 q 783 117 833 22 q 606 486 699 278 l 640 486 q 841 554 760 486 q 922 740 922 622 q 674 922 922 907 l 514 178 q 500 65 494 89 q 546 29 506 40 l 599 14 l 596 0 l 240 0 l 243 14 l 293 29 q 357 67 342 43 q 390 176 372 90 l 549 921 q 424 904 486 917 q 335 880 381 896 q 239 838 289 864 q 156 774 189 813 q 124 693 124 736 q 139 651 124 671 q 176 628 154 632 l 181 618 q 153 574 175 592 q 106 556 132 556 q 48 585 68 556 q 28 653 28 614 q 65 761 28 703 q 633 963 199 963 q 718 960 682 963 q 810 953 754 958 q 905 933 865 947 q 983 895 944 918 q 1041 834 1021 872 q 1061 746 1061 796 q 964 553 1061 631 q 746 461 867 475 q 878 193 782 376 q 1115 -178 1015 -68 q 1318 -289 1215 -289 q 1390 -268 1360 -289 q 1419 -201 1419 -247 q 1408 -167 1419 -183 q 1383 -143 1397 -150 l 1385 -131 q 1440 -106 1410 -106 q 1493 -126 1472 -106 q 1514 -179 1514 -147 z "},"":{"ha":350,"x_min":19,"x_max":363,"o":"m 269 881 q 227 896 243 881 q 211 936 211 911 q 238 999 211 972 q 301 1025 264 1025 q 345 1010 328 1025 q 363 969 363 994 q 334 908 363 935 q 269 881 306 881 m 114 -12 q 61 160 21 -12 q 63 167 63 164 l 143 514 q 111 610 165 610 q 31 576 90 610 l 19 596 q 190 676 131 676 q 240 664 222 676 q 260 626 258 651 q 260 583 263 601 q 250 532 257 564 l 161 150 q 193 54 139 54 q 274 88 214 54 l 285 68 q 114 -12 174 -12 z "},"ﬀ":{"ha":772,"x_min":-324,"x_max":1028,"o":"m -225 -322 q -292 -303 -261 -322 q -324 -250 -324 -285 q -310 -210 -324 -231 q -278 -185 -296 -190 l -268 -185 q -233 -229 -261 -207 q -165 -251 -206 -251 q -7 -121 -67 -251 q 96 286 53 10 l 142 586 l 38 586 l 33 592 l 56 631 l 150 635 l 158 668 q 297 915 192 804 q 524 1025 401 1025 q 622 991 583 1025 q 669 917 660 957 q 907 1039 781 1039 q 990 1017 951 1039 q 1028 954 1028 996 q 1011 907 1028 931 q 972 876 994 883 l 961 876 q 917 933 953 904 q 833 963 882 963 q 706 885 751 963 q 646 697 661 807 l 638 638 l 811 644 l 800 592 l 793 586 l 629 586 q 560 219 590 339 q 509 60 540 140 q 431 -106 478 -19 q 315 -246 383 -192 q 171 -300 247 -300 q 108 -281 138 -300 q 78 -228 78 -262 q 90 -188 78 -208 q 121 -162 103 -168 l 131 -162 q 163 -207 138 -185 q 226 -229 189 -229 q 380 -97 319 -229 q 482 308 440 35 q 496 406 488 344 q 511 513 504 468 q 524 586 518 558 l 247 586 q 174 197 207 333 q 124 38 154 117 q 45 -127 93 -40 q -74 -268 -3 -214 q -225 -322 -144 -322 m 256 636 l 532 636 l 543 682 q 597 818 561 754 q 557 912 594 867 q 454 957 519 957 q 328 877 375 957 q 264 688 282 797 l 256 636 z "},"ﬁ":{"ha":725,"x_min":-324,"x_max":707,"o":"m -225 -322 q -292 -303 -261 -322 q -324 -250 -324 -285 q -310 -210 -324 -231 q -278 -185 -296 -190 l -268 -185 q -233 -229 -261 -207 q -165 -251 -206 -251 q -7 -121 -67 -251 q 96 286 53 10 l 142 586 l 38 586 l 33 592 l 56 631 l 150 635 l 167 710 q 316 939 196 839 q 560 1039 436 1039 q 661 1013 615 1039 q 707 933 707 986 q 676 869 707 894 q 599 843 646 843 l 588 846 q 565 923 593 881 q 469 965 538 965 q 352 915 403 965 q 289 803 301 865 l 256 638 l 638 646 l 643 640 l 529 150 q 561 54 507 54 q 642 88 582 54 l 653 68 q 482 -12 542 -12 q 429 160 389 -12 q 431 167 431 164 l 511 514 q 499 586 528 586 l 247 586 q 174 197 207 333 q 124 38 154 117 q 45 -127 93 -40 q -74 -268 -3 -214 q -225 -322 -144 -322 z "},"ﬂ":{"ha":757,"x_min":-324,"x_max":731,"o":"m -225 -322 q -292 -303 -261 -322 q -324 -250 -324 -285 q -310 -210 -324 -231 q -278 -185 -296 -190 l -268 -185 q -233 -229 -261 -207 q -165 -251 -206 -251 q -7 -121 -67 -251 q 96 286 53 10 l 142 586 l 38 586 l 33 592 l 56 631 l 150 635 l 161 682 q 298 928 193 817 q 525 1039 403 1039 q 649 1004 604 1039 l 722 1036 l 731 1032 l 542 150 q 574 54 522 54 q 654 88 594 54 l 665 68 q 494 -12 554 -12 q 446 3 463 -12 q 428 50 429 19 q 431 101 428 81 q 440 154 433 122 q 443 167 442 163 l 593 863 q 566 934 601 904 q 467 964 531 964 q 264 697 300 964 l 256 638 l 429 644 l 418 592 l 411 586 l 247 586 q 174 197 207 333 q 124 38 154 117 q 45 -127 93 -40 q -74 -268 -3 -214 q -225 -322 -144 -322 z "},"ﬃ":{"ha":1089,"x_min":-324,"x_max":1089,"o":"m -225 -322 q -292 -303 -261 -322 q -324 -250 -324 -285 q -310 -210 -324 -231 q -278 -185 -296 -190 l -268 -185 q -233 -229 -261 -207 q -165 -251 -206 -251 q -7 -121 -67 -251 q 96 286 53 10 l 142 586 l 38 586 l 33 592 l 56 631 l 150 635 l 158 668 q 297 915 192 804 q 524 1025 401 1025 q 619 993 581 1025 q 671 914 658 961 q 942 1039 800 1039 q 1043 1013 997 1039 q 1089 933 1089 986 q 1058 869 1089 894 q 981 843 1028 843 l 969 846 q 947 923 975 881 q 851 965 919 965 q 733 915 783 965 q 671 803 683 865 l 638 638 l 1019 646 l 1025 640 l 911 150 q 943 54 889 54 q 1024 88 964 54 l 1035 68 q 864 -12 924 -12 q 811 160 771 -12 q 813 167 813 164 l 893 514 q 881 586 910 586 l 629 586 q 560 219 590 339 q 509 60 540 140 q 431 -106 478 -19 q 315 -246 383 -192 q 171 -300 247 -300 q 108 -281 138 -300 q 78 -228 78 -262 q 90 -188 78 -208 q 121 -162 103 -168 l 131 -162 q 163 -207 138 -185 q 226 -229 189 -229 q 380 -97 319 -229 q 482 308 440 35 q 496 406 488 344 q 511 513 504 468 q 524 586 518 558 l 247 586 q 174 197 207 333 q 124 38 154 117 q 45 -127 93 -40 q -74 -268 -3 -214 q -225 -322 -144 -322 m 256 636 l 532 636 l 549 710 q 597 824 560 764 q 555 915 592 872 q 454 957 518 957 q 328 877 375 957 q 264 688 282 797 l 256 636 z "},"ﬄ":{"ha":1100,"x_min":-324,"x_max":1113,"o":"m -225 -322 q -292 -303 -261 -322 q -324 -250 -324 -285 q -310 -210 -324 -231 q -278 -185 -296 -190 l -268 -185 q -233 -229 -261 -207 q -165 -251 -206 -251 q -7 -121 -67 -251 q 96 286 53 10 l 142 586 l 38 586 l 33 592 l 56 631 l 150 635 l 158 668 q 297 915 192 804 q 524 1025 401 1025 q 622 991 583 1025 q 669 917 660 957 q 907 1039 781 1039 q 1031 1004 986 1039 l 1104 1036 l 1113 1032 l 924 150 q 956 54 904 54 q 1036 88 976 54 l 1047 68 q 876 -12 936 -12 q 828 3 844 -12 q 810 50 811 19 q 813 101 810 81 q 822 154 815 122 q 825 167 824 163 l 975 863 q 948 933 983 904 q 846 963 913 963 q 646 697 682 963 l 638 638 l 811 644 l 800 592 l 793 586 l 629 586 q 560 219 590 339 q 509 60 540 140 q 431 -106 478 -19 q 315 -246 383 -192 q 171 -300 247 -300 q 108 -281 138 -300 q 78 -228 78 -262 q 90 -188 78 -208 q 121 -162 103 -168 l 131 -162 q 163 -207 138 -185 q 226 -229 189 -229 q 380 -97 319 -229 q 482 308 440 35 q 496 406 488 344 q 511 513 504 468 q 524 586 518 558 l 247 586 q 174 197 207 333 q 124 38 154 117 q 45 -127 93 -40 q -74 -268 -3 -214 q -225 -322 -144 -322 m 256 636 l 532 636 l 543 682 q 597 818 561 754 q 557 912 594 867 q 454 957 519 957 q 328 877 375 957 q 264 688 282 797 l 256 636 z "},"ﬆ":{"ha":889,"x_min":-32,"x_max":921,"o":"m 125 -19 q 13 5 58 -19 q -32 69 -32 29 q 25 153 -32 121 l 36 153 q 81 69 43 107 q 174 31 118 31 q 261 63 224 31 q 299 144 299 94 q 274 217 299 183 q 179 307 249 251 q 101 384 129 347 q 72 471 72 421 q 126 605 72 550 q 258 671 181 660 l 258 674 q 210 806 210 732 q 272 947 210 888 q 431 1006 333 1006 q 588 987 478 1006 q 747 968 697 968 q 828 977 799 968 q 911 1015 858 986 l 921 1003 l 863 953 q 797 871 815 913 q 760 746 778 829 l 736 638 l 910 644 l 899 592 l 892 586 l 726 586 l 640 181 q 689 50 613 50 q 810 110 746 50 l 825 90 q 725 14 782 47 q 617 -19 668 -19 q 549 6 572 -19 q 525 74 525 31 q 542 197 525 125 l 625 586 l 518 586 l 514 592 l 536 631 l 639 635 l 651 696 q 684 781 661 739 q 724 842 707 822 q 781 904 742 863 l 778 907 q 697 888 735 888 q 544 923 651 888 q 396 958 436 958 q 296 922 332 958 q 260 838 260 886 q 369 672 260 733 q 424 594 424 642 q 374 532 424 549 l 365 532 q 324 599 360 571 q 251 628 289 628 q 180 602 208 628 q 151 535 151 576 q 153 517 151 526 q 158 501 156 508 q 167 485 161 494 q 176 471 172 476 q 190 456 181 465 q 203 442 199 447 q 218 428 207 438 q 233 416 229 419 q 249 403 238 413 q 264 392 261 393 q 351 305 321 346 q 382 208 382 264 q 302 45 382 110 q 125 -19 222 -19 z "}}}
